{"glyphs":{"0":{"ha":385,"x_min":0,"x_max":0,"o":"m 363 700 b 194 928 363 854 303 928 b 21 697 82 928 21 847 l 21 225 b 194 -7 21 75 82 -7 b 363 221 303 -7 363 67 z m 224 221 b 192 122 224 154 213 122 b 161 221 171 122 161 154 l 161 701 b 192 799 161 767 171 799 b 224 701 213 799 224 767 z "},"1":{"ha":242,"x_min":0,"x_max":0,"o":"m 219 0 l 219 922 l 100 922 b 13 861 94 890 72 861 l 13 751 l 83 751 l 83 0 z "},"2":{"ha":371,"x_min":0,"x_max":0,"o":"m 354 0 l 354 124 l 163 124 l 163 233 b 196 324 163 264 168 288 b 308 454 226 365 278 414 b 354 597 339 494 354 532 l 354 760 b 190 928 354 874 322 928 b 25 740 46 928 25 864 l 25 638 l 158 638 l 158 754 b 189 797 158 782 168 797 b 221 756 210 797 221 783 l 221 600 b 197 517 221 558 215 542 b 75 376 164 469 111 425 b 21 203 36 324 21 272 l 21 0 z "},"3":{"ha":371,"x_min":0,"x_max":0,"o":"m 357 371 b 275 488 357 444 321 479 l 275 493 b 346 604 324 501 346 543 l 346 771 b 186 928 346 847 299 928 b 21 740 82 928 21 860 l 21 661 l 154 661 l 154 756 b 185 797 154 783 164 797 b 217 756 206 797 217 783 l 217 589 b 182 543 217 558 204 543 l 133 543 l 133 428 l 176 428 b 217 381 203 428 217 413 l 217 164 b 185 122 217 136 206 122 b 154 164 164 122 154 136 l 154 268 l 21 268 l 21 174 b 188 -7 21 53 79 -7 b 357 175 299 -7 357 58 z "},"4":{"ha":379,"x_min":0,"x_max":0,"o":"m 182 333 l 104 333 l 176 640 l 182 640 z m 315 0 l 315 217 l 367 217 l 367 333 l 315 333 l 315 922 l 154 922 l 13 332 l 13 217 l 179 217 l 179 0 z "},"5":{"ha":378,"x_min":0,"x_max":0,"o":"m 356 431 b 236 576 356 546 297 576 b 154 544 200 576 172 565 l 149 544 l 158 799 l 335 799 l 335 922 l 38 922 l 21 439 l 151 439 b 185 457 161 451 172 457 b 217 415 203 457 217 447 l 217 164 b 185 122 217 136 206 122 b 154 164 164 122 154 136 l 154 238 l 21 238 l 21 171 b 188 -7 21 29 104 -7 b 356 175 299 -7 356 58 z "},"6":{"ha":378,"x_min":0,"x_max":0,"o":"m 356 453 b 250 578 356 529 315 578 b 167 525 215 578 186 563 l 161 525 l 161 756 b 192 797 161 783 171 797 b 224 756 213 797 224 783 l 224 690 l 356 690 l 356 763 b 192 928 356 869 296 928 b 21 743 79 928 21 861 l 21 175 b 190 -7 21 58 78 -7 b 356 174 299 -7 356 51 z m 224 164 b 192 122 224 136 213 122 b 161 164 171 122 161 136 l 161 429 b 192 461 164 450 175 461 b 224 419 213 461 224 447 z "},"7":{"ha":311,"x_min":0,"x_max":0,"o":"m 189 0 b 299 806 189 242 238 600 l 299 922 l 13 922 l 13 796 l 176 796 b 51 0 121 603 58 239 z "},"8":{"ha":371,"x_min":0,"x_max":0,"o":"m 215 586 b 185 540 215 556 204 540 b 154 586 165 540 154 556 l 154 756 b 185 797 154 783 165 797 b 215 756 204 797 215 783 z m 217 164 b 185 122 217 136 206 122 b 154 164 164 122 154 136 l 154 383 b 185 424 154 411 164 424 b 217 383 206 424 217 411 z m 356 368 b 274 485 356 440 319 476 l 274 490 b 346 601 322 499 346 539 l 346 771 b 185 928 346 849 297 928 b 25 771 72 928 25 849 l 25 601 b 96 490 25 539 47 499 l 96 485 b 14 368 50 476 14 440 l 14 175 b 185 -7 14 58 71 -7 b 356 175 299 -7 356 58 z "},"9":{"ha":378,"x_min":0,"x_max":0,"o":"m 217 167 b 185 125 217 138 206 125 b 154 165 164 125 154 138 l 154 246 l 24 246 l 24 158 b 186 -7 24 51 81 -7 b 356 179 299 -7 356 60 l 356 746 b 188 928 356 864 300 928 b 21 747 79 928 21 869 l 21 496 b 126 371 21 419 63 371 b 211 424 163 371 190 386 l 217 424 z m 217 519 b 185 488 213 499 203 488 b 154 529 164 488 154 501 l 154 757 b 185 799 154 785 164 799 b 217 757 206 799 217 785 z "},"\u0017":{"ha":128,"x_min":0,"x_max":0,"o":""}," ":{"ha":128,"x_min":0,"x_max":0,"o":""},"!":{"ha":207,"x_min":0,"x_max":0,"o":"m 171 0 l 171 136 l 33 136 l 33 0 z m 150 239 b 175 574 167 344 175 456 l 175 922 l 31 922 l 31 524 b 56 239 31 425 42 329 z "},"\"":{"ha":297,"x_min":0,"x_max":0,"o":"m 126 635 l 126 933 l 21 933 l 21 635 z m 275 635 l 275 933 l 169 933 l 169 635 z "},"#":{"ha":410,"x_min":0,"x_max":0,"o":"m 150 0 l 168 282 l 218 282 l 200 0 l 296 0 l 314 282 l 363 282 l 371 374 l 319 374 l 331 557 l 379 557 l 388 650 l 336 650 l 354 922 l 260 922 l 242 650 l 190 650 l 208 922 l 114 922 l 96 650 l 49 650 l 40 557 l 90 557 l 78 374 l 32 374 l 24 282 l 72 282 l 54 0 z m 185 557 l 236 557 l 224 374 l 174 374 z "},"$":{"ha":400,"x_min":0,"x_max":0,"o":"m 250 -83 l 250 13 b 378 186 338 26 378 85 l 378 315 b 333 454 378 371 364 419 b 196 567 303 490 253 515 b 164 639 168 592 164 599 l 164 753 b 199 789 164 774 175 789 b 233 749 221 789 233 775 l 233 650 l 365 650 l 365 726 b 250 908 365 824 338 889 l 250 1014 l 146 1014 l 146 910 b 24 744 60 896 24 840 l 24 610 b 81 472 24 558 49 510 b 203 361 121 425 175 392 b 229 307 218 344 229 326 l 229 179 b 193 131 228 154 225 131 b 154 171 167 131 154 146 l 154 276 l 21 276 l 21 192 b 146 13 21 85 60 28 l 146 -83 z "},"%":{"ha":417,"x_min":0,"x_max":0,"o":"m 121 -22 l 368 944 l 293 944 l 46 -22 z m 179 818 b 94 925 179 889 151 925 b 8 818 38 925 8 889 l 8 597 b 94 489 8 532 38 489 b 179 594 151 489 179 524 z m 108 594 b 93 554 108 568 103 554 b 78 594 83 554 78 568 l 78 819 b 93 860 78 846 83 860 b 108 819 103 860 108 846 z m 408 325 b 324 432 408 396 381 432 b 238 325 267 432 238 396 l 238 104 b 324 -4 238 39 267 -4 b 408 101 381 -4 408 31 z m 338 101 b 322 61 338 75 332 61 b 307 101 313 61 307 75 l 307 326 b 322 367 307 353 313 367 b 338 326 332 367 338 353 z "},"&":{"ha":375,"x_min":0,"x_max":0,"o":"m 21 175 b 192 -7 21 58 79 -7 b 357 174 301 -7 357 53 l 357 543 l 235 543 l 235 164 b 199 122 235 136 222 122 b 163 164 175 122 163 136 l 163 381 b 192 428 163 413 172 428 l 208 428 l 208 543 l 196 543 b 163 589 174 543 163 549 l 163 749 b 193 790 163 776 172 790 l 235 790 l 235 922 l 192 922 b 32 764 79 922 32 842 l 32 604 b 104 494 32 539 56 503 l 104 489 b 21 371 58 479 21 447 z "},"'":{"ha":149,"x_min":0,"x_max":0,"o":"m 126 635 l 126 933 l 21 933 l 21 635 z "},"(":{"ha":233,"x_min":0,"x_max":0,"o":"m 221 -199 b 161 414 181 3 161 211 b 221 1011 161 619 182 822 l 126 1011 b 42 417 68 839 42 628 b 126 -199 42 197 71 -25 z "},")":{"ha":233,"x_min":0,"x_max":0,"o":"m 107 -199 b 192 418 163 -25 192 197 b 107 1011 192 628 165 840 l 13 1011 b 72 415 51 822 72 619 b 13 -199 72 211 53 3 z "},"*":{"ha":338,"x_min":0,"x_max":0,"o":"m 292 663 l 228 754 l 326 785 l 301 851 l 207 821 l 207 933 l 126 933 l 126 821 l 32 851 l 10 785 l 108 754 l 43 663 l 104 621 l 167 707 l 233 621 z "},"+":{"ha":357,"x_min":0,"x_max":0,"o":"m 229 306 l 229 411 l 335 411 l 335 515 l 229 515 l 229 619 l 125 619 l 125 515 l 21 515 l 21 411 l 125 411 l 125 306 z "},",":{"ha":181,"x_min":0,"x_max":0,"o":"m 21 -207 b 158 -12 110 -190 158 -126 l 158 136 l 21 136 l 21 0 l 81 0 l 81 -32 b 21 -131 81 -75 61 -108 z "},"-":{"ha":175,"x_min":0,"x_max":0,"o":"m 158 368 l 158 483 l 17 483 l 17 368 z "},".":{"ha":181,"x_min":0,"x_max":0,"o":"m 158 0 l 158 136 l 21 136 l 21 0 z "},"/":{"ha":218,"x_min":0,"x_max":0,"o":"m 108 0 l 218 922 l 108 922 l 0 0 z "},":":{"ha":181,"x_min":0,"x_max":0,"o":"m 158 42 l 158 178 l 21 178 l 21 42 z m 158 506 l 158 642 l 21 642 l 21 506 z "},";":{"ha":181,"x_min":0,"x_max":0,"o":"m 158 506 l 158 642 l 21 642 l 21 506 z m 21 -165 b 158 29 110 -149 158 -85 l 158 178 l 21 178 l 21 42 l 81 42 l 81 10 b 21 -89 81 -33 61 -67 z "},"<":{"ha":357,"x_min":0,"x_max":0,"o":"m 335 267 l 335 382 l 136 458 l 136 464 l 335 539 l 335 657 l 21 518 l 21 407 z "},"=":{"ha":357,"x_min":0,"x_max":0,"o":"m 335 521 l 335 625 l 21 625 l 21 521 z m 335 299 l 335 403 l 21 403 l 21 299 z "},">":{"ha":357,"x_min":0,"x_max":0,"o":"m 335 407 l 335 518 l 21 657 l 21 539 l 221 464 l 221 458 l 21 382 l 21 267 z "},"?":{"ha":361,"x_min":0,"x_max":0,"o":"m 247 0 l 247 129 l 110 129 l 110 0 z m 244 232 l 244 308 b 257 397 244 346 247 371 b 328 532 275 444 310 483 b 342 629 336 554 342 582 l 342 733 b 181 928 342 868 317 928 b 13 714 31 928 13 854 l 13 654 l 146 654 l 146 742 b 176 797 146 779 150 797 b 208 750 199 797 208 783 l 208 638 b 199 568 208 603 206 585 b 133 444 182 526 154 490 b 114 332 121 417 114 386 l 114 232 z "},"@":{"ha":492,"x_min":0,"x_max":0,"o":"m 392 -4 b 257 -25 350 -19 304 -25 b 108 174 124 -25 108 19 l 108 575 b 251 783 108 736 122 783 b 386 581 368 783 386 739 l 386 229 b 365 196 386 207 382 196 b 344 215 347 196 344 206 l 344 633 l 286 633 l 281 610 l 276 610 b 218 639 263 629 243 639 b 150 490 154 639 150 585 l 150 249 b 224 125 150 168 167 125 b 281 153 243 125 263 129 l 286 153 b 354 125 299 135 318 125 b 469 256 428 125 469 169 l 469 582 b 250 867 469 772 446 867 b 21 575 46 867 21 764 l 21 172 b 257 -117 21 -17 43 -117 b 411 -87 324 -117 376 -107 z m 231 539 b 253 564 231 557 238 564 b 272 536 267 564 272 557 l 272 243 b 251 203 272 210 265 203 b 231 239 238 203 231 210 z "},"A":{"ha":388,"x_min":0,"x_max":0,"o":"m 382 0 l 292 922 l 94 922 l 4 0 l 142 0 l 156 210 l 226 210 l 242 0 z m 189 688 l 194 688 l 218 331 l 164 331 z "},"B":{"ha":379,"x_min":0,"x_max":0,"o":"m 232 0 b 364 124 328 0 364 42 l 364 368 b 282 486 364 454 328 478 l 282 492 b 354 601 331 500 354 540 l 354 776 b 217 922 354 868 317 922 l 21 922 l 21 0 z m 224 171 b 183 121 224 138 210 121 l 160 121 l 160 425 l 183 425 b 224 378 210 425 224 410 z m 222 586 b 188 540 222 556 211 540 l 160 540 l 160 801 l 188 801 b 222 751 215 801 222 786 z "},"C":{"ha":378,"x_min":0,"x_max":0,"o":"m 224 164 b 190 122 224 135 213 122 b 161 164 168 122 161 135 l 161 756 b 192 797 161 783 171 797 b 224 756 213 797 224 783 l 224 592 l 356 592 l 356 750 b 189 928 356 876 296 928 b 21 749 76 928 21 869 l 21 175 b 190 -7 21 58 79 -7 b 356 174 299 -7 356 53 l 356 376 l 224 376 z "},"D":{"ha":385,"x_min":0,"x_max":0,"o":"m 199 0 b 363 175 306 0 363 53 l 363 756 b 199 922 363 867 308 922 l 21 922 l 21 0 z m 160 126 l 160 796 l 179 796 b 221 724 207 796 221 772 l 221 206 b 189 126 221 153 210 126 z "},"E":{"ha":300,"x_min":0,"x_max":0,"o":"m 290 0 l 290 126 l 160 126 l 160 419 l 267 419 l 267 547 l 160 547 l 160 796 l 282 796 l 282 922 l 21 922 l 21 0 z "},"F":{"ha":300,"x_min":0,"x_max":0,"o":"m 163 0 l 163 408 l 264 408 l 264 535 l 163 535 l 163 796 l 288 796 l 288 922 l 21 922 l 21 0 z "},"G":{"ha":378,"x_min":0,"x_max":0,"o":"m 356 0 l 356 475 l 183 475 l 183 350 l 224 350 l 224 164 b 192 122 224 136 213 122 b 161 164 171 122 161 136 l 161 756 b 192 797 161 783 171 797 b 224 756 213 797 224 783 l 224 638 l 356 638 l 356 740 b 188 928 356 858 297 928 b 21 743 79 928 21 860 l 21 175 b 169 -7 21 60 76 -7 b 254 36 222 -7 242 15 l 260 36 l 265 0 z "},"H":{"ha":389,"x_min":0,"x_max":0,"o":"m 367 0 l 367 922 l 225 922 l 225 556 l 163 556 l 163 922 l 21 922 l 21 0 l 163 0 l 163 429 l 225 429 l 225 0 z "},"I":{"ha":185,"x_min":0,"x_max":0,"o":"m 163 0 l 163 922 l 21 922 l 21 0 z "},"J":{"ha":369,"x_min":0,"x_max":0,"o":"m 208 164 b 176 122 208 136 197 122 b 146 164 156 122 146 136 l 146 349 l 13 349 l 13 174 b 179 -7 13 53 71 -7 b 347 175 290 -7 347 58 l 347 922 l 208 922 z "},"K":{"ha":383,"x_min":0,"x_max":0,"o":"m 378 0 l 292 574 l 379 922 l 238 922 b 171 604 188 692 176 646 l 165 604 l 165 922 l 21 922 l 21 0 l 165 0 l 165 258 l 188 349 l 192 349 l 235 0 z "},"L":{"ha":308,"x_min":0,"x_max":0,"o":"m 296 0 l 296 129 l 163 129 l 163 922 l 21 922 l 21 0 z "},"M":{"ha":551,"x_min":0,"x_max":0,"o":"m 529 0 l 529 922 l 324 922 l 281 340 l 275 340 l 233 922 l 21 922 l 21 0 l 146 0 l 146 357 b 140 643 146 550 144 597 l 146 643 l 215 0 l 335 0 l 404 643 l 410 643 b 404 357 407 596 404 403 l 404 0 z "},"N":{"ha":408,"x_min":0,"x_max":0,"o":"m 388 0 l 388 922 l 265 922 l 265 717 b 271 329 265 501 268 417 l 265 329 l 208 922 l 21 922 l 21 0 l 142 0 l 142 296 b 136 640 142 489 140 571 l 142 640 l 222 0 z "},"O":{"ha":376,"x_min":0,"x_max":0,"o":"m 358 740 b 188 928 358 858 296 928 b 17 743 79 928 17 860 l 17 175 b 189 -7 17 58 78 -7 b 358 174 297 -7 358 53 z m 219 164 b 188 122 219 136 208 122 b 157 164 167 122 157 136 l 157 756 b 188 797 157 783 167 797 b 219 756 208 797 219 783 z "},"P":{"ha":372,"x_min":0,"x_max":0,"o":"m 221 350 b 358 494 321 350 358 403 l 358 776 b 221 922 358 868 321 922 l 21 922 l 21 0 l 163 0 l 163 350 z m 163 796 l 192 796 b 225 760 214 796 225 785 l 225 517 b 192 471 225 488 214 471 l 163 471 z "},"Q":{"ha":375,"x_min":0,"x_max":0,"o":"m 358 740 b 185 928 358 860 296 928 b 17 740 74 928 17 860 l 17 176 b 129 7 17 82 58 25 l 129 -162 b 278 -324 129 -258 169 -324 b 422 -162 383 -324 422 -261 l 422 -19 l 297 -19 l 297 -172 b 274 -199 297 -190 290 -199 b 249 -172 257 -199 249 -190 l 249 7 b 358 175 319 26 358 83 z m 219 171 b 188 129 219 142 208 129 b 157 171 165 129 157 142 l 157 754 b 186 797 157 778 164 797 b 219 753 208 797 219 779 z "},"R":{"ha":378,"x_min":0,"x_max":0,"o":"m 160 0 l 160 393 l 190 393 b 222 354 213 393 222 379 l 222 0 l 361 0 l 361 342 b 283 453 361 418 329 446 l 283 458 b 358 569 329 467 358 508 l 358 776 b 222 922 358 868 322 922 l 21 922 l 21 0 z m 222 554 b 188 508 222 525 211 508 l 160 508 l 160 796 l 188 796 b 222 760 211 796 222 785 z "},"S":{"ha":392,"x_min":0,"x_max":0,"o":"m 361 650 l 361 740 b 192 928 361 854 317 928 b 21 765 81 928 21 869 l 21 688 b 58 525 21 611 33 568 b 188 379 90 469 143 428 b 225 264 215 349 225 332 l 225 163 b 189 122 225 138 214 122 b 150 163 164 122 150 138 l 150 276 l 17 276 l 17 174 b 194 -7 17 54 71 -7 b 374 172 319 -7 374 56 l 374 296 b 335 443 374 371 361 407 b 189 588 300 489 238 532 b 160 681 164 615 160 629 l 160 761 b 194 797 160 782 171 797 b 229 757 217 797 229 783 l 229 650 z "},"T":{"ha":364,"x_min":0,"x_max":0,"o":"m 251 0 l 251 796 l 351 796 l 351 922 l 13 922 l 13 796 l 111 796 l 111 0 z "},"U":{"ha":383,"x_min":0,"x_max":0,"o":"m 221 164 b 190 122 221 136 211 122 b 158 164 169 122 158 136 l 158 922 l 21 922 l 21 174 b 192 -7 21 53 83 -7 b 361 175 303 -7 361 58 l 361 922 l 221 922 z "},"V":{"ha":388,"x_min":0,"x_max":0,"o":"m 292 0 l 382 922 l 246 922 l 199 258 l 193 258 l 144 922 l 4 922 l 94 0 z "},"W":{"ha":575,"x_min":0,"x_max":0,"o":"m 247 0 l 285 647 l 290 647 l 328 0 l 507 0 l 571 922 l 438 922 l 410 276 l 404 276 l 363 922 l 213 922 l 175 276 l 169 276 l 140 922 l 4 922 l 68 0 z "},"X":{"ha":406,"x_min":0,"x_max":0,"o":"m 258 922 l 207 632 l 201 632 l 150 922 l 8 922 l 113 467 l 4 0 l 146 0 l 199 313 l 204 313 l 257 0 l 400 0 l 294 486 l 396 922 z "},"Y":{"ha":383,"x_min":0,"x_max":0,"o":"m 265 0 l 265 378 l 381 922 l 243 922 l 199 621 l 193 621 l 142 922 l 3 922 l 124 379 l 124 0 z "},"Z":{"ha":350,"x_min":0,"x_max":0,"o":"m 338 0 l 338 126 l 157 126 l 332 794 l 332 922 l 14 922 l 14 796 l 190 796 l 13 129 l 13 0 z "},"[":{"ha":233,"x_min":0,"x_max":0,"o":"m 221 -181 l 221 -69 l 149 -69 l 149 886 l 221 886 l 221 999 l 44 999 l 44 -181 z "},"\\":{"ha":218,"x_min":0,"x_max":0,"o":"m 218 0 l 110 922 l 0 922 l 108 0 z "},"]":{"ha":233,"x_min":0,"x_max":0,"o":"m 189 -181 l 189 999 l 13 999 l 13 886 l 85 886 l 85 -69 l 13 -69 l 13 -181 z "},"^":{"ha":357,"x_min":0,"x_max":0,"o":"m 4 601 l 121 601 l 175 799 l 181 799 l 235 601 l 354 601 l 239 922 l 119 922 z "},"_":{"ha":254,"x_min":0,"x_max":0,"o":"m 257 -144 l 257 -58 l 0 -58 l 0 -144 z "},"`":{"ha":261,"x_min":0,"x_max":0,"o":"m 188 717 l 239 769 l 90 938 l 21 857 z "},"a":{"ha":369,"x_min":0,"x_max":0,"o":"m 213 133 b 181 110 208 118 200 110 b 149 142 160 110 149 121 l 149 286 b 178 329 149 308 157 324 b 213 342 192 333 203 336 z m 346 0 l 346 567 b 192 689 346 650 293 689 b 25 558 88 689 25 647 l 25 461 l 150 461 l 150 542 b 182 574 150 563 161 574 b 211 546 201 574 211 564 l 211 456 b 142 407 211 425 190 419 b 17 261 51 383 17 350 l 17 106 b 117 -7 17 42 39 -7 b 213 50 181 -7 200 28 l 218 50 l 221 0 z "},"b":{"ha":376,"x_min":0,"x_max":0,"o":"m 146 0 l 147 58 l 153 58 b 246 -7 175 11 204 -7 b 353 147 315 -7 353 53 l 353 526 b 249 689 353 629 328 689 b 163 639 210 689 183 674 l 157 639 l 157 933 l 24 933 l 24 0 z m 217 151 b 185 110 217 124 206 110 b 154 142 167 110 157 121 l 154 542 b 185 572 157 563 167 572 b 217 531 206 572 217 558 z "},"c":{"ha":368,"x_min":0,"x_max":0,"o":"m 217 156 b 185 114 217 128 206 114 b 154 156 165 114 154 128 l 154 526 b 186 568 154 554 165 568 b 217 526 207 568 217 554 l 217 439 l 344 439 l 344 526 b 186 689 344 636 296 689 b 24 526 75 689 24 636 l 24 156 b 185 -7 24 46 75 -7 b 344 156 296 -7 344 47 l 344 247 l 217 247 z "},"d":{"ha":376,"x_min":0,"x_max":0,"o":"m 353 0 l 353 933 l 219 933 l 219 639 l 214 639 b 131 689 194 675 167 689 b 24 567 67 689 24 642 l 24 117 b 132 -7 24 42 65 -7 b 224 58 175 -7 204 14 l 229 58 l 231 0 z m 160 531 b 192 572 160 558 171 572 b 222 542 210 572 219 563 l 222 142 b 192 110 219 121 210 110 b 160 151 171 110 160 124 z "},"e":{"ha":374,"x_min":0,"x_max":0,"o":"m 350 231 l 217 231 l 217 153 b 185 111 217 125 206 111 b 154 153 165 111 154 125 l 154 303 l 350 303 l 350 526 b 186 689 350 636 296 689 b 24 526 75 689 24 636 l 24 156 b 185 -7 24 46 75 -7 b 350 156 296 -7 350 47 z m 217 399 l 154 399 l 154 529 b 186 571 154 558 165 571 b 217 529 207 571 217 558 z "},"f":{"ha":294,"x_min":0,"x_max":0,"o":"m 283 683 l 201 683 l 201 771 b 243 813 201 800 215 813 l 282 813 l 282 933 l 243 933 b 67 771 125 933 67 878 l 67 683 l 10 683 l 10 563 l 67 563 l 67 0 l 201 0 l 201 563 l 283 563 z "},"g":{"ha":376,"x_min":0,"x_max":0,"o":"m 353 -161 l 353 683 l 231 683 l 229 624 l 224 624 b 131 689 201 667 174 689 b 24 564 65 689 24 642 l 24 151 b 128 0 24 53 46 0 b 213 50 168 0 196 17 l 218 50 l 218 -161 b 188 -203 218 -189 208 -203 b 156 -161 167 -203 156 -189 l 156 -42 l 26 -42 l 26 -161 b 188 -324 26 -269 81 -324 b 353 -161 297 -324 353 -269 z m 160 531 b 192 572 160 558 171 572 b 222 515 215 572 222 550 l 222 176 b 190 122 222 143 214 122 b 160 185 164 122 160 142 z "},"h":{"ha":379,"x_min":0,"x_max":0,"o":"m 356 0 l 356 558 b 253 689 356 631 329 689 b 164 633 210 689 181 671 l 158 633 l 158 933 l 24 933 l 24 0 l 158 0 l 158 531 b 192 572 161 558 172 572 b 219 538 210 572 219 561 l 219 0 z "},"i":{"ha":183,"x_min":0,"x_max":0,"o":"m 158 0 l 158 683 l 24 683 l 24 0 z m 158 754 l 158 878 l 24 878 l 24 754 z "},"j":{"ha":183,"x_min":0,"x_max":0,"o":"m -168 -161 b -7 -324 -168 -271 -117 -324 b 158 -161 104 -324 158 -271 l 158 683 l 24 683 l 24 -161 b -8 -203 24 -189 13 -203 b -39 -161 -29 -203 -39 -189 l -39 -37 l -168 -37 z m 158 754 l 158 878 l 24 878 l 24 754 z "},"k":{"ha":375,"x_min":0,"x_max":0,"o":"m 371 0 l 285 403 l 372 683 l 228 683 b 164 443 174 492 168 465 l 158 443 l 158 933 l 24 933 l 24 0 l 158 0 l 158 175 l 181 244 l 186 244 l 229 0 z "},"l":{"ha":183,"x_min":0,"x_max":0,"o":"m 158 0 l 158 933 l 24 933 l 24 0 z "},"m":{"ha":571,"x_min":0,"x_max":0,"o":"m 546 0 l 546 565 b 438 689 546 640 499 689 b 340 617 400 689 365 669 b 244 689 325 663 288 689 b 158 624 208 689 179 671 l 153 624 l 150 683 l 24 683 l 24 0 l 158 0 l 158 542 b 192 572 164 563 175 572 b 219 538 210 572 219 560 l 219 0 l 350 0 l 350 542 b 382 572 354 563 365 572 b 410 538 400 572 410 560 l 410 0 z "},"n":{"ha":379,"x_min":0,"x_max":0,"o":"m 356 0 l 356 565 b 251 689 356 643 313 689 b 158 624 213 689 181 671 l 153 624 l 150 683 l 24 683 l 24 0 l 158 0 l 158 542 b 192 572 164 563 175 572 b 219 538 210 572 219 560 l 219 0 z "},"o":{"ha":372,"x_min":0,"x_max":0,"o":"m 349 526 b 186 689 349 638 296 689 b 24 526 75 689 24 638 l 24 156 b 186 -7 24 44 75 -7 b 349 156 296 -7 349 44 z m 217 156 b 186 114 217 128 206 114 b 154 156 167 114 154 128 l 154 526 b 186 568 154 554 167 568 b 217 526 206 568 217 554 z "},"p":{"ha":376,"x_min":0,"x_max":0,"o":"m 217 151 b 185 110 217 124 206 110 b 154 142 167 110 157 121 l 154 542 b 185 572 157 563 167 572 b 217 531 206 572 217 558 z m 157 -324 l 157 43 l 163 43 b 246 -7 181 8 210 -7 b 353 117 310 -7 353 42 l 353 567 b 244 689 353 642 311 689 b 153 624 201 689 175 669 l 147 624 l 146 683 l 24 683 l 24 -324 z "},"q":{"ha":376,"x_min":0,"x_max":0,"o":"m 544 -37 l 415 -37 l 415 -161 b 382 -203 415 -190 404 -203 b 353 -129 357 -203 353 -185 l 353 683 l 231 683 l 229 624 l 224 624 b 132 689 201 669 175 689 b 24 567 65 689 24 642 l 24 154 b 128 -7 24 56 46 -7 b 214 43 168 -7 194 8 l 219 43 l 219 -161 b 383 -324 219 -271 272 -324 b 544 -161 493 -324 544 -271 z m 160 531 b 190 572 160 558 171 572 b 222 536 207 572 218 563 l 222 147 b 190 110 219 121 208 110 b 160 151 171 110 160 124 z "},"r":{"ha":283,"x_min":0,"x_max":0,"o":"m 158 0 l 158 483 b 238 568 158 539 179 568 b 274 563 253 568 263 567 l 274 683 b 243 689 264 688 254 689 b 158 624 199 689 174 663 l 153 624 l 150 683 l 24 683 l 24 0 z "},"s":{"ha":367,"x_min":0,"x_max":0,"o":"m 342 476 l 342 543 b 181 689 342 635 285 689 b 25 565 82 689 25 642 l 25 474 b 61 365 25 433 32 397 b 172 282 86 338 142 304 b 213 221 207 257 213 243 l 213 129 b 181 103 213 113 203 103 b 146 133 158 103 146 113 l 146 219 l 19 219 l 19 138 b 188 -7 19 43 71 -7 b 347 132 297 -7 347 39 l 347 225 b 297 350 347 294 328 325 b 183 422 263 379 218 397 b 153 474 156 443 153 451 l 153 553 b 185 579 153 571 167 579 b 215 550 204 579 215 569 l 215 476 z "},"t":{"ha":356,"x_min":0,"x_max":0,"o":"m 217 156 b 188 114 217 128 207 114 b 157 156 167 114 157 128 l 157 563 l 332 563 l 332 683 l 157 683 l 157 868 l 24 868 l 24 156 b 186 -7 24 46 75 -7 b 332 156 296 -7 332 46 l 332 381 l 217 381 z "},"u":{"ha":378,"x_min":0,"x_max":0,"o":"m 24 683 l 24 158 b 126 -7 24 64 36 -7 b 219 58 169 -7 194 10 l 225 58 l 226 0 l 354 0 l 354 683 l 218 683 l 218 158 b 189 110 218 122 213 110 b 160 158 164 110 160 122 l 160 683 z "},"v":{"ha":354,"x_min":0,"x_max":0,"o":"m 264 0 l 350 683 l 222 683 l 182 203 l 176 203 l 138 683 l 3 683 l 88 0 z "},"w":{"ha":525,"x_min":0,"x_max":0,"o":"m 225 0 l 260 468 l 265 468 l 299 0 l 464 0 l 521 683 l 397 683 l 374 229 l 368 229 l 331 683 l 193 683 l 158 229 l 153 229 l 129 683 l 3 683 l 60 0 z "},"x":{"ha":371,"x_min":0,"x_max":0,"o":"m 231 683 l 192 482 l 186 482 l 144 683 l 7 683 l 100 347 l 3 0 l 140 0 l 181 218 l 186 218 l 228 0 l 368 0 l 272 361 l 364 683 z "},"y":{"ha":376,"x_min":0,"x_max":0,"o":"m 160 683 l 24 683 l 24 133 b 126 0 24 53 47 0 b 213 50 164 0 192 11 l 218 50 l 218 -161 b 188 -203 218 -189 208 -203 b 156 -161 167 -203 156 -189 l 156 -42 l 26 -42 l 26 -161 b 188 -324 26 -271 78 -324 b 353 -161 299 -324 353 -271 l 353 683 l 222 683 l 222 164 b 190 122 221 135 208 122 b 160 164 171 122 160 135 z "},"z":{"ha":317,"x_min":0,"x_max":0,"o":"m 303 0 l 303 124 l 153 124 l 299 563 l 299 683 l 17 683 l 17 563 l 163 563 l 14 125 l 14 0 z "},"{":{"ha":233,"x_min":0,"x_max":0,"o":"m 221 -182 l 221 -78 l 204 -78 b 174 -35 183 -78 174 -64 l 174 306 b 118 407 174 361 154 393 l 118 413 b 174 514 154 426 174 460 l 174 853 b 204 896 174 881 183 896 l 221 896 l 221 1000 l 161 1000 b 69 853 100 1000 69 950 l 69 514 b 25 465 69 482 54 465 l 25 356 b 69 306 54 356 69 339 l 69 -35 b 161 -182 69 -133 100 -182 z "},"|":{"ha":218,"x_min":0,"x_max":0,"o":"m 161 -174 l 161 1022 l 57 1022 l 57 -174 z "},"}":{"ha":233,"x_min":0,"x_max":0,"o":"m 72 -182 b 164 -35 133 -182 164 -133 l 164 306 b 208 356 164 339 179 356 l 208 465 b 164 514 179 465 164 482 l 164 853 b 72 1000 164 950 133 1000 l 13 1000 l 13 896 l 29 896 b 60 853 50 896 60 881 l 60 514 b 115 413 60 460 79 426 l 115 407 b 60 306 79 393 60 361 l 60 -35 b 29 -78 60 -64 50 -78 l 13 -78 l 13 -182 z "},"~":{"ha":357,"x_min":0,"x_max":0,"o":"m 246 400 b 335 431 279 400 308 408 l 335 539 b 250 504 310 514 279 504 b 108 529 204 504 165 529 b 21 497 64 529 40 514 l 21 388 b 104 425 47 413 74 425 b 246 400 151 425 189 400 z "}," ":{"ha":128,"x_min":0,"x_max":0,"o":""},"¡":{"ha":207,"x_min":0,"x_max":0,"o":"m 35 683 l 35 547 l 172 547 l 172 683 z m 56 443 b 31 110 39 339 31 226 l 31 -239 l 175 -239 l 175 160 b 150 443 175 258 165 353 z "},"¢":{"ha":364,"x_min":0,"x_max":0,"o":"m 236 -7 l 236 124 b 342 282 310 140 342 192 l 342 375 l 214 375 l 214 271 b 183 229 214 243 204 229 b 153 271 163 229 153 243 l 153 667 b 183 708 153 694 163 708 b 215 667 204 708 215 694 l 215 567 l 342 567 l 342 657 b 236 814 342 746 310 799 l 236 931 l 131 931 l 131 814 b 21 657 57 799 21 746 l 21 282 b 131 124 21 190 57 139 l 131 -7 z "},"£":{"ha":376,"x_min":0,"x_max":0,"o":"m 354 457 l 161 457 l 161 757 b 192 799 161 785 171 799 b 224 757 213 799 224 785 l 224 563 l 354 563 l 354 747 b 192 928 354 868 300 928 b 21 746 79 928 21 864 l 21 0 l 354 0 l 354 129 l 161 129 l 161 331 l 354 331 z "},"¤":{"ha":446,"x_min":0,"x_max":0,"o":"m 361 254 l 425 321 l 372 371 b 396 457 386 396 396 425 b 372 546 396 488 386 518 l 425 593 l 360 658 l 313 606 b 224 629 285 619 254 629 b 136 606 192 629 161 619 l 88 658 l 24 593 l 76 543 b 53 458 63 518 53 488 b 76 371 53 426 63 396 l 21 321 l 88 254 l 138 310 b 225 286 163 296 193 286 b 310 310 254 286 285 296 z m 318 458 b 225 364 318 404 275 364 b 131 457 172 364 131 404 b 224 551 131 508 171 551 b 318 458 275 551 318 510 z "},"¥":{"ha":383,"x_min":0,"x_max":0,"o":"m 260 0 l 260 119 l 354 119 l 354 203 l 260 203 l 260 311 l 354 311 l 354 394 l 260 394 l 260 404 l 381 922 l 247 922 l 199 622 l 193 622 l 138 922 l 3 922 l 129 404 l 129 394 l 42 394 l 42 311 l 129 311 l 129 203 l 42 203 l 42 119 l 129 119 l 129 0 z "},"¦":{"ha":218,"x_min":0,"x_max":0,"o":"m 161 -174 l 161 360 l 57 360 l 57 -174 z m 161 494 l 161 1022 l 57 1022 l 57 494 z "},"§":{"ha":317,"x_min":0,"x_max":0,"o":"m 154 928 b 24 803 71 928 24 881 l 24 708 b 68 588 24 658 38 618 b 24 488 39 567 24 531 l 24 288 b 181 46 24 129 181 117 l 181 -69 b 153 -97 181 -86 172 -97 b 125 -67 133 -97 125 -86 l 125 21 l 21 21 l 21 -47 b 160 -194 21 -144 63 -194 b 296 -53 254 -194 296 -149 l 296 53 b 261 158 296 101 283 133 b 296 267 283 181 296 217 l 296 474 b 131 701 296 610 131 624 l 131 803 b 158 831 131 818 140 831 b 183 800 175 831 183 819 l 183 721 l 286 721 l 286 788 b 154 928 286 874 244 928 z m 131 497 b 146 522 131 508 136 519 b 181 467 179 496 181 483 l 181 282 b 176 222 181 233 179 226 b 131 281 133 260 131 268 z "},"¨":{"ha":332,"x_min":0,"x_max":0,"o":"m 146 754 l 146 878 l 21 878 l 21 754 z m 310 754 l 310 878 l 185 878 l 185 754 z "},"©":{"ha":385,"x_min":0,"x_max":0,"o":"m 363 740 b 192 928 363 858 301 928 b 21 743 82 928 21 860 l 21 175 b 193 -7 21 58 81 -7 b 363 174 303 -7 363 51 z m 311 174 b 193 46 311 86 269 46 b 74 175 114 46 74 92 l 74 743 b 192 876 74 826 115 876 b 311 740 268 876 311 828 z m 271 519 l 271 588 b 193 675 271 642 243 675 b 117 589 144 675 117 643 l 117 328 b 194 243 117 271 143 243 b 271 326 246 243 271 271 l 271 421 l 219 421 l 219 322 b 194 292 219 301 211 292 b 171 324 179 292 171 303 l 171 592 b 196 625 171 614 179 625 b 219 596 211 625 219 615 l 219 519 z "},"ª":{"ha":243,"x_min":0,"x_max":0,"o":"m 221 510 l 221 854 b 128 928 221 904 189 928 b 26 849 64 928 26 903 l 26 790 l 103 790 l 103 839 b 121 858 103 851 108 858 b 139 842 133 858 139 851 l 139 786 b 97 757 139 767 126 764 b 21 668 38 742 21 715 l 21 574 b 82 506 21 535 35 506 b 140 540 121 506 133 526 l 143 540 l 144 510 z m 140 590 b 121 576 138 582 132 576 b 101 596 108 576 101 582 l 101 683 b 140 717 101 697 106 707 z "},"«":{"ha":321,"x_min":0,"x_max":0,"o":"m 125 265 l 178 317 l 92 442 l 178 567 l 125 618 l 6 442 z m 261 265 l 314 317 l 228 442 l 314 567 l 261 618 l 142 442 z "},"¬":{"ha":357,"x_min":0,"x_max":0,"o":"m 335 69 l 335 639 l 21 639 l 21 535 l 231 535 l 231 69 z "},"®":{"ha":299,"x_min":0,"x_max":0,"o":"m 276 789 b 149 928 276 878 231 928 b 21 789 67 928 21 878 l 21 532 b 150 396 21 443 67 396 b 276 531 232 396 276 438 z m 238 531 b 150 435 238 464 206 435 b 60 532 90 435 60 467 l 60 789 b 149 889 60 854 93 889 b 238 789 204 889 238 854 z m 208 533 l 208 625 b 183 664 208 646 200 660 l 183 668 b 208 706 200 669 208 682 l 208 761 b 161 813 208 793 196 813 l 90 813 l 90 533 l 131 533 l 131 647 l 149 647 b 168 629 161 647 168 642 l 168 533 z m 168 696 b 154 681 168 686 164 681 l 131 681 l 131 776 l 154 776 b 168 761 164 776 168 771 z "},"¯":{"ha":297,"x_min":0,"x_max":0,"o":"m 275 767 l 275 850 l 21 850 l 21 767 z "},"°":{"ha":175,"x_min":0,"x_max":0,"o":"m 88 751 b 167 843 143 751 167 785 b 88 933 167 900 143 933 b 8 843 31 933 8 900 b 88 751 8 785 31 751 z m 88 800 b 58 843 67 800 58 813 b 88 886 58 872 67 886 b 117 843 108 886 117 872 b 88 800 117 813 108 800 z "},"±":{"ha":357,"x_min":0,"x_max":0,"o":"m 229 306 l 229 411 l 335 411 l 335 515 l 229 515 l 229 619 l 125 619 l 125 515 l 21 515 l 21 411 l 125 411 l 125 306 z m 335 94 l 335 199 l 21 199 l 21 94 z "},"²":{"ha":206,"x_min":0,"x_max":0,"o":"m 188 493 l 188 554 l 92 554 l 92 597 b 108 642 92 619 99 629 b 164 707 135 675 151 692 b 188 779 181 728 188 749 l 188 840 b 104 925 188 897 171 925 b 22 831 33 925 22 893 l 22 772 l 89 772 l 89 838 b 104 860 89 851 94 860 b 121 839 115 860 121 851 l 121 781 b 108 739 121 760 117 751 b 47 669 97 724 65 694 b 21 582 28 642 21 617 l 21 493 z "},"³":{"ha":206,"x_min":0,"x_max":0,"o":"m 188 658 b 147 717 188 696 171 713 l 147 721 b 183 775 171 725 183 744 l 183 846 b 103 925 183 885 158 925 b 21 831 50 925 21 890 l 21 790 l 88 790 l 88 839 b 103 860 88 851 92 860 b 118 839 113 860 118 851 l 118 768 b 100 744 118 751 113 744 l 76 744 l 76 686 l 99 686 b 118 664 111 686 118 679 l 118 575 b 103 554 118 560 113 554 b 88 575 92 554 88 560 l 88 635 l 21 635 l 21 579 b 104 489 21 518 50 489 b 188 581 158 489 188 522 z "},"´":{"ha":261,"x_min":0,"x_max":0,"o":"m 239 857 l 171 938 l 21 769 l 72 717 z "},"¶":{"ha":388,"x_min":0,"x_max":0,"o":"m 361 -139 l 361 811 l 388 922 l 113 922 b 13 847 46 922 13 897 l 13 722 b 76 644 13 678 33 651 l 76 -139 l 188 -139 l 188 813 l 250 813 l 250 -139 z "},"·":{"ha":181,"x_min":0,"x_max":0,"o":"m 158 394 l 158 531 l 21 531 l 21 394 z "},"¸":{"ha":163,"x_min":0,"x_max":0,"o":"m 22 -308 b 142 -157 104 -304 142 -258 l 142 -26 l 21 -26 l 21 -157 l 81 -157 l 81 -193 b 22 -249 81 -228 61 -242 z "},"¹":{"ha":142,"x_min":0,"x_max":0,"o":"m 119 493 l 119 922 l 60 922 b 17 892 57 906 46 892 l 17 836 l 51 836 l 51 493 z "},"º":{"ha":240,"x_min":0,"x_max":0,"o":"m 218 831 b 119 928 218 897 186 928 b 21 831 53 928 21 897 l 21 606 b 119 506 21 538 53 506 b 218 606 186 506 218 538 z m 139 606 b 119 579 139 588 132 579 b 100 606 107 579 100 588 l 100 831 b 119 856 100 847 107 856 b 139 831 132 856 139 847 z "},"»":{"ha":321,"x_min":0,"x_max":0,"o":"m 58 267 l 178 443 l 58 618 l 6 568 l 92 443 l 6 317 z m 194 267 l 314 443 l 194 618 l 142 568 l 228 443 l 142 317 z "},"¼":{"ha":417,"x_min":0,"x_max":0,"o":"m 108 -22 l 356 944 l 281 944 l 33 -22 z m 126 493 l 126 922 l 67 922 b 24 892 64 906 53 892 l 24 836 l 58 836 l 58 493 z m 297 149 l 260 149 l 293 286 l 297 286 z m 364 0 l 364 90 l 390 90 l 390 149 l 364 149 l 364 429 l 283 429 l 214 149 l 214 90 l 297 90 l 297 0 z "},"½":{"ha":417,"x_min":0,"x_max":0,"o":"m 99 -22 l 346 944 l 271 944 l 24 -22 z m 115 493 l 115 922 l 56 922 b 13 892 53 906 42 892 l 13 836 l 47 836 l 47 493 z m 403 0 l 403 61 l 307 61 l 307 104 b 324 149 307 126 314 136 b 379 214 350 182 367 199 b 403 286 396 235 403 256 l 403 347 b 319 432 403 404 386 432 b 238 338 249 432 238 400 l 238 279 l 304 279 l 304 344 b 319 367 304 358 310 367 b 336 346 331 367 336 358 l 336 288 b 324 246 336 267 332 258 b 263 176 313 231 281 201 b 236 89 243 149 236 124 l 236 0 z "},"¾":{"ha":417,"x_min":0,"x_max":0,"o":"m 133 -22 l 381 944 l 306 944 l 58 -22 z m 308 149 l 271 149 l 304 286 l 308 286 z m 375 0 l 375 90 l 401 90 l 401 149 l 375 149 l 375 429 l 294 429 l 225 149 l 225 90 l 308 90 l 308 0 z m 179 658 b 139 717 179 696 163 713 l 139 721 b 175 775 163 725 175 744 l 175 846 b 94 925 175 885 150 925 b 13 831 42 925 13 890 l 13 790 l 79 790 l 79 839 b 94 860 79 851 83 860 b 110 839 104 860 110 851 l 110 768 b 92 744 110 751 104 744 l 68 744 l 68 686 l 90 686 b 110 664 103 686 110 679 l 110 575 b 94 554 110 560 104 554 b 79 575 83 554 79 560 l 79 635 l 13 635 l 13 579 b 96 489 13 518 42 489 b 179 581 150 489 179 522 z "},"¿":{"ha":361,"x_min":0,"x_max":0,"o":"m 113 683 l 113 554 l 250 554 l 250 683 z m 117 450 l 117 374 b 103 285 117 336 114 313 b 33 150 83 235 51 197 b 19 53 25 128 19 100 l 19 -50 b 179 -246 19 -186 44 -246 b 347 -31 331 -246 347 -172 l 347 29 l 215 29 l 215 -58 b 185 -114 215 -96 210 -114 b 153 -67 161 -114 153 -100 l 153 46 b 161 115 153 79 156 97 b 228 238 172 149 214 204 b 246 350 236 257 246 293 l 246 450 z "},"À":{"ha":388,"x_min":0,"x_max":0,"o":"m 382 0 l 292 922 l 94 922 l 4 0 l 142 0 l 156 210 l 226 210 l 242 0 z m 189 688 l 194 688 l 218 331 l 164 331 z m 228 946 l 279 999 l 131 1167 l 61 1086 z "},"Á":{"ha":388,"x_min":0,"x_max":0,"o":"m 382 0 l 292 922 l 94 922 l 4 0 l 142 0 l 156 210 l 226 210 l 242 0 z m 189 688 l 194 688 l 218 331 l 164 331 z m 321 1086 l 253 1167 l 103 999 l 154 946 z "},"Â":{"ha":388,"x_min":0,"x_max":0,"o":"m 382 0 l 292 922 l 94 922 l 4 0 l 142 0 l 156 210 l 226 210 l 242 0 z m 189 688 l 194 688 l 218 331 l 164 331 z m 336 992 l 249 1125 l 129 1125 l 42 992 l 100 946 l 189 1047 l 278 946 z "},"Ã":{"ha":388,"x_min":0,"x_max":0,"o":"m 382 0 l 292 922 l 94 922 l 4 0 l 142 0 l 156 210 l 226 210 l 242 0 z m 189 688 l 194 688 l 218 331 l 164 331 z m 282 1072 b 244 1039 275 1046 261 1039 b 126 1075 204 1039 172 1075 b 44 996 88 1075 56 1051 l 101 964 b 139 997 108 992 124 997 b 258 961 179 997 211 961 b 339 1042 296 961 328 985 z "},"Ä":{"ha":388,"x_min":0,"x_max":0,"o":"m 382 0 l 292 922 l 94 922 l 4 0 l 142 0 l 156 210 l 226 210 l 242 0 z m 189 688 l 194 688 l 218 331 l 164 331 z m 174 983 l 174 1107 l 49 1107 l 49 983 z m 338 983 l 338 1107 l 213 1107 l 213 983 z "},"Å":{"ha":388,"x_min":0,"x_max":0,"o":"m 382 0 l 292 922 l 94 922 l 4 0 l 142 0 l 156 210 l 226 210 l 242 0 z m 189 688 l 194 688 l 218 331 l 164 331 z m 192 1000 b 154 1050 167 1000 154 1018 b 192 1100 154 1081 167 1100 b 229 1050 217 1100 229 1081 b 192 1000 229 1018 217 1000 z m 192 946 b 285 1050 254 946 285 986 b 192 1154 285 1114 254 1154 b 99 1050 129 1154 99 1114 b 192 946 99 986 129 946 z "},"Æ":{"ha":508,"x_min":0,"x_max":0,"o":"m 499 0 l 499 126 l 368 126 l 368 419 l 475 419 l 475 547 l 368 547 l 368 796 l 490 796 l 490 922 l 94 922 l 4 0 l 142 0 l 157 210 l 229 210 l 229 0 z m 200 796 l 229 796 l 229 331 l 169 331 z "},"Ç":{"ha":378,"x_min":0,"x_max":0,"o":"m 224 164 b 190 122 224 135 213 122 b 161 164 168 122 161 135 l 161 756 b 192 797 161 783 171 797 b 224 756 213 797 224 783 l 224 592 l 356 592 l 356 750 b 189 928 356 876 296 928 b 21 749 76 928 21 869 l 21 175 b 190 -7 21 58 79 -7 b 356 174 299 -7 356 53 l 356 376 l 224 376 z m 126 -308 b 246 -157 208 -304 246 -258 l 246 -26 l 125 -26 l 125 -157 l 185 -157 l 185 -193 b 126 -249 185 -228 165 -242 z "},"È":{"ha":300,"x_min":0,"x_max":0,"o":"m 290 0 l 290 126 l 160 126 l 160 419 l 267 419 l 267 547 l 160 547 l 160 796 l 282 796 l 282 922 l 21 922 l 21 0 z m 189 946 l 240 999 l 92 1167 l 22 1086 z "},"É":{"ha":300,"x_min":0,"x_max":0,"o":"m 290 0 l 290 126 l 160 126 l 160 419 l 267 419 l 267 547 l 160 547 l 160 796 l 282 796 l 282 922 l 21 922 l 21 0 z m 285 1086 l 217 1167 l 67 999 l 118 946 z "},"Ê":{"ha":300,"x_min":0,"x_max":0,"o":"m 290 0 l 290 126 l 160 126 l 160 419 l 267 419 l 267 547 l 160 547 l 160 796 l 282 796 l 282 922 l 21 922 l 21 0 z m 300 992 l 213 1125 l 93 1125 l 6 992 l 64 946 l 153 1047 l 242 946 z "},"Ë":{"ha":300,"x_min":0,"x_max":0,"o":"m 290 0 l 290 126 l 160 126 l 160 419 l 267 419 l 267 547 l 160 547 l 160 796 l 282 796 l 282 922 l 21 922 l 21 0 z m 132 983 l 132 1107 l 7 1107 l 7 983 z m 296 983 l 296 1107 l 171 1107 l 171 983 z "},"Ì":{"ha":193,"x_min":0,"x_max":0,"o":"m 171 0 l 171 922 l 29 922 l 29 0 z m 144 946 l 196 999 l 47 1167 l -22 1086 z "},"Í":{"ha":200,"x_min":0,"x_max":0,"o":"m 163 0 l 163 922 l 21 922 l 21 0 z m 225 1086 l 157 1167 l 7 999 l 58 946 z "},"Î":{"ha":240,"x_min":0,"x_max":0,"o":"m 190 0 l 190 922 l 49 922 l 49 0 z m 267 992 l 179 1125 l 60 1125 l -28 992 l 31 946 l 119 1047 l 208 946 z "},"Ï":{"ha":233,"x_min":0,"x_max":0,"o":"m 185 0 l 185 922 l 43 922 l 43 0 z m 96 983 l 96 1107 l -29 1107 l -29 983 z m 260 983 l 260 1107 l 135 1107 l 135 983 z "},"Ð":{"ha":400,"x_min":0,"x_max":0,"o":"m 214 0 b 379 175 321 0 379 54 l 379 756 b 214 922 379 867 321 922 l 38 922 l 38 547 l 0 547 l 0 419 l 38 419 l 38 0 z m 175 126 l 175 419 l 214 419 l 214 547 l 175 547 l 175 796 l 196 796 b 238 742 224 796 238 778 l 238 194 b 204 126 238 149 226 126 z "},"Ñ":{"ha":408,"x_min":0,"x_max":0,"o":"m 388 0 l 388 922 l 265 922 l 265 717 b 271 329 265 501 268 417 l 265 329 l 208 922 l 21 922 l 21 0 l 142 0 l 142 296 b 136 640 142 489 140 571 l 142 640 l 222 0 z m 293 1072 b 256 1039 286 1046 272 1039 b 138 1075 215 1039 183 1075 b 56 996 99 1075 67 1051 l 113 964 b 150 997 119 992 135 997 b 269 961 190 997 222 961 b 350 1042 307 961 339 985 z "},"Ò":{"ha":376,"x_min":0,"x_max":0,"o":"m 358 740 b 188 928 358 858 296 928 b 17 743 79 928 17 860 l 17 175 b 189 -7 17 58 78 -7 b 358 174 297 -7 358 53 z m 219 164 b 188 122 219 136 208 122 b 157 164 167 122 157 136 l 157 756 b 188 797 157 783 167 797 b 219 756 208 797 219 783 z m 225 946 l 276 999 l 128 1167 l 58 1086 z "},"Ó":{"ha":376,"x_min":0,"x_max":0,"o":"m 358 740 b 188 928 358 858 296 928 b 17 743 79 928 17 860 l 17 175 b 189 -7 17 58 78 -7 b 358 174 297 -7 358 53 z m 219 164 b 188 122 219 136 208 122 b 157 164 167 122 157 136 l 157 756 b 188 797 157 783 167 797 b 219 756 208 797 219 783 z m 318 1086 l 250 1167 l 100 999 l 151 946 z "},"Ô":{"ha":376,"x_min":0,"x_max":0,"o":"m 358 740 b 188 928 358 858 296 928 b 17 743 79 928 17 860 l 17 175 b 189 -7 17 58 78 -7 b 358 174 297 -7 358 53 z m 219 164 b 188 122 219 136 208 122 b 157 164 167 122 157 136 l 157 756 b 188 797 157 783 167 797 b 219 756 208 797 219 783 z m 336 992 l 249 1125 l 129 1125 l 42 992 l 100 946 l 189 1047 l 278 946 z "},"Õ":{"ha":376,"x_min":0,"x_max":0,"o":"m 358 740 b 188 928 358 858 296 928 b 17 743 79 928 17 860 l 17 175 b 189 -7 17 58 78 -7 b 358 174 297 -7 358 53 z m 219 164 b 188 122 219 136 208 122 b 157 164 167 122 157 136 l 157 756 b 188 797 157 783 167 797 b 219 756 208 797 219 783 z m 279 1072 b 242 1039 272 1046 258 1039 b 124 1075 201 1039 169 1075 b 42 996 85 1075 53 1051 l 99 964 b 136 997 106 992 121 997 b 256 961 176 997 208 961 b 336 1042 293 961 325 985 z "},"Ö":{"ha":376,"x_min":0,"x_max":0,"o":"m 358 740 b 188 928 358 858 296 928 b 17 743 79 928 17 860 l 17 175 b 189 -7 17 58 78 -7 b 358 174 297 -7 358 53 z m 219 164 b 188 122 219 136 208 122 b 157 164 167 122 157 136 l 157 756 b 188 797 157 783 167 797 b 219 756 208 797 219 783 z m 169 983 l 169 1107 l 44 1107 l 44 983 z m 333 983 l 333 1107 l 208 1107 l 208 983 z "},"×":{"ha":357,"x_min":0,"x_max":0,"o":"m 333 543 l 258 617 l 178 535 l 97 617 l 24 543 l 104 461 l 24 381 l 96 307 l 178 388 l 260 307 l 333 381 l 251 461 z "},"Ø":{"ha":376,"x_min":0,"x_max":0,"o":"m 108 -22 l 115 4 b 189 -7 136 -3 161 -7 b 358 174 297 -7 358 53 l 358 740 b 328 858 358 788 347 828 l 350 944 l 267 944 l 260 915 b 188 928 239 924 214 928 b 17 743 79 928 17 860 l 17 175 b 47 57 17 126 26 86 l 28 -22 z m 219 164 b 188 122 219 136 208 122 b 157 171 167 122 157 136 l 214 421 l 219 421 z m 157 756 b 188 797 157 783 167 797 b 219 753 208 797 219 783 l 163 500 l 157 500 z "},"Ù":{"ha":383,"x_min":0,"x_max":0,"o":"m 221 164 b 190 122 221 136 211 122 b 158 164 169 122 158 136 l 158 922 l 21 922 l 21 174 b 192 -7 21 53 83 -7 b 361 175 303 -7 361 58 l 361 922 l 221 922 z m 228 946 l 279 999 l 131 1167 l 61 1086 z "},"Ú":{"ha":383,"x_min":0,"x_max":0,"o":"m 221 164 b 190 122 221 136 211 122 b 158 164 169 122 158 136 l 158 922 l 21 922 l 21 174 b 192 -7 21 53 83 -7 b 361 175 303 -7 361 58 l 361 922 l 221 922 z m 319 1086 l 251 1167 l 101 999 l 153 946 z "},"Û":{"ha":383,"x_min":0,"x_max":0,"o":"m 221 164 b 190 122 221 136 211 122 b 158 164 169 122 158 136 l 158 922 l 21 922 l 21 174 b 192 -7 21 53 83 -7 b 361 175 303 -7 361 58 l 361 922 l 221 922 z m 336 992 l 249 1125 l 129 1125 l 42 992 l 100 946 l 189 1047 l 278 946 z "},"Ü":{"ha":383,"x_min":0,"x_max":0,"o":"m 221 164 b 190 122 221 136 211 122 b 158 164 169 122 158 136 l 158 922 l 21 922 l 21 174 b 192 -7 21 53 83 -7 b 361 175 303 -7 361 58 l 361 922 l 221 922 z m 172 983 l 172 1107 l 47 1107 l 47 983 z m 336 983 l 336 1107 l 211 1107 l 211 983 z "},"Ý":{"ha":383,"x_min":0,"x_max":0,"o":"m 265 0 l 265 378 l 381 922 l 243 922 l 199 621 l 193 621 l 142 922 l 3 922 l 124 379 l 124 0 z m 326 1086 l 258 1167 l 108 999 l 160 946 z "},"Þ":{"ha":378,"x_min":0,"x_max":0,"o":"m 21 0 l 163 0 l 163 186 l 221 186 b 358 331 321 186 358 238 l 358 640 b 221 785 358 733 321 785 l 163 785 l 163 922 l 21 922 z m 192 663 b 225 617 214 663 225 647 l 225 358 b 192 307 225 324 214 307 l 163 307 l 163 663 z "},"ß":{"ha":396,"x_min":0,"x_max":0,"o":"m 246 156 b 199 107 246 124 231 107 b 175 111 192 107 183 108 l 175 0 b 224 -7 189 -4 206 -7 b 376 156 339 -7 376 44 l 376 358 b 283 507 376 442 354 497 l 283 513 b 356 624 332 522 356 558 l 356 796 b 192 939 356 901 297 939 b 21 776 74 939 21 889 l 21 0 l 153 0 l 153 776 b 183 818 153 804 163 818 b 215 776 204 818 215 804 l 215 601 b 190 565 215 578 207 565 l 175 565 l 175 453 l 204 453 b 246 378 243 453 246 429 z "},"à":{"ha":369,"x_min":0,"x_max":0,"o":"m 213 133 b 181 110 208 118 200 110 b 149 142 160 110 149 121 l 149 286 b 178 329 149 308 157 324 b 213 342 192 333 203 336 z m 346 0 l 346 567 b 192 689 346 650 293 689 b 25 558 88 689 25 647 l 25 461 l 150 461 l 150 542 b 182 574 150 563 161 574 b 211 546 201 574 211 564 l 211 456 b 142 407 211 425 190 419 b 17 261 51 383 17 350 l 17 106 b 117 -7 17 42 39 -7 b 213 50 181 -7 200 28 l 218 50 l 221 0 z m 221 717 l 272 769 l 124 938 l 54 857 z "},"á":{"ha":369,"x_min":0,"x_max":0,"o":"m 213 133 b 181 110 208 118 200 110 b 149 142 160 110 149 121 l 149 286 b 178 329 149 308 157 324 b 213 342 192 333 203 336 z m 346 0 l 346 567 b 192 689 346 650 293 689 b 25 558 88 689 25 647 l 25 461 l 150 461 l 150 542 b 182 574 150 563 161 574 b 211 546 201 574 211 564 l 211 456 b 142 407 211 425 190 419 b 17 261 51 383 17 350 l 17 106 b 117 -7 17 42 39 -7 b 213 50 181 -7 200 28 l 218 50 l 221 0 z m 311 857 l 243 938 l 93 769 l 144 717 z "},"â":{"ha":369,"x_min":0,"x_max":0,"o":"m 213 133 b 181 110 208 118 200 110 b 149 142 160 110 149 121 l 149 286 b 178 329 149 308 157 324 b 213 342 192 333 203 336 z m 346 0 l 346 567 b 192 689 346 650 293 689 b 25 558 88 689 25 647 l 25 461 l 150 461 l 150 542 b 182 574 150 563 161 574 b 211 546 201 574 211 564 l 211 456 b 142 407 211 425 190 419 b 17 261 51 383 17 350 l 17 106 b 117 -7 17 42 39 -7 b 213 50 181 -7 200 28 l 218 50 l 221 0 z m 328 763 l 240 896 l 121 896 l 33 763 l 92 717 l 181 818 l 269 717 z "},"ã":{"ha":369,"x_min":0,"x_max":0,"o":"m 213 133 b 181 110 208 118 200 110 b 149 142 160 110 149 121 l 149 286 b 178 329 149 308 157 324 b 213 342 192 333 203 336 z m 346 0 l 346 567 b 192 689 346 650 293 689 b 25 558 88 689 25 647 l 25 461 l 150 461 l 150 542 b 182 574 150 563 161 574 b 211 546 201 574 211 564 l 211 456 b 142 407 211 425 190 419 b 17 261 51 383 17 350 l 17 106 b 117 -7 17 42 39 -7 b 213 50 181 -7 200 28 l 218 50 l 221 0 z m 272 843 b 235 810 265 817 251 810 b 117 846 194 810 163 846 b 35 767 78 846 46 822 l 92 735 b 129 768 99 763 114 768 b 249 732 169 768 201 732 b 329 813 286 732 318 756 z "},"ä":{"ha":369,"x_min":0,"x_max":0,"o":"m 213 133 b 181 110 208 118 200 110 b 149 142 160 110 149 121 l 149 286 b 178 329 149 308 157 324 b 213 342 192 333 203 336 z m 346 0 l 346 567 b 192 689 346 650 293 689 b 25 558 88 689 25 647 l 25 461 l 150 461 l 150 542 b 182 574 150 563 161 574 b 211 546 201 574 211 564 l 211 456 b 142 407 211 425 190 419 b 17 261 51 383 17 350 l 17 106 b 117 -7 17 42 39 -7 b 213 50 181 -7 200 28 l 218 50 l 221 0 z m 164 754 l 164 878 l 39 878 l 39 754 z m 328 754 l 328 878 l 203 878 l 203 754 z "},"å":{"ha":369,"x_min":0,"x_max":0,"o":"m 213 133 b 181 110 208 118 200 110 b 149 142 160 110 149 121 l 149 286 b 178 329 149 308 157 324 b 213 342 192 333 203 336 z m 346 0 l 346 567 b 192 689 346 650 293 689 b 25 558 88 689 25 647 l 25 461 l 150 461 l 150 542 b 182 574 150 563 161 574 b 211 546 201 574 211 564 l 211 456 b 142 407 211 425 190 419 b 17 261 51 383 17 350 l 17 106 b 117 -7 17 42 39 -7 b 213 50 181 -7 200 28 l 218 50 l 221 0 z m 185 771 b 147 821 160 771 147 789 b 185 871 147 851 160 871 b 222 821 210 871 222 851 b 185 771 222 789 210 771 z m 185 717 b 278 821 247 717 278 757 b 185 925 278 885 247 925 b 92 821 122 925 92 885 b 185 717 92 757 122 717 z "},"æ":{"ha":561,"x_min":0,"x_max":0,"o":"m 539 231 l 406 231 l 406 153 b 374 111 406 125 394 111 b 343 153 354 111 343 125 l 343 303 l 539 303 l 539 526 b 375 689 539 636 485 689 b 285 671 338 689 308 683 b 192 689 261 683 231 689 b 25 558 88 689 25 647 l 25 461 l 150 461 l 150 542 b 182 574 150 563 161 574 b 211 546 201 574 211 564 l 211 456 b 142 407 211 425 190 419 b 17 261 51 383 17 350 l 17 106 b 117 -7 17 42 39 -7 b 222 69 181 -7 206 25 l 228 69 b 374 -7 250 19 299 -7 b 539 156 485 -7 539 47 z m 213 133 b 181 110 208 118 200 110 b 149 142 160 110 149 121 l 149 286 b 178 329 149 308 157 324 b 213 342 192 333 203 336 z m 406 399 l 343 399 l 343 529 b 375 571 343 558 354 571 b 406 529 396 571 406 558 z "},"ç":{"ha":368,"x_min":0,"x_max":0,"o":"m 217 156 b 185 114 217 128 206 114 b 154 156 165 114 154 128 l 154 526 b 186 568 154 554 165 568 b 217 526 207 568 217 554 l 217 439 l 344 439 l 344 526 b 186 689 344 636 296 689 b 24 526 75 689 24 636 l 24 156 b 185 -7 24 46 75 -7 b 344 156 296 -7 344 47 l 344 247 l 217 247 z m 126 -308 b 246 -157 208 -304 246 -258 l 246 -26 l 125 -26 l 125 -157 l 185 -157 l 185 -193 b 126 -249 185 -228 165 -242 z "},"è":{"ha":374,"x_min":0,"x_max":0,"o":"m 350 231 l 217 231 l 217 153 b 185 111 217 125 206 111 b 154 153 165 111 154 125 l 154 303 l 350 303 l 350 526 b 186 689 350 636 296 689 b 24 526 75 689 24 636 l 24 156 b 185 -7 24 46 75 -7 b 350 156 296 -7 350 47 z m 217 399 l 154 399 l 154 529 b 186 571 154 558 165 571 b 217 529 207 571 217 558 z m 222 717 l 274 769 l 125 938 l 56 857 z "},"é":{"ha":374,"x_min":0,"x_max":0,"o":"m 350 231 l 217 231 l 217 153 b 185 111 217 125 206 111 b 154 153 165 111 154 125 l 154 303 l 350 303 l 350 526 b 186 689 350 636 296 689 b 24 526 75 689 24 636 l 24 156 b 185 -7 24 46 75 -7 b 350 156 296 -7 350 47 z m 217 399 l 154 399 l 154 529 b 186 571 154 558 165 571 b 217 529 207 571 217 558 z m 315 857 l 247 938 l 97 769 l 149 717 z "},"ê":{"ha":374,"x_min":0,"x_max":0,"o":"m 350 231 l 217 231 l 217 153 b 185 111 217 125 206 111 b 154 153 165 111 154 125 l 154 303 l 350 303 l 350 526 b 186 689 350 636 296 689 b 24 526 75 689 24 636 l 24 156 b 185 -7 24 46 75 -7 b 350 156 296 -7 350 47 z m 217 399 l 154 399 l 154 529 b 186 571 154 558 165 571 b 217 529 207 571 217 558 z m 332 763 l 244 896 l 125 896 l 38 763 l 96 717 l 185 818 l 274 717 z "},"ë":{"ha":374,"x_min":0,"x_max":0,"o":"m 350 231 l 217 231 l 217 153 b 185 111 217 125 206 111 b 154 153 165 111 154 125 l 154 303 l 350 303 l 350 526 b 186 689 350 636 296 689 b 24 526 75 689 24 636 l 24 156 b 185 -7 24 46 75 -7 b 350 156 296 -7 350 47 z m 217 399 l 154 399 l 154 529 b 186 571 154 558 165 571 b 217 529 207 571 217 558 z m 168 754 l 168 878 l 43 878 l 43 754 z m 332 754 l 332 878 l 207 878 l 207 754 z "},"ì":{"ha":217,"x_min":0,"x_max":0,"o":"m 165 717 l 217 769 l 68 938 l -1 857 z m 192 0 l 192 683 l 57 683 l 57 0 z "},"í":{"ha":225,"x_min":0,"x_max":0,"o":"m 225 857 l 157 938 l 7 769 l 58 717 z m 158 0 l 158 683 l 24 683 l 24 0 z "},"î":{"ha":269,"x_min":0,"x_max":0,"o":"m 200 0 l 200 683 l 65 683 l 65 0 z m 281 763 l 193 896 l 74 896 l -14 763 l 44 717 l 133 818 l 222 717 z "},"ï":{"ha":238,"x_min":0,"x_max":0,"o":"m 99 754 l 99 878 l -26 878 l -26 754 z m 263 754 l 263 878 l 138 878 l 138 754 z m 183 0 l 183 683 l 49 683 l 49 0 z "},"ð":{"ha":378,"x_min":0,"x_max":0,"o":"m 354 918 l 269 874 b 197 933 249 899 225 918 l 82 933 b 174 824 114 910 147 872 l 93 782 l 93 722 l 197 776 b 225 611 214 738 225 696 l 219 611 b 131 661 201 646 168 661 b 24 538 65 661 24 615 l 24 169 b 188 -7 24 63 43 -7 b 354 210 328 -7 354 60 l 354 589 b 299 829 354 678 336 763 l 354 858 z m 192 110 b 160 151 171 110 160 124 l 160 497 b 190 544 160 529 169 544 b 222 513 207 544 218 533 l 222 151 b 192 110 222 124 213 110 z "},"ñ":{"ha":379,"x_min":0,"x_max":0,"o":"m 356 0 l 356 565 b 251 689 356 643 313 689 b 158 624 213 689 181 671 l 153 624 l 150 683 l 24 683 l 24 0 l 158 0 l 158 542 b 192 572 164 563 175 572 b 219 538 210 572 219 560 l 219 0 z m 279 843 b 242 810 272 817 258 810 b 124 846 201 810 169 846 b 42 767 85 846 53 822 l 99 735 b 136 768 106 763 121 768 b 256 732 176 768 208 732 b 336 813 293 732 325 756 z "},"ò":{"ha":372,"x_min":0,"x_max":0,"o":"m 349 526 b 186 689 349 638 296 689 b 24 526 75 689 24 638 l 24 156 b 186 -7 24 44 75 -7 b 349 156 296 -7 349 44 z m 217 156 b 186 114 217 128 206 114 b 154 156 167 114 154 128 l 154 526 b 186 568 154 554 167 568 b 217 526 206 568 217 554 z m 222 717 l 274 769 l 125 938 l 56 857 z "},"ó":{"ha":372,"x_min":0,"x_max":0,"o":"m 349 526 b 186 689 349 638 296 689 b 24 526 75 689 24 638 l 24 156 b 186 -7 24 44 75 -7 b 349 156 296 -7 349 44 z m 217 156 b 186 114 217 128 206 114 b 154 156 167 114 154 128 l 154 526 b 186 568 154 554 167 568 b 217 526 206 568 217 554 z m 315 857 l 247 938 l 97 769 l 149 717 z "},"ô":{"ha":372,"x_min":0,"x_max":0,"o":"m 349 526 b 186 689 349 638 296 689 b 24 526 75 689 24 638 l 24 156 b 186 -7 24 44 75 -7 b 349 156 296 -7 349 44 z m 217 156 b 186 114 217 128 206 114 b 154 156 167 114 154 128 l 154 526 b 186 568 154 554 167 568 b 217 526 206 568 217 554 z m 333 763 l 246 896 l 126 896 l 39 763 l 97 717 l 186 818 l 275 717 z "},"õ":{"ha":372,"x_min":0,"x_max":0,"o":"m 349 526 b 186 689 349 638 296 689 b 24 526 75 689 24 638 l 24 156 b 186 -7 24 44 75 -7 b 349 156 296 -7 349 44 z m 217 156 b 186 114 217 128 206 114 b 154 156 167 114 154 128 l 154 526 b 186 568 154 554 167 568 b 217 526 206 568 217 554 z m 275 843 b 238 810 268 817 254 810 b 119 846 197 810 165 846 b 38 767 81 846 49 822 l 94 735 b 132 768 101 763 117 768 b 251 732 172 768 204 732 b 332 813 289 732 321 756 z "},"ö":{"ha":372,"x_min":0,"x_max":0,"o":"m 349 526 b 186 689 349 638 296 689 b 24 526 75 689 24 638 l 24 156 b 186 -7 24 44 75 -7 b 349 156 296 -7 349 44 z m 217 156 b 186 114 217 128 206 114 b 154 156 167 114 154 128 l 154 526 b 186 568 154 554 167 568 b 217 526 206 568 217 554 z m 167 754 l 167 878 l 42 878 l 42 754 z m 331 754 l 331 878 l 206 878 l 206 754 z "},"÷":{"ha":357,"x_min":0,"x_max":0,"o":"m 335 411 l 335 515 l 21 515 l 21 411 z m 246 213 l 246 342 l 108 342 l 108 213 z m 246 585 l 246 714 l 108 714 l 108 585 z "},"ø":{"ha":372,"x_min":0,"x_max":0,"o":"m 110 -18 l 115 1 b 186 -7 136 -4 158 -7 b 349 156 296 -7 349 44 l 349 526 b 317 639 349 575 338 613 l 338 701 l 260 701 l 253 681 b 186 689 233 686 211 689 b 24 526 75 689 24 638 l 24 156 b 51 46 24 108 32 72 l 32 -18 z m 217 156 b 186 114 217 128 206 114 b 157 132 172 114 163 119 l 157 133 l 211 319 l 217 319 z m 154 526 b 186 568 154 554 167 568 b 213 551 199 568 207 563 l 160 368 l 154 368 z "},"ù":{"ha":378,"x_min":0,"x_max":0,"o":"m 24 683 l 24 158 b 126 -7 24 64 36 -7 b 219 58 169 -7 194 10 l 225 58 l 226 0 l 354 0 l 354 683 l 218 683 l 218 158 b 189 110 218 122 213 110 b 160 158 164 110 160 122 l 160 683 z m 226 717 l 278 769 l 129 938 l 60 857 z "},"ú":{"ha":378,"x_min":0,"x_max":0,"o":"m 24 683 l 24 158 b 126 -7 24 64 36 -7 b 219 58 169 -7 194 10 l 225 58 l 226 0 l 354 0 l 354 683 l 218 683 l 218 158 b 189 110 218 122 213 110 b 160 158 164 110 160 122 l 160 683 z m 318 857 l 250 938 l 100 769 l 151 717 z "},"û":{"ha":378,"x_min":0,"x_max":0,"o":"m 24 683 l 24 158 b 126 -7 24 64 36 -7 b 219 58 169 -7 194 10 l 225 58 l 226 0 l 354 0 l 354 683 l 218 683 l 218 158 b 189 110 218 122 213 110 b 160 158 164 110 160 122 l 160 683 z m 336 763 l 249 896 l 129 896 l 42 763 l 100 717 l 189 818 l 278 717 z "},"ü":{"ha":378,"x_min":0,"x_max":0,"o":"m 24 683 l 24 158 b 126 -7 24 64 36 -7 b 219 58 169 -7 194 10 l 225 58 l 226 0 l 354 0 l 354 683 l 218 683 l 218 158 b 189 110 218 122 213 110 b 160 158 164 110 160 122 l 160 683 z m 168 754 l 168 878 l 43 878 l 43 754 z m 332 754 l 332 878 l 207 878 l 207 754 z "},"ý":{"ha":376,"x_min":0,"x_max":0,"o":"m 160 683 l 24 683 l 24 133 b 126 0 24 53 47 0 b 213 50 164 0 192 11 l 218 50 l 218 -161 b 188 -203 218 -189 208 -203 b 156 -161 167 -203 156 -189 l 156 -42 l 26 -42 l 26 -161 b 188 -324 26 -271 78 -324 b 353 -161 299 -324 353 -271 l 353 683 l 222 683 l 222 164 b 190 122 221 135 208 122 b 160 164 171 122 160 135 z m 318 857 l 250 938 l 100 769 l 151 717 z "},"þ":{"ha":376,"x_min":0,"x_max":0,"o":"m 157 -324 l 157 43 l 163 43 b 247 -7 178 10 207 -7 b 353 183 340 -7 353 79 l 353 519 b 246 689 353 663 300 689 b 163 639 206 689 179 674 l 157 639 l 157 933 l 24 933 l 24 -324 z m 217 151 b 185 110 217 124 206 110 b 154 142 167 110 157 121 l 154 542 b 185 572 157 563 167 572 b 217 531 206 572 217 558 z "},"ÿ":{"ha":376,"x_min":0,"x_max":0,"o":"m 160 683 l 24 683 l 24 133 b 126 0 24 53 47 0 b 213 50 164 0 192 11 l 218 50 l 218 -161 b 188 -203 218 -189 208 -203 b 156 -161 167 -203 156 -189 l 156 -42 l 26 -42 l 26 -161 b 188 -324 26 -271 78 -324 b 353 -161 299 -324 353 -271 l 353 683 l 222 683 l 222 164 b 190 122 221 135 208 122 b 160 164 171 122 160 135 z m 172 754 l 172 878 l 47 878 l 47 754 z m 336 754 l 336 878 l 211 878 l 211 754 z "},"Ā":{"ha":388,"x_min":0,"x_max":0,"o":"m 382 0 l 292 922 l 94 922 l 4 0 l 142 0 l 156 210 l 226 210 l 242 0 z m 189 688 l 194 688 l 218 331 l 164 331 z m 317 996 l 317 1079 l 63 1079 l 63 996 z "},"ā":{"ha":369,"x_min":0,"x_max":0,"o":"m 213 133 b 181 110 208 118 200 110 b 149 142 160 110 149 121 l 149 286 b 178 329 149 308 157 324 b 213 342 192 333 203 336 z m 346 0 l 346 567 b 192 689 346 650 293 689 b 25 558 88 689 25 647 l 25 461 l 150 461 l 150 542 b 182 574 150 563 161 574 b 211 546 201 574 211 564 l 211 456 b 142 407 211 425 190 419 b 17 261 51 383 17 350 l 17 106 b 117 -7 17 42 39 -7 b 213 50 181 -7 200 28 l 218 50 l 221 0 z m 308 767 l 308 850 l 54 850 l 54 767 z "},"Ă":{"ha":388,"x_min":0,"x_max":0,"o":"m 382 0 l 292 922 l 94 922 l 4 0 l 142 0 l 156 210 l 226 210 l 242 0 z m 189 688 l 194 688 l 218 331 l 164 331 z m 190 946 b 340 1124 278 946 340 1007 l 242 1124 b 190 1029 240 1058 224 1029 b 138 1124 156 1029 139 1058 l 40 1124 b 190 946 40 1008 103 946 z "},"ă":{"ha":369,"x_min":0,"x_max":0,"o":"m 213 133 b 181 110 208 118 200 110 b 149 142 160 110 149 121 l 149 286 b 178 329 149 308 157 324 b 213 342 192 333 203 336 z m 346 0 l 346 567 b 192 689 346 650 293 689 b 25 558 88 689 25 647 l 25 461 l 150 461 l 150 542 b 182 574 150 563 161 574 b 211 546 201 574 211 564 l 211 456 b 142 407 211 425 190 419 b 17 261 51 383 17 350 l 17 106 b 117 -7 17 42 39 -7 b 213 50 181 -7 200 28 l 218 50 l 221 0 z m 179 717 b 329 894 267 717 329 778 l 231 894 b 179 800 229 829 213 800 b 126 894 144 800 128 829 l 29 894 b 179 717 29 779 92 717 z "},"Ą":{"ha":388,"x_min":0,"x_max":0,"o":"m 379 -185 b 338 -190 369 -187 353 -190 b 299 -160 310 -190 299 -183 l 299 -122 b 382 0 299 -75 326 -36 l 292 922 l 94 922 l 4 0 l 142 0 l 156 210 l 226 210 l 242 0 l 324 0 l 324 -6 b 207 -162 250 -35 207 -85 l 207 -204 b 310 -308 207 -281 240 -308 b 379 -294 336 -308 361 -304 z m 189 688 l 194 688 l 218 331 l 164 331 z "},"ą":{"ha":369,"x_min":0,"x_max":0,"o":"m 344 -185 b 303 -190 335 -187 318 -190 b 263 -160 274 -190 263 -183 l 263 -122 b 346 0 263 -75 292 -36 l 346 567 b 192 689 346 650 293 689 b 25 558 88 689 25 647 l 25 461 l 150 461 l 150 542 b 182 574 150 563 161 574 b 211 546 201 574 211 564 l 211 456 b 142 407 211 425 190 419 b 17 261 51 383 17 350 l 17 106 b 117 -7 17 42 39 -7 b 213 50 181 -7 200 28 l 218 50 l 221 0 l 289 0 l 289 -6 b 172 -162 214 -35 172 -85 l 172 -204 b 274 -308 172 -281 206 -308 b 344 -294 301 -308 326 -304 z m 213 133 b 181 110 208 118 200 110 b 149 142 160 110 149 121 l 149 286 b 178 329 149 308 157 324 b 213 342 192 333 203 336 z "},"Ć":{"ha":378,"x_min":0,"x_max":0,"o":"m 224 164 b 190 122 224 135 213 122 b 161 164 168 122 161 135 l 161 756 b 192 797 161 783 171 797 b 224 756 213 797 224 783 l 224 592 l 356 592 l 356 750 b 189 928 356 876 296 928 b 21 749 76 928 21 869 l 21 175 b 190 -7 21 58 79 -7 b 356 174 299 -7 356 53 l 356 376 l 224 376 z m 321 1086 l 253 1167 l 103 999 l 154 946 z "},"ć":{"ha":368,"x_min":0,"x_max":0,"o":"m 217 156 b 185 114 217 128 206 114 b 154 156 165 114 154 128 l 154 526 b 186 568 154 554 165 568 b 217 526 207 568 217 554 l 217 439 l 344 439 l 344 526 b 186 689 344 636 296 689 b 24 526 75 689 24 636 l 24 156 b 185 -7 24 46 75 -7 b 344 156 296 -7 344 47 l 344 247 l 217 247 z m 314 857 l 246 938 l 96 769 l 147 717 z "},"Ċ":{"ha":378,"x_min":0,"x_max":0,"o":"m 224 164 b 190 122 224 135 213 122 b 161 164 168 122 161 135 l 161 756 b 192 797 161 783 171 797 b 224 756 213 797 224 783 l 224 592 l 356 592 l 356 750 b 189 928 356 876 296 928 b 21 749 76 928 21 869 l 21 175 b 190 -7 21 58 79 -7 b 356 174 299 -7 356 53 l 356 376 l 224 376 z m 260 983 l 260 1107 l 124 1107 l 124 983 z "},"ċ":{"ha":368,"x_min":0,"x_max":0,"o":"m 217 156 b 185 114 217 128 206 114 b 154 156 165 114 154 128 l 154 526 b 186 568 154 554 165 568 b 217 526 207 568 217 554 l 217 439 l 344 439 l 344 526 b 186 689 344 636 296 689 b 24 526 75 689 24 636 l 24 156 b 185 -7 24 46 75 -7 b 344 156 296 -7 344 47 l 344 247 l 217 247 z m 253 754 l 253 878 l 117 878 l 117 754 z "},"Č":{"ha":378,"x_min":0,"x_max":0,"o":"m 224 164 b 190 122 224 135 213 122 b 161 164 168 122 161 135 l 161 756 b 192 797 161 783 171 797 b 224 756 213 797 224 783 l 224 592 l 356 592 l 356 750 b 189 928 356 876 296 928 b 21 749 76 928 21 869 l 21 175 b 190 -7 21 58 79 -7 b 356 174 299 -7 356 53 l 356 376 l 224 376 z m 249 965 l 336 1099 l 278 1144 l 189 1043 l 100 1144 l 42 1099 l 129 965 z "},"č":{"ha":368,"x_min":0,"x_max":0,"o":"m 217 156 b 185 114 217 128 206 114 b 154 156 165 114 154 128 l 154 526 b 186 568 154 554 165 568 b 217 526 207 568 217 554 l 217 439 l 344 439 l 344 526 b 186 689 344 636 296 689 b 24 526 75 689 24 636 l 24 156 b 185 -7 24 46 75 -7 b 344 156 296 -7 344 47 l 344 247 l 217 247 z m 244 736 l 332 869 l 274 915 l 185 814 l 96 915 l 38 869 l 125 736 z "},"Ď":{"ha":385,"x_min":0,"x_max":0,"o":"m 199 0 b 363 175 306 0 363 53 l 363 756 b 199 922 363 867 308 922 l 21 922 l 21 0 z m 160 126 l 160 796 l 179 796 b 221 724 207 796 221 772 l 221 206 b 189 126 221 153 210 126 z m 249 965 l 336 1099 l 278 1144 l 189 1043 l 100 1144 l 42 1099 l 129 965 z "},"ď":{"ha":514,"x_min":0,"x_max":0,"o":"m 353 0 l 353 933 l 219 933 l 219 639 l 214 639 b 131 689 194 675 167 689 b 24 567 67 689 24 642 l 24 117 b 132 -7 24 42 65 -7 b 224 58 175 -7 204 14 l 229 58 l 231 0 z m 160 531 b 192 572 160 558 171 572 b 222 542 210 572 219 563 l 222 142 b 192 110 219 121 210 110 b 160 151 171 110 160 124 z m 375 590 b 513 785 464 607 513 671 l 513 933 l 375 933 l 375 797 l 435 797 l 435 765 b 375 667 435 722 415 689 z "},"đ":{"ha":376,"x_min":0,"x_max":0,"o":"m 353 0 l 353 767 l 376 767 l 376 850 l 353 850 l 353 933 l 219 933 l 219 850 l 122 850 l 122 767 l 219 767 l 219 639 l 214 639 b 131 689 194 675 167 689 b 24 567 67 689 24 642 l 24 117 b 132 -7 24 42 65 -7 b 224 58 175 -7 204 14 l 229 58 l 231 0 z m 160 531 b 192 572 160 558 171 572 b 222 542 210 572 219 563 l 222 142 b 192 110 219 121 210 110 b 160 151 171 110 160 124 z "},"Ē":{"ha":300,"x_min":0,"x_max":0,"o":"m 290 0 l 290 126 l 160 126 l 160 419 l 267 419 l 267 547 l 160 547 l 160 796 l 282 796 l 282 922 l 21 922 l 21 0 z m 281 996 l 281 1079 l 26 1079 l 26 996 z "},"ē":{"ha":374,"x_min":0,"x_max":0,"o":"m 350 231 l 217 231 l 217 153 b 185 111 217 125 206 111 b 154 153 165 111 154 125 l 154 303 l 350 303 l 350 526 b 186 689 350 636 296 689 b 24 526 75 689 24 636 l 24 156 b 185 -7 24 46 75 -7 b 350 156 296 -7 350 47 z m 217 399 l 154 399 l 154 529 b 186 571 154 558 165 571 b 217 529 207 571 217 558 z m 313 767 l 313 850 l 58 850 l 58 767 z "},"Ĕ":{"ha":300,"x_min":0,"x_max":0,"o":"m 290 0 l 290 126 l 160 126 l 160 419 l 267 419 l 267 547 l 160 547 l 160 796 l 282 796 l 282 922 l 21 922 l 21 0 z m 161 946 b 311 1124 249 946 311 1007 l 213 1124 b 161 1029 211 1058 194 1029 b 108 1124 126 1029 110 1058 l 11 1124 b 161 946 11 1008 74 946 z "},"ĕ":{"ha":374,"x_min":0,"x_max":0,"o":"m 350 231 l 217 231 l 217 153 b 185 111 217 125 206 111 b 154 153 165 111 154 125 l 154 303 l 350 303 l 350 526 b 186 689 350 636 296 689 b 24 526 75 689 24 636 l 24 156 b 185 -7 24 46 75 -7 b 350 156 296 -7 350 47 z m 217 399 l 154 399 l 154 529 b 186 571 154 558 165 571 b 217 529 207 571 217 558 z m 186 717 b 336 894 274 717 336 778 l 238 894 b 186 800 236 829 219 800 b 133 894 151 800 135 829 l 36 894 b 186 717 36 779 99 717 z "},"Ė":{"ha":300,"x_min":0,"x_max":0,"o":"m 290 0 l 290 126 l 160 126 l 160 419 l 267 419 l 267 547 l 160 547 l 160 796 l 282 796 l 282 922 l 21 922 l 21 0 z m 224 983 l 224 1107 l 88 1107 l 88 983 z "},"ė":{"ha":374,"x_min":0,"x_max":0,"o":"m 350 231 l 217 231 l 217 153 b 185 111 217 125 206 111 b 154 153 165 111 154 125 l 154 303 l 350 303 l 350 526 b 186 689 350 636 296 689 b 24 526 75 689 24 636 l 24 156 b 185 -7 24 46 75 -7 b 350 156 296 -7 350 47 z m 217 399 l 154 399 l 154 529 b 186 571 154 558 165 571 b 217 529 207 571 217 558 z m 253 754 l 253 878 l 117 878 l 117 754 z "},"Ę":{"ha":300,"x_min":0,"x_max":0,"o":"m 288 -185 b 246 -190 278 -187 261 -190 b 207 -160 218 -190 207 -183 l 207 -122 b 290 0 207 -75 235 -36 l 290 126 l 160 126 l 160 419 l 267 419 l 267 547 l 160 547 l 160 796 l 282 796 l 282 922 l 21 922 l 21 0 l 239 0 l 239 -3 b 115 -162 160 -32 115 -83 l 115 -204 b 218 -308 115 -281 149 -308 b 288 -294 244 -308 269 -304 z "},"ę":{"ha":374,"x_min":0,"x_max":0,"o":"m 254 -185 b 213 -190 244 -187 228 -190 b 172 -160 183 -190 172 -183 l 172 -122 b 251 1 172 -76 200 -32 b 350 156 318 19 350 71 l 350 231 l 217 231 l 217 153 b 185 111 217 125 206 111 b 154 153 165 111 154 125 l 154 303 l 350 303 l 350 526 b 186 689 350 636 296 689 b 24 526 75 689 24 636 l 24 156 b 174 -7 24 49 71 -4 l 174 -11 b 82 -162 114 -43 82 -93 l 82 -204 b 183 -308 82 -281 115 -308 b 254 -294 211 -308 236 -304 z m 217 399 l 154 399 l 154 529 b 186 571 154 558 165 571 b 217 529 207 571 217 558 z "},"Ě":{"ha":300,"x_min":0,"x_max":0,"o":"m 290 0 l 290 126 l 160 126 l 160 419 l 267 419 l 267 547 l 160 547 l 160 796 l 282 796 l 282 922 l 21 922 l 21 0 z m 213 965 l 300 1099 l 242 1144 l 153 1043 l 64 1144 l 6 1099 l 93 965 z "},"ě":{"ha":374,"x_min":0,"x_max":0,"o":"m 350 231 l 217 231 l 217 153 b 185 111 217 125 206 111 b 154 153 165 111 154 125 l 154 303 l 350 303 l 350 526 b 186 689 350 636 296 689 b 24 526 75 689 24 636 l 24 156 b 185 -7 24 46 75 -7 b 350 156 296 -7 350 47 z m 217 399 l 154 399 l 154 529 b 186 571 154 558 165 571 b 217 529 207 571 217 558 z m 246 736 l 333 869 l 275 915 l 186 814 l 97 915 l 39 869 l 126 736 z "},"Ğ":{"ha":378,"x_min":0,"x_max":0,"o":"m 356 0 l 356 475 l 183 475 l 183 350 l 224 350 l 224 164 b 192 122 224 136 213 122 b 161 164 171 122 161 136 l 161 756 b 192 797 161 783 171 797 b 224 756 213 797 224 783 l 224 638 l 356 638 l 356 740 b 188 928 356 858 297 928 b 21 743 79 928 21 860 l 21 175 b 169 -7 21 60 76 -7 b 254 36 222 -7 242 15 l 260 36 l 265 0 z m 192 946 b 342 1124 279 946 342 1007 l 243 1124 b 192 1029 242 1058 225 1029 b 139 1124 157 1029 140 1058 l 42 1124 b 192 946 42 1008 104 946 z "},"ğ":{"ha":376,"x_min":0,"x_max":0,"o":"m 353 -161 l 353 683 l 231 683 l 229 624 l 224 624 b 131 689 201 667 174 689 b 24 564 65 689 24 642 l 24 151 b 128 0 24 53 46 0 b 213 50 168 0 196 17 l 218 50 l 218 -161 b 188 -203 218 -189 208 -203 b 156 -161 167 -203 156 -189 l 156 -42 l 26 -42 l 26 -161 b 188 -324 26 -269 81 -324 b 353 -161 297 -324 353 -269 z m 160 531 b 192 572 160 558 171 572 b 222 515 215 572 222 550 l 222 176 b 190 122 222 143 214 122 b 160 185 164 122 160 142 z m 192 717 b 342 894 279 717 342 778 l 243 894 b 192 800 242 829 225 800 b 139 894 157 800 140 829 l 42 894 b 192 717 42 779 104 717 z "},"Ġ":{"ha":378,"x_min":0,"x_max":0,"o":"m 356 0 l 356 475 l 183 475 l 183 350 l 224 350 l 224 164 b 192 122 224 136 213 122 b 161 164 171 122 161 136 l 161 756 b 192 797 161 783 171 797 b 224 756 213 797 224 783 l 224 638 l 356 638 l 356 740 b 188 928 356 858 297 928 b 21 743 79 928 21 860 l 21 175 b 169 -7 21 60 76 -7 b 254 36 222 -7 242 15 l 260 36 l 265 0 z m 260 983 l 260 1107 l 124 1107 l 124 983 z "},"ġ":{"ha":376,"x_min":0,"x_max":0,"o":"m 353 -161 l 353 683 l 231 683 l 229 624 l 224 624 b 131 689 201 667 174 689 b 24 564 65 689 24 642 l 24 151 b 128 0 24 53 46 0 b 213 50 168 0 196 17 l 218 50 l 218 -161 b 188 -203 218 -189 208 -203 b 156 -161 167 -203 156 -189 l 156 -42 l 26 -42 l 26 -161 b 188 -324 26 -269 81 -324 b 353 -161 297 -324 353 -269 z m 160 531 b 192 572 160 558 171 572 b 222 515 215 572 222 550 l 222 176 b 190 122 222 143 214 122 b 160 185 164 122 160 142 z m 260 754 l 260 878 l 124 878 l 124 754 z "},"Ģ":{"ha":378,"x_min":0,"x_max":0,"o":"m 356 0 l 356 475 l 183 475 l 183 350 l 224 350 l 224 164 b 192 122 224 136 213 122 b 161 164 171 122 161 136 l 161 756 b 192 797 161 783 171 797 b 224 756 213 797 224 783 l 224 638 l 356 638 l 356 740 b 188 928 356 858 297 928 b 21 743 79 928 21 860 l 21 175 b 169 -7 21 60 76 -7 b 254 36 222 -7 242 15 l 260 36 l 265 0 z m 131 -308 b 250 -157 213 -304 250 -258 l 250 -26 l 129 -26 l 129 -157 l 189 -157 l 189 -193 b 131 -249 189 -228 169 -242 z "},"ģ":{"ha":376,"x_min":0,"x_max":0,"o":"m 353 -161 l 353 683 l 231 683 l 229 624 l 224 624 b 131 689 201 667 174 689 b 24 564 65 689 24 642 l 24 151 b 128 0 24 53 46 0 b 213 50 168 0 196 17 l 218 50 l 218 -161 b 188 -203 218 -189 208 -203 b 156 -161 167 -203 156 -189 l 156 -42 l 26 -42 l 26 -161 b 188 -324 26 -269 81 -324 b 353 -161 297 -324 353 -269 z m 160 531 b 192 572 160 558 171 572 b 222 515 215 572 222 550 l 222 176 b 190 122 222 143 214 122 b 160 185 164 122 160 142 z m 253 1036 b 133 885 171 1032 133 986 l 133 754 l 254 754 l 254 885 l 194 885 l 194 921 b 253 976 194 956 214 969 z "},"Ħ":{"ha":389,"x_min":0,"x_max":0,"o":"m 367 0 l 367 693 l 389 693 l 389 775 l 367 775 l 367 922 l 225 922 l 225 775 l 163 775 l 163 922 l 21 922 l 21 775 l -1 775 l -1 693 l 21 693 l 21 0 l 163 0 l 163 429 l 225 429 l 225 0 z m 163 556 l 163 693 l 225 693 l 225 556 z "},"ħ":{"ha":379,"x_min":0,"x_max":0,"o":"m 253 767 l 253 850 l 158 850 l 158 933 l 24 933 l 24 850 l -1 850 l -1 767 l 24 767 l 24 0 l 158 0 l 158 531 b 192 572 161 558 171 572 b 219 538 210 572 219 560 l 219 0 l 356 0 l 356 558 b 253 689 356 631 329 689 b 164 633 208 689 181 669 l 158 633 l 158 767 z "},"Ĩ":{"ha":210,"x_min":0,"x_max":0,"o":"m 175 0 l 175 922 l 33 922 l 33 0 z m 194 1072 b 157 1039 188 1046 174 1039 b 39 1075 117 1039 85 1075 b -43 996 0 1075 -32 1051 l 14 964 b 51 997 21 992 36 997 b 171 961 92 997 124 961 b 251 1042 208 961 240 985 z "},"ĩ":{"ha":264,"x_min":0,"x_max":0,"o":"m 221 843 b 183 810 214 817 200 810 b 65 846 143 810 111 846 b -17 767 26 846 -6 822 l 40 735 b 78 768 47 763 63 768 b 197 732 118 768 150 732 b 278 813 235 732 267 756 z m 196 0 l 196 683 l 61 683 l 61 0 z "},"Ī":{"ha":232,"x_min":0,"x_max":0,"o":"m 186 0 l 186 922 l 44 922 l 44 0 z m 242 996 l 242 1079 l -12 1079 l -12 996 z "},"ī":{"ha":221,"x_min":0,"x_max":0,"o":"m 236 767 l 236 850 l -18 850 l -18 767 z m 175 0 l 175 683 l 40 683 l 40 0 z "},"Ĭ":{"ha":218,"x_min":0,"x_max":0,"o":"m 179 0 l 179 922 l 38 922 l 38 0 z m 108 946 b 258 1124 196 946 258 1007 l 160 1124 b 108 1029 158 1058 142 1029 b 56 1124 74 1029 57 1058 l -42 1124 b 108 946 -42 1008 21 946 z "},"ĭ":{"ha":263,"x_min":0,"x_max":0,"o":"m 129 717 b 279 894 217 717 279 778 l 181 894 b 129 800 179 829 163 800 b 76 894 94 800 78 829 l -21 894 b 129 717 -21 779 42 717 z m 197 0 l 197 683 l 63 683 l 63 0 z "},"Į":{"ha":185,"x_min":0,"x_max":0,"o":"m 161 -185 b 119 -190 151 -187 135 -190 b 79 -160 90 -190 79 -183 l 79 -122 b 163 0 79 -75 108 -36 l 163 922 l 21 922 l 21 0 l 107 0 l 107 -4 b -11 -162 31 -35 -11 -85 l -11 -204 b 90 -308 -11 -281 22 -308 b 161 -294 118 -308 143 -304 z "},"į":{"ha":183,"x_min":0,"x_max":0,"o":"m 157 -185 b 115 -190 147 -187 131 -190 b 75 -160 86 -190 75 -183 l 75 -122 b 126 -24 75 -85 93 -53 l 131 -24 l 131 -21 b 158 0 139 -14 147 -7 l 158 683 l 24 683 l 24 0 l 103 0 l 103 -4 b -15 -162 26 -35 -15 -85 l -15 -204 b 86 -308 -15 -281 18 -308 b 157 -294 114 -308 139 -304 z m 158 754 l 158 878 l 24 878 l 24 754 z "},"İ":{"ha":185,"x_min":0,"x_max":0,"o":"m 163 0 l 163 922 l 21 922 l 21 0 z m 161 983 l 161 1107 l 25 1107 l 25 983 z "},"ı":{"ha":183,"x_min":0,"x_max":0,"o":"m 158 0 l 158 683 l 24 683 l 24 0 z "},"Ĳ":{"ha":547,"x_min":0,"x_max":0,"o":"m 163 0 l 163 922 l 21 922 l 21 0 z m 386 164 b 354 122 386 136 375 122 b 324 164 333 122 324 136 l 324 349 l 190 349 l 190 174 b 357 -7 190 53 249 -7 b 525 175 468 -7 525 58 l 525 922 l 386 922 z "},"ĳ":{"ha":378,"x_min":0,"x_max":0,"o":"m 160 0 l 160 683 l 24 683 l 24 0 z m 160 754 l 160 878 l 24 878 l 24 754 z m 24 -161 b 188 -324 24 -271 78 -324 b 353 -161 299 -324 353 -271 l 353 683 l 218 683 l 218 -161 b 189 -203 218 -189 210 -203 b 160 -161 168 -203 160 -189 l 160 -71 l 24 -71 z m 353 754 l 353 878 l 218 878 l 218 754 z "},"Ķ":{"ha":383,"x_min":0,"x_max":0,"o":"m 378 0 l 292 574 l 379 922 l 238 922 b 171 604 188 692 176 646 l 165 604 l 165 922 l 21 922 l 21 0 l 165 0 l 165 258 l 188 349 l 192 349 l 235 0 z m 131 -308 b 250 -157 213 -304 250 -258 l 250 -26 l 129 -26 l 129 -157 l 189 -157 l 189 -193 b 131 -249 189 -228 169 -242 z "},"ķ":{"ha":375,"x_min":0,"x_max":0,"o":"m 371 0 l 285 403 l 372 683 l 228 683 b 164 443 174 492 168 465 l 158 443 l 158 933 l 24 933 l 24 0 l 158 0 l 158 175 l 181 244 l 186 244 l 229 0 z m 131 -308 b 250 -157 213 -304 250 -258 l 250 -26 l 129 -26 l 129 -157 l 189 -157 l 189 -193 b 131 -249 189 -228 169 -242 z "},"Ĺ":{"ha":308,"x_min":0,"x_max":0,"o":"m 296 0 l 296 129 l 163 129 l 163 922 l 21 922 l 21 0 z m 229 1086 l 161 1167 l 11 999 l 63 946 z "},"ĺ":{"ha":183,"x_min":0,"x_max":0,"o":"m 158 0 l 158 933 l 24 933 l 24 0 z m 221 1086 l 153 1167 l 3 999 l 54 946 z "},"Ļ":{"ha":308,"x_min":0,"x_max":0,"o":"m 296 0 l 296 129 l 163 129 l 163 922 l 21 922 l 21 0 z m 94 -308 b 214 -157 176 -304 214 -258 l 214 -26 l 93 -26 l 93 -157 l 153 -157 l 153 -193 b 94 -249 153 -228 133 -242 z "},"ļ":{"ha":183,"x_min":0,"x_max":0,"o":"m 158 0 l 158 933 l 24 933 l 24 0 z m 31 -308 b 150 -157 113 -304 150 -258 l 150 -26 l 29 -26 l 29 -157 l 89 -157 l 89 -193 b 31 -249 89 -228 69 -242 z "},"Ľ":{"ha":321,"x_min":0,"x_max":0,"o":"m 296 0 l 296 129 l 163 129 l 163 922 l 21 922 l 21 0 z m 182 590 b 319 785 271 607 319 671 l 319 933 l 182 933 l 182 797 l 242 797 l 242 765 b 182 667 242 722 222 689 z "},"ľ":{"ha":321,"x_min":0,"x_max":0,"o":"m 158 0 l 158 933 l 24 933 l 24 0 z m 182 590 b 319 785 271 607 319 671 l 319 933 l 182 933 l 182 797 l 242 797 l 242 765 b 182 667 242 722 222 689 z "},"Ł":{"ha":308,"x_min":0,"x_max":0,"o":"m 296 0 l 296 129 l 163 129 l 163 575 l 258 617 l 258 736 l 163 696 l 163 922 l 21 922 l 21 0 z "},"ł":{"ha":243,"x_min":0,"x_max":0,"o":"m 189 0 l 189 438 l 243 458 l 243 560 l 189 539 l 189 933 l 54 933 l 54 486 l 0 465 l 0 364 l 54 385 l 54 0 z "},"Ń":{"ha":408,"x_min":0,"x_max":0,"o":"m 388 0 l 388 922 l 265 922 l 265 717 b 271 329 265 501 268 417 l 265 329 l 208 922 l 21 922 l 21 0 l 142 0 l 142 296 b 136 640 142 489 140 571 l 142 640 l 222 0 z m 335 1086 l 267 1167 l 117 999 l 168 946 z "},"ń":{"ha":379,"x_min":0,"x_max":0,"o":"m 356 0 l 356 565 b 251 689 356 643 313 689 b 158 624 213 689 181 671 l 153 624 l 150 683 l 24 683 l 24 0 l 158 0 l 158 542 b 192 572 164 563 175 572 b 219 538 210 572 219 560 l 219 0 z m 318 857 l 250 938 l 100 769 l 151 717 z "},"Ņ":{"ha":408,"x_min":0,"x_max":0,"o":"m 388 0 l 388 922 l 265 922 l 265 717 b 271 329 265 501 268 417 l 265 329 l 208 922 l 21 922 l 21 0 l 142 0 l 142 296 b 136 640 142 489 140 571 l 142 640 l 222 0 z m 136 -308 b 256 -157 218 -304 256 -258 l 256 -26 l 135 -26 l 135 -157 l 194 -157 l 194 -193 b 136 -249 194 -228 175 -242 z "},"ņ":{"ha":379,"x_min":0,"x_max":0,"o":"m 356 0 l 356 565 b 251 689 356 643 313 689 b 158 624 213 689 181 671 l 153 624 l 150 683 l 24 683 l 24 0 l 158 0 l 158 542 b 192 572 164 563 175 572 b 219 538 210 572 219 560 l 219 0 z m 129 -308 b 249 -157 211 -304 249 -258 l 249 -26 l 128 -26 l 128 -157 l 188 -157 l 188 -193 b 129 -249 188 -228 168 -242 z "},"Ň":{"ha":408,"x_min":0,"x_max":0,"o":"m 388 0 l 388 922 l 265 922 l 265 717 b 271 329 265 501 268 417 l 265 329 l 208 922 l 21 922 l 21 0 l 142 0 l 142 296 b 136 640 142 489 140 571 l 142 640 l 222 0 z m 265 965 l 353 1099 l 294 1144 l 206 1043 l 117 1144 l 58 1099 l 146 965 z "},"ň":{"ha":379,"x_min":0,"x_max":0,"o":"m 356 0 l 356 565 b 251 689 356 643 313 689 b 158 624 213 689 181 671 l 153 624 l 150 683 l 24 683 l 24 0 l 158 0 l 158 542 b 192 572 164 563 175 572 b 219 538 210 572 219 560 l 219 0 z m 249 736 l 336 869 l 278 915 l 189 814 l 100 915 l 42 869 l 129 736 z "},"Ŋ":{"ha":408,"x_min":0,"x_max":0,"o":"m 388 -161 l 388 922 l 265 922 l 265 717 b 271 329 265 501 268 417 l 265 329 l 208 922 l 21 922 l 21 0 l 142 0 l 142 296 b 136 640 142 489 140 571 l 142 640 l 228 -43 l 228 -161 b 192 -203 228 -189 215 -203 b 168 -199 185 -203 175 -203 l 168 -321 b 211 -325 175 -322 185 -325 b 388 -161 321 -325 388 -269 z "},"ŋ":{"ha":379,"x_min":0,"x_max":0,"o":"m 168 -319 b 204 -324 174 -322 182 -324 b 356 -161 299 -324 356 -271 l 356 565 b 251 689 356 643 313 689 b 158 624 213 689 181 671 l 153 624 l 150 683 l 24 683 l 24 0 l 158 0 l 158 542 b 192 572 164 563 175 572 b 219 538 210 572 219 560 l 219 -161 b 188 -203 219 -189 208 -203 b 168 -200 182 -203 174 -203 z "},"Ō":{"ha":376,"x_min":0,"x_max":0,"o":"m 358 740 b 188 928 358 858 296 928 b 17 743 79 928 17 860 l 17 175 b 189 -7 17 58 78 -7 b 358 174 297 -7 358 53 z m 219 164 b 188 122 219 136 208 122 b 157 164 167 122 157 136 l 157 756 b 188 797 157 783 167 797 b 219 756 208 797 219 783 z m 315 996 l 315 1079 l 61 1079 l 61 996 z "},"ō":{"ha":372,"x_min":0,"x_max":0,"o":"m 349 526 b 186 689 349 638 296 689 b 24 526 75 689 24 638 l 24 156 b 186 -7 24 44 75 -7 b 349 156 296 -7 349 44 z m 217 156 b 186 114 217 128 206 114 b 154 156 167 114 154 128 l 154 526 b 186 568 154 554 167 568 b 217 526 206 568 217 554 z m 313 767 l 313 850 l 58 850 l 58 767 z "},"Ŏ":{"ha":376,"x_min":0,"x_max":0,"o":"m 358 740 b 188 928 358 858 296 928 b 17 743 79 928 17 860 l 17 175 b 189 -7 17 58 78 -7 b 358 174 297 -7 358 53 z m 219 164 b 188 122 219 136 208 122 b 157 164 167 122 157 136 l 157 756 b 188 797 157 783 167 797 b 219 756 208 797 219 783 z m 188 946 b 338 1124 275 946 338 1007 l 239 1124 b 188 1029 238 1058 221 1029 b 135 1124 153 1029 136 1058 l 38 1124 b 188 946 38 1008 100 946 z "},"ŏ":{"ha":372,"x_min":0,"x_max":0,"o":"m 349 526 b 186 689 349 638 296 689 b 24 526 75 689 24 638 l 24 156 b 186 -7 24 44 75 -7 b 349 156 296 -7 349 44 z m 217 156 b 186 114 217 128 206 114 b 154 156 167 114 154 128 l 154 526 b 186 568 154 554 167 568 b 217 526 206 568 217 554 z m 186 717 b 336 894 274 717 336 778 l 238 894 b 186 800 236 829 219 800 b 133 894 151 800 135 829 l 36 894 b 186 717 36 779 99 717 z "},"Ő":{"ha":376,"x_min":0,"x_max":0,"o":"m 358 740 b 188 928 358 858 296 928 b 17 743 79 928 17 860 l 17 175 b 189 -7 17 58 78 -7 b 358 174 297 -7 358 53 z m 219 164 b 188 122 219 136 208 122 b 157 164 167 122 157 136 l 157 756 b 188 797 157 783 167 797 b 219 756 208 797 219 783 z m 124 946 l 225 1119 l 142 1167 l 63 975 z m 251 946 l 354 1119 l 269 1167 l 192 975 z "},"ő":{"ha":372,"x_min":0,"x_max":0,"o":"m 349 526 b 186 689 349 638 296 689 b 24 526 75 689 24 638 l 24 156 b 186 -7 24 44 75 -7 b 349 156 296 -7 349 44 z m 217 156 b 186 114 217 128 206 114 b 154 156 167 114 154 128 l 154 526 b 186 568 154 554 167 568 b 217 526 206 568 217 554 z m 122 717 l 224 890 l 140 938 l 61 746 z m 250 717 l 353 890 l 268 938 l 190 746 z "},"Œ":{"ha":508,"x_min":0,"x_max":0,"o":"m 497 0 l 497 126 l 354 126 b 358 174 358 142 358 157 l 358 419 l 475 419 l 475 547 l 358 547 l 358 740 b 354 796 358 760 357 778 l 489 796 l 489 922 l 240 922 b 188 928 225 926 207 928 b 17 743 79 928 17 860 l 17 175 b 189 -7 17 58 78 -7 b 246 0 208 -7 228 -4 z m 219 164 b 188 122 219 136 208 122 b 157 164 167 122 157 136 l 157 756 b 188 797 157 783 167 797 b 219 756 208 797 219 783 z "},"œ":{"ha":554,"x_min":0,"x_max":0,"o":"m 533 231 l 400 231 l 400 153 b 368 111 400 125 389 111 b 338 153 349 111 338 125 l 338 303 l 533 303 l 533 526 b 369 689 533 636 479 689 b 276 668 329 689 300 682 b 186 689 254 682 225 689 b 24 526 75 689 24 638 l 24 156 b 186 -7 24 44 75 -7 b 276 13 225 -7 254 0 b 368 -7 299 0 329 -7 b 533 156 479 -7 533 47 z m 217 156 b 186 114 217 128 206 114 b 154 156 167 114 154 128 l 154 526 b 186 568 154 554 167 568 b 217 526 206 568 217 554 z m 400 399 l 338 399 l 338 529 b 369 571 338 558 349 571 b 400 529 390 571 400 558 z "},"Ŕ":{"ha":378,"x_min":0,"x_max":0,"o":"m 160 0 l 160 393 l 190 393 b 222 354 213 393 222 379 l 222 0 l 361 0 l 361 342 b 283 453 361 418 329 446 l 283 458 b 358 569 329 467 358 508 l 358 776 b 222 922 358 868 322 922 l 21 922 l 21 0 z m 222 554 b 188 508 222 525 211 508 l 160 508 l 160 796 l 188 796 b 222 760 211 796 222 785 z m 310 1086 l 242 1167 l 92 999 l 143 946 z "},"ŕ":{"ha":283,"x_min":0,"x_max":0,"o":"m 158 0 l 158 483 b 238 568 158 539 179 568 b 274 563 253 568 263 567 l 274 683 b 243 689 264 688 254 689 b 158 624 199 689 174 663 l 153 624 l 150 683 l 24 683 l 24 0 z m 276 857 l 208 938 l 58 769 l 110 717 z "},"Ŗ":{"ha":378,"x_min":0,"x_max":0,"o":"m 160 0 l 160 393 l 190 393 b 222 354 213 393 222 379 l 222 0 l 361 0 l 361 342 b 283 453 361 418 329 446 l 283 458 b 358 569 329 467 358 508 l 358 776 b 222 922 358 868 322 922 l 21 922 l 21 0 z m 222 554 b 188 508 222 525 211 508 l 160 508 l 160 796 l 188 796 b 222 760 211 796 222 785 z m 131 -308 b 250 -157 213 -304 250 -258 l 250 -26 l 129 -26 l 129 -157 l 189 -157 l 189 -193 b 131 -249 189 -228 169 -242 z "},"ŗ":{"ha":283,"x_min":0,"x_max":0,"o":"m 158 0 l 158 483 b 238 568 158 539 179 568 b 274 563 253 568 263 567 l 274 683 b 243 689 264 688 254 689 b 158 624 199 689 174 663 l 153 624 l 150 683 l 24 683 l 24 0 z m 29 -308 b 149 -157 111 -304 149 -258 l 149 -26 l 28 -26 l 28 -157 l 88 -157 l 88 -193 b 29 -249 88 -228 68 -242 z "},"Ř":{"ha":378,"x_min":0,"x_max":0,"o":"m 160 0 l 160 393 l 190 393 b 222 354 213 393 222 379 l 222 0 l 361 0 l 361 342 b 283 453 361 418 329 446 l 283 458 b 358 569 329 467 358 508 l 358 776 b 222 922 358 868 322 922 l 21 922 l 21 0 z m 222 554 b 188 508 222 525 211 508 l 160 508 l 160 796 l 188 796 b 222 760 211 796 222 785 z m 242 965 l 329 1099 l 271 1144 l 182 1043 l 93 1144 l 35 1099 l 122 965 z "},"ř":{"ha":283,"x_min":0,"x_max":0,"o":"m 158 0 l 158 483 b 238 568 158 539 179 568 b 274 563 253 568 263 567 l 274 683 b 243 689 264 688 254 689 b 158 624 199 689 174 663 l 153 624 l 150 683 l 24 683 l 24 0 z m 207 736 l 294 869 l 236 915 l 147 814 l 58 915 l 0 869 l 88 736 z "},"Ś":{"ha":392,"x_min":0,"x_max":0,"o":"m 361 650 l 361 740 b 192 928 361 854 317 928 b 21 765 81 928 21 869 l 21 688 b 58 525 21 611 33 568 b 188 379 90 469 143 428 b 225 264 215 349 225 332 l 225 163 b 189 122 225 138 214 122 b 150 163 164 122 150 138 l 150 276 l 17 276 l 17 174 b 194 -7 17 54 71 -7 b 374 172 319 -7 374 56 l 374 296 b 335 443 374 371 361 407 b 189 588 300 489 238 532 b 160 681 164 615 160 629 l 160 761 b 194 797 160 782 171 797 b 229 757 217 797 229 783 l 229 650 z m 322 1086 l 254 1167 l 104 999 l 156 946 z "},"ś":{"ha":367,"x_min":0,"x_max":0,"o":"m 342 476 l 342 543 b 181 689 342 635 285 689 b 25 565 82 689 25 642 l 25 474 b 61 365 25 433 32 397 b 172 282 86 338 142 304 b 213 221 207 257 213 243 l 213 129 b 181 103 213 113 203 103 b 146 133 158 103 146 113 l 146 219 l 19 219 l 19 138 b 188 -7 19 43 71 -7 b 347 132 297 -7 347 39 l 347 225 b 297 350 347 294 328 325 b 183 422 263 379 218 397 b 153 474 156 443 153 451 l 153 553 b 185 579 153 571 167 579 b 215 550 204 579 215 569 l 215 476 z m 313 857 l 244 938 l 94 769 l 146 717 z "},"Ş":{"ha":392,"x_min":0,"x_max":0,"o":"m 361 650 l 361 740 b 192 928 361 854 317 928 b 21 765 81 928 21 869 l 21 688 b 58 525 21 611 33 568 b 188 379 90 469 143 428 b 225 264 215 349 225 332 l 225 163 b 189 122 225 138 214 122 b 150 163 164 122 150 138 l 150 276 l 17 276 l 17 174 b 194 -7 17 54 71 -7 b 374 172 319 -7 374 56 l 374 296 b 335 443 374 371 361 407 b 189 588 300 489 238 532 b 160 681 164 615 160 629 l 160 761 b 194 797 160 782 171 797 b 229 757 217 797 229 783 l 229 650 z m 132 -308 b 251 -157 214 -304 251 -258 l 251 -26 l 131 -26 l 131 -157 l 190 -157 l 190 -193 b 132 -249 190 -228 171 -242 z "},"ş":{"ha":367,"x_min":0,"x_max":0,"o":"m 342 476 l 342 543 b 181 689 342 635 285 689 b 25 565 82 689 25 642 l 25 474 b 61 365 25 433 32 397 b 172 282 86 338 142 304 b 213 221 207 257 213 243 l 213 129 b 181 103 213 113 203 103 b 146 133 158 103 146 113 l 146 219 l 19 219 l 19 138 b 188 -7 19 43 71 -7 b 347 132 297 -7 347 39 l 347 225 b 297 350 347 294 328 325 b 183 422 263 379 218 397 b 153 474 156 443 153 451 l 153 553 b 185 579 153 571 167 579 b 215 550 204 579 215 569 l 215 476 z m 124 -308 b 243 -157 206 -304 243 -258 l 243 -26 l 122 -26 l 122 -157 l 182 -157 l 182 -193 b 124 -249 182 -228 163 -242 z "},"Š":{"ha":392,"x_min":0,"x_max":0,"o":"m 361 650 l 361 740 b 192 928 361 854 317 928 b 21 765 81 928 21 869 l 21 688 b 58 525 21 611 33 568 b 188 379 90 469 143 428 b 225 264 215 349 225 332 l 225 163 b 189 122 225 138 214 122 b 150 163 164 122 150 138 l 150 276 l 17 276 l 17 174 b 194 -7 17 54 71 -7 b 374 172 319 -7 374 56 l 374 296 b 335 443 374 371 361 407 b 189 588 300 489 238 532 b 160 681 164 615 160 629 l 160 761 b 194 797 160 782 171 797 b 229 757 217 797 229 783 l 229 650 z m 256 965 l 343 1099 l 285 1144 l 196 1043 l 107 1144 l 49 1099 l 136 965 z "},"š":{"ha":367,"x_min":0,"x_max":0,"o":"m 342 476 l 342 543 b 181 689 342 635 285 689 b 25 565 82 689 25 642 l 25 474 b 61 365 25 433 32 397 b 172 282 86 338 142 304 b 213 221 207 257 213 243 l 213 129 b 181 103 213 113 203 103 b 146 133 158 103 146 113 l 146 219 l 19 219 l 19 138 b 188 -7 19 43 71 -7 b 347 132 297 -7 347 39 l 347 225 b 297 350 347 294 328 325 b 183 422 263 379 218 397 b 153 474 156 443 153 451 l 153 553 b 185 579 153 571 167 579 b 215 550 204 579 215 569 l 215 476 z m 240 736 l 328 869 l 269 915 l 181 814 l 92 915 l 33 869 l 121 736 z "},"Ţ":{"ha":364,"x_min":0,"x_max":0,"o":"m 251 0 l 251 796 l 351 796 l 351 922 l 13 922 l 13 796 l 111 796 l 111 0 z m 121 -308 b 240 -157 203 -304 240 -258 l 240 -26 l 119 -26 l 119 -157 l 179 -157 l 179 -193 b 121 -249 179 -228 160 -242 z "},"ţ":{"ha":356,"x_min":0,"x_max":0,"o":"m 217 156 b 188 114 217 128 207 114 b 157 156 167 114 157 128 l 157 563 l 332 563 l 332 683 l 157 683 l 157 868 l 24 868 l 24 156 b 186 -7 24 46 75 -7 b 332 156 296 -7 332 46 l 332 381 l 217 381 z m 122 -308 b 242 -157 204 -304 242 -258 l 242 -26 l 121 -26 l 121 -157 l 181 -157 l 181 -193 b 122 -249 181 -228 161 -242 z "},"Ť":{"ha":364,"x_min":0,"x_max":0,"o":"m 251 0 l 251 796 l 351 796 l 351 922 l 13 922 l 13 796 l 111 796 l 111 0 z m 240 965 l 328 1099 l 269 1144 l 181 1043 l 92 1144 l 33 1099 l 121 965 z "},"ť":{"ha":479,"x_min":0,"x_max":0,"o":"m 217 156 b 188 114 217 128 207 114 b 157 156 167 114 157 128 l 157 563 l 332 563 l 332 683 l 157 683 l 157 868 l 24 868 l 24 156 b 186 -7 24 46 75 -7 b 332 156 296 -7 332 46 l 332 381 l 217 381 z m 342 590 b 479 785 431 607 479 671 l 479 933 l 342 933 l 342 797 l 401 797 l 401 765 b 342 667 401 722 382 689 z "},"Ŧ":{"ha":364,"x_min":0,"x_max":0,"o":"m 251 0 l 251 449 l 308 449 l 308 532 l 251 532 l 251 796 l 351 796 l 351 922 l 13 922 l 13 796 l 111 796 l 111 532 l 54 532 l 54 449 l 111 449 l 111 0 z "},"ŧ":{"ha":356,"x_min":0,"x_max":0,"o":"m 331 433 l 331 507 l 157 507 l 157 563 l 332 563 l 332 683 l 157 683 l 157 868 l 24 868 l 24 156 b 186 -7 24 46 75 -7 b 332 156 296 -7 332 46 l 332 369 l 217 369 l 217 156 b 188 114 217 128 207 114 b 157 156 167 114 157 128 l 157 433 z "},"Ũ":{"ha":383,"x_min":0,"x_max":0,"o":"m 221 164 b 190 122 221 136 211 122 b 158 164 169 122 158 136 l 158 922 l 21 922 l 21 174 b 192 -7 21 53 83 -7 b 361 175 303 -7 361 58 l 361 922 l 221 922 z m 281 1072 b 243 1039 274 1046 260 1039 b 125 1075 203 1039 171 1075 b 43 996 86 1075 54 1051 l 100 964 b 138 997 107 992 122 997 b 257 961 178 997 210 961 b 338 1042 294 961 326 985 z "},"ũ":{"ha":378,"x_min":0,"x_max":0,"o":"m 24 683 l 24 158 b 126 -7 24 64 36 -7 b 219 58 169 -7 194 10 l 225 58 l 226 0 l 354 0 l 354 683 l 218 683 l 218 158 b 189 110 218 122 213 110 b 160 158 164 110 160 122 l 160 683 z m 279 843 b 242 810 272 817 258 810 b 124 846 201 810 169 846 b 42 767 85 846 53 822 l 99 735 b 136 768 106 763 121 768 b 256 732 176 768 208 732 b 336 813 293 732 325 756 z "},"Ū":{"ha":383,"x_min":0,"x_max":0,"o":"m 221 164 b 190 122 221 136 211 122 b 158 164 169 122 158 136 l 158 922 l 21 922 l 21 174 b 192 -7 21 53 83 -7 b 361 175 303 -7 361 58 l 361 922 l 221 922 z m 318 996 l 318 1079 l 64 1079 l 64 996 z "},"ū":{"ha":378,"x_min":0,"x_max":0,"o":"m 24 683 l 24 158 b 126 -7 24 64 36 -7 b 219 58 169 -7 194 10 l 225 58 l 226 0 l 354 0 l 354 683 l 218 683 l 218 158 b 189 110 218 122 213 110 b 160 158 164 110 160 122 l 160 683 z m 317 767 l 317 850 l 63 850 l 63 767 z "},"Ŭ":{"ha":383,"x_min":0,"x_max":0,"o":"m 221 164 b 190 122 221 136 211 122 b 158 164 169 122 158 136 l 158 922 l 21 922 l 21 174 b 192 -7 21 53 83 -7 b 361 175 303 -7 361 58 l 361 922 l 221 922 z m 189 946 b 339 1124 276 946 339 1007 l 240 1124 b 189 1029 239 1058 222 1029 b 136 1124 154 1029 138 1058 l 39 1124 b 189 946 39 1008 101 946 z "},"ŭ":{"ha":378,"x_min":0,"x_max":0,"o":"m 24 683 l 24 158 b 126 -7 24 64 36 -7 b 219 58 169 -7 194 10 l 225 58 l 226 0 l 354 0 l 354 683 l 218 683 l 218 158 b 189 110 218 122 213 110 b 160 158 164 110 160 122 l 160 683 z m 188 717 b 338 894 275 717 338 778 l 239 894 b 188 800 238 829 221 800 b 135 894 153 800 136 829 l 38 894 b 188 717 38 779 100 717 z "},"Ů":{"ha":383,"x_min":0,"x_max":0,"o":"m 221 164 b 190 122 221 136 211 122 b 158 164 169 122 158 136 l 158 922 l 21 922 l 21 174 b 192 -7 21 53 83 -7 b 361 175 303 -7 361 58 l 361 922 l 221 922 z m 192 1000 b 154 1050 167 1000 154 1018 b 192 1100 154 1081 167 1100 b 229 1050 217 1100 229 1081 b 192 1000 229 1018 217 1000 z m 192 946 b 285 1050 254 946 285 986 b 192 1154 285 1114 254 1154 b 99 1050 129 1154 99 1114 b 192 946 99 986 129 946 z "},"ů":{"ha":378,"x_min":0,"x_max":0,"o":"m 24 683 l 24 158 b 126 -7 24 64 36 -7 b 219 58 169 -7 194 10 l 225 58 l 226 0 l 354 0 l 354 683 l 218 683 l 218 158 b 189 110 218 122 213 110 b 160 158 164 110 160 122 l 160 683 z m 189 771 b 151 821 164 771 151 789 b 189 871 151 851 164 871 b 226 821 214 871 226 851 b 189 771 226 789 214 771 z m 189 717 b 282 821 251 717 282 757 b 189 925 282 885 251 925 b 96 821 126 925 96 885 b 189 717 96 757 126 717 z "},"Ű":{"ha":383,"x_min":0,"x_max":0,"o":"m 221 164 b 190 122 221 136 211 122 b 158 164 169 122 158 136 l 158 922 l 21 922 l 21 174 b 192 -7 21 53 83 -7 b 361 175 303 -7 361 58 l 361 922 l 221 922 z m 128 946 l 229 1119 l 146 1167 l 67 975 z m 256 946 l 358 1119 l 274 1167 l 196 975 z "},"ű":{"ha":378,"x_min":0,"x_max":0,"o":"m 24 683 l 24 158 b 126 -7 24 64 36 -7 b 219 58 169 -7 194 10 l 225 58 l 226 0 l 354 0 l 354 683 l 218 683 l 218 158 b 189 110 218 122 213 110 b 160 158 164 110 160 122 l 160 683 z m 125 717 l 226 890 l 143 938 l 64 746 z m 253 717 l 356 890 l 271 938 l 193 746 z "},"Ų":{"ha":383,"x_min":0,"x_max":0,"o":"m 240 -185 b 199 -190 231 -187 214 -190 b 158 -160 169 -190 158 -183 l 158 -122 b 236 -3 158 -76 185 -36 b 361 175 318 13 361 75 l 361 922 l 221 922 l 221 164 b 190 122 221 136 211 122 b 158 164 169 122 158 136 l 158 922 l 21 922 l 21 174 b 167 -6 21 61 72 3 l 167 -12 b 68 -162 103 -42 68 -90 l 68 -204 b 169 -308 68 -281 101 -308 b 240 -294 197 -308 222 -304 z "},"ų":{"ha":378,"x_min":0,"x_max":0,"o":"m 351 -185 b 310 -190 342 -187 325 -190 b 271 -160 282 -190 271 -183 l 271 -122 b 354 0 271 -75 299 -36 l 354 683 l 218 683 l 218 158 b 189 110 218 122 213 110 b 160 158 164 110 160 122 l 160 683 l 24 683 l 24 158 b 126 -7 24 64 36 -7 b 219 58 169 -7 194 10 l 225 58 l 226 0 l 299 0 l 299 -4 b 179 -162 222 -35 179 -85 l 179 -204 b 282 -308 179 -281 213 -308 b 351 -294 308 -308 333 -304 z "},"Ŵ":{"ha":575,"x_min":0,"x_max":0,"o":"m 247 0 l 285 647 l 290 647 l 328 0 l 507 0 l 571 922 l 438 922 l 410 276 l 404 276 l 363 922 l 213 922 l 175 276 l 169 276 l 140 922 l 4 922 l 68 0 z m 432 992 l 344 1125 l 225 1125 l 138 992 l 196 946 l 285 1047 l 374 946 z "},"ŵ":{"ha":525,"x_min":0,"x_max":0,"o":"m 225 0 l 260 468 l 265 468 l 299 0 l 464 0 l 521 683 l 397 683 l 374 229 l 368 229 l 331 683 l 193 683 l 158 229 l 153 229 l 129 683 l 3 683 l 60 0 z m 408 763 l 321 896 l 201 896 l 114 763 l 172 717 l 261 818 l 350 717 z "},"Ŷ":{"ha":383,"x_min":0,"x_max":0,"o":"m 265 0 l 265 378 l 381 922 l 243 922 l 199 621 l 193 621 l 142 922 l 3 922 l 124 379 l 124 0 z m 343 992 l 256 1125 l 136 1125 l 49 992 l 107 946 l 196 1047 l 285 946 z "},"ŷ":{"ha":376,"x_min":0,"x_max":0,"o":"m 160 683 l 24 683 l 24 133 b 126 0 24 53 47 0 b 213 50 164 0 192 11 l 218 50 l 218 -161 b 188 -203 218 -189 208 -203 b 156 -161 167 -203 156 -189 l 156 -42 l 26 -42 l 26 -161 b 188 -324 26 -271 78 -324 b 353 -161 299 -324 353 -271 l 353 683 l 222 683 l 222 164 b 190 122 221 135 208 122 b 160 164 171 122 160 135 z m 340 763 l 253 896 l 133 896 l 46 763 l 104 717 l 193 818 l 282 717 z "},"Ÿ":{"ha":383,"x_min":0,"x_max":0,"o":"m 265 0 l 265 378 l 381 922 l 243 922 l 199 621 l 193 621 l 142 922 l 3 922 l 124 379 l 124 0 z m 175 983 l 175 1107 l 50 1107 l 50 983 z m 339 983 l 339 1107 l 214 1107 l 214 983 z "},"Ź":{"ha":350,"x_min":0,"x_max":0,"o":"m 338 0 l 338 126 l 157 126 l 332 794 l 332 922 l 14 922 l 14 796 l 190 796 l 13 129 l 13 0 z m 306 1086 l 238 1167 l 88 999 l 139 946 z "},"ź":{"ha":317,"x_min":0,"x_max":0,"o":"m 303 0 l 303 124 l 153 124 l 299 563 l 299 683 l 17 683 l 17 563 l 163 563 l 14 125 l 14 0 z m 289 857 l 221 938 l 71 769 l 122 717 z "},"Ż":{"ha":350,"x_min":0,"x_max":0,"o":"m 338 0 l 338 126 l 157 126 l 332 794 l 332 922 l 14 922 l 14 796 l 190 796 l 13 129 l 13 0 z m 240 983 l 240 1107 l 104 1107 l 104 983 z "},"ż":{"ha":317,"x_min":0,"x_max":0,"o":"m 303 0 l 303 124 l 153 124 l 299 563 l 299 683 l 17 683 l 17 563 l 163 563 l 14 125 l 14 0 z m 224 754 l 224 878 l 88 878 l 88 754 z "},"Ž":{"ha":350,"x_min":0,"x_max":0,"o":"m 338 0 l 338 126 l 157 126 l 332 794 l 332 922 l 14 922 l 14 796 l 190 796 l 13 129 l 13 0 z m 235 965 l 322 1099 l 264 1144 l 175 1043 l 86 1144 l 28 1099 l 115 965 z "},"ž":{"ha":317,"x_min":0,"x_max":0,"o":"m 303 0 l 303 124 l 153 124 l 299 563 l 299 683 l 17 683 l 17 563 l 163 563 l 14 125 l 14 0 z m 218 736 l 306 869 l 247 915 l 158 814 l 69 915 l 11 869 l 99 736 z "},"Ǝ":{"ha":300,"x_min":0,"x_max":0,"o":"m 10 922 l 10 794 l 140 794 l 140 501 l 33 501 l 33 375 l 140 375 l 140 126 l 18 126 l 18 0 l 279 0 l 279 922 z "},"Ə":{"ha":374,"x_min":0,"x_max":0,"o":"m 24 453 l 157 453 l 157 531 b 188 572 157 558 167 572 b 218 531 208 572 218 558 l 218 381 l 24 381 l 24 156 b 188 -7 24 47 76 -7 b 350 156 297 -7 350 47 l 350 526 b 188 689 350 638 297 689 b 24 526 76 689 24 635 z m 156 283 l 218 283 l 218 153 b 188 111 218 125 208 111 b 156 153 167 111 156 125 z "},"ƒ":{"ha":324,"x_min":0,"x_max":0,"o":"m 313 547 l 313 631 l 249 631 l 265 792 b 289 808 267 803 272 808 l 313 808 l 313 933 l 263 933 b 133 815 181 933 143 906 l 114 631 l 54 631 l 54 547 l 106 547 l 42 -99 b 17 -117 40 -110 33 -117 l 0 -117 l 0 -240 l 43 -240 b 172 -122 125 -240 163 -214 l 240 547 z "},"Ɣ":{"ha":431,"x_min":0,"x_max":0,"o":"m 215 -324 b 354 -174 325 -324 354 -257 b 278 278 354 -126 346 -72 l 413 922 l 269 922 l 217 606 l 211 606 l 160 922 l 17 922 l 150 278 b 75 -179 83 -87 75 -140 b 215 -324 75 -257 106 -324 z m 215 -228 b 185 -185 194 -228 185 -215 b 208 -47 185 -156 188 -121 l 218 -47 b 244 -183 239 -122 244 -157 b 215 -228 244 -214 236 -228 z "},"Ɲ":{"ha":408,"x_min":0,"x_max":0,"o":"m 388 0 l 388 922 l 265 922 l 265 717 b 271 329 265 501 268 417 l 265 329 l 208 922 l 21 922 l 21 -161 b -7 -203 21 -189 11 -203 b -25 -200 -12 -203 -19 -203 l -25 -319 b 8 -324 -19 -322 -12 -324 b 142 -161 93 -324 142 -271 l 142 311 b 136 640 142 492 140 572 l 142 640 l 222 0 z "},"Ơ":{"ha":439,"x_min":0,"x_max":0,"o":"m 358 740 b 338 843 358 781 351 815 b 372 839 350 840 363 839 b 439 956 421 839 439 872 b 429 1018 439 979 438 1006 l 358 1018 b 363 967 361 1006 363 978 b 313 918 363 929 350 918 b 186 928 278 918 228 928 b 17 743 79 928 17 861 l 17 175 b 189 -7 17 58 76 -7 b 358 174 297 -7 358 51 z m 219 164 b 188 122 219 136 208 122 b 157 164 167 122 157 136 l 157 756 b 188 797 157 783 167 797 b 219 756 208 797 219 783 z "},"ơ":{"ha":422,"x_min":0,"x_max":0,"o":"m 349 526 b 338 601 349 554 344 579 b 356 600 344 600 349 600 b 422 715 404 600 422 632 b 413 779 422 742 421 767 l 342 779 b 346 728 344 767 346 739 b 299 679 346 692 336 679 b 181 689 265 679 226 689 b 24 526 76 689 24 635 l 24 156 b 186 -7 24 43 75 -7 b 349 156 297 -7 349 43 z m 217 156 b 186 114 217 128 207 114 b 154 156 165 114 154 128 l 154 526 b 186 568 154 554 165 568 b 217 526 207 568 217 554 z "},"Ư":{"ha":478,"x_min":0,"x_max":0,"o":"m 221 164 b 190 122 221 136 211 122 b 158 164 169 122 158 136 l 158 922 l 21 922 l 21 174 b 192 -7 21 51 83 -7 b 361 175 304 -7 361 58 l 361 847 b 411 839 379 843 396 839 b 478 954 458 839 478 871 b 468 1018 478 981 475 1006 l 396 1018 b 400 969 400 1004 400 981 b 361 922 400 935 390 922 l 221 922 z "},"ư":{"ha":467,"x_min":0,"x_max":0,"o":"m 24 683 l 24 179 b 131 -7 24 75 40 -7 b 221 58 176 -7 203 22 l 225 58 l 226 0 l 354 0 l 354 608 b 399 600 369 603 386 600 b 467 714 449 600 467 633 b 457 779 467 742 464 767 l 385 779 b 389 731 388 765 389 743 b 354 683 389 694 379 683 l 218 683 l 218 142 b 186 110 213 121 203 110 b 160 144 169 110 160 121 l 160 683 z "},"ǝ":{"ha":374,"x_min":0,"x_max":0,"o":"m 24 453 l 157 453 l 157 531 b 188 572 157 558 167 572 b 218 531 208 572 218 558 l 218 381 l 24 381 l 24 156 b 188 -7 24 47 76 -7 b 350 156 297 -7 350 47 l 350 526 b 188 689 350 638 297 689 b 24 526 76 689 24 635 z m 156 283 l 218 283 l 218 153 b 188 111 218 125 208 111 b 156 153 167 111 156 125 z "},"Ǧ":{"ha":378,"x_min":0,"x_max":0,"o":"m 356 0 l 356 475 l 183 475 l 183 350 l 224 350 l 224 164 b 192 122 224 136 213 122 b 161 164 171 122 161 136 l 161 756 b 192 797 161 783 171 797 b 224 756 213 797 224 783 l 224 638 l 356 638 l 356 740 b 188 928 356 858 297 928 b 21 743 79 928 21 860 l 21 175 b 169 -7 21 60 76 -7 b 254 36 222 -7 242 15 l 260 36 l 265 0 z m 253 965 l 340 1099 l 282 1144 l 193 1043 l 104 1144 l 46 1099 l 133 965 z "},"ǧ":{"ha":376,"x_min":0,"x_max":0,"o":"m 353 -161 l 353 683 l 231 683 l 229 624 l 224 624 b 131 689 201 667 174 689 b 24 564 65 689 24 642 l 24 151 b 128 0 24 53 46 0 b 213 50 168 0 196 17 l 218 50 l 218 -161 b 188 -203 218 -189 208 -203 b 156 -161 167 -203 156 -189 l 156 -42 l 26 -42 l 26 -161 b 188 -324 26 -269 81 -324 b 353 -161 297 -324 353 -269 z m 160 531 b 192 572 160 558 171 572 b 222 515 215 572 222 550 l 222 176 b 190 122 222 143 214 122 b 160 185 164 122 160 142 z m 249 736 l 336 869 l 278 915 l 189 814 l 100 915 l 42 869 l 129 736 z "},"Ǵ":{"ha":378,"x_min":0,"x_max":0,"o":"m 356 0 l 356 475 l 183 475 l 183 350 l 224 350 l 224 164 b 192 122 224 136 213 122 b 161 164 171 122 161 136 l 161 756 b 192 797 161 783 171 797 b 224 756 213 797 224 783 l 224 638 l 356 638 l 356 740 b 188 928 356 858 297 928 b 21 743 79 928 21 860 l 21 175 b 169 -7 21 60 76 -7 b 254 36 222 -7 242 15 l 260 36 l 265 0 z m 322 1086 l 254 1167 l 104 999 l 156 946 z "},"ǵ":{"ha":376,"x_min":0,"x_max":0,"o":"m 353 -161 l 353 683 l 231 683 l 229 624 l 224 624 b 131 689 201 667 174 689 b 24 564 65 689 24 642 l 24 151 b 128 0 24 53 46 0 b 213 50 168 0 196 17 l 218 50 l 218 -161 b 188 -203 218 -189 208 -203 b 156 -161 167 -203 156 -189 l 156 -42 l 26 -42 l 26 -161 b 188 -324 26 -269 81 -324 b 353 -161 297 -324 353 -269 z m 160 531 b 192 572 160 558 171 572 b 222 515 215 572 222 550 l 222 176 b 190 122 222 143 214 122 b 160 185 164 122 160 142 z m 322 857 l 254 938 l 104 769 l 156 717 z "},"Ǹ":{"ha":408,"x_min":0,"x_max":0,"o":"m 388 0 l 388 922 l 265 922 l 265 717 b 271 329 265 501 268 417 l 265 329 l 208 922 l 21 922 l 21 0 l 142 0 l 142 296 b 136 640 142 489 140 571 l 142 640 l 222 0 z m 243 946 l 294 999 l 146 1167 l 76 1086 z "},"ǹ":{"ha":379,"x_min":0,"x_max":0,"o":"m 356 0 l 356 565 b 251 689 356 643 313 689 b 158 624 213 689 181 671 l 153 624 l 150 683 l 24 683 l 24 0 l 158 0 l 158 542 b 192 572 164 563 175 572 b 219 538 210 572 219 560 l 219 0 z m 226 717 l 278 769 l 129 938 l 60 857 z "},"ȷ":{"ha":183,"x_min":0,"x_max":0,"o":"m -168 -161 b -7 -324 -168 -271 -117 -324 b 158 -161 104 -324 158 -271 l 158 683 l 24 683 l 24 -161 b -8 -203 24 -189 13 -203 b -39 -161 -29 -203 -39 -189 l -39 -37 l -168 -37 z "},"Ɂ":{"ha":356,"x_min":0,"x_max":0,"o":"m 243 0 l 243 313 b 256 424 243 378 249 401 b 322 550 272 474 301 500 b 339 672 333 579 339 603 l 339 753 b 176 928 339 872 308 928 b 11 740 38 928 11 865 l 11 654 l 143 654 l 143 747 b 175 797 143 781 150 797 b 206 756 197 797 206 783 l 206 661 b 194 572 206 624 201 593 b 121 435 183 540 142 490 b 101 308 110 406 101 371 l 101 0 z "},"ɂ":{"ha":372,"x_min":0,"x_max":0,"o":"m 250 0 l 250 149 b 260 203 250 169 254 188 b 336 322 278 246 315 274 b 349 389 343 340 349 363 l 349 525 b 185 689 349 638 296 689 b 25 506 72 689 25 638 l 25 421 l 154 421 l 154 526 b 186 568 154 554 165 568 b 217 528 206 568 217 554 l 217 390 b 203 338 217 371 211 353 b 129 225 185 303 149 269 b 114 150 121 204 114 179 l 114 0 z "},"Ɍ":{"ha":417,"x_min":0,"x_max":0,"o":"m 199 0 l 199 393 l 228 393 b 261 354 250 393 261 379 l 261 0 l 399 0 l 399 342 b 321 453 399 418 368 446 l 321 458 b 397 569 368 467 397 508 l 397 776 b 261 922 397 868 361 922 l 60 922 l 60 508 l 0 508 l 0 393 l 60 393 l 60 0 z m 261 554 b 226 508 261 525 249 508 l 199 508 l 199 796 l 226 796 b 261 760 249 796 261 785 z "},"ɍ":{"ha":306,"x_min":0,"x_max":0,"o":"m 181 0 l 181 271 l 253 271 l 253 353 l 181 353 l 181 483 b 258 568 181 539 200 568 b 294 563 274 568 285 567 l 294 683 b 264 689 286 688 276 689 b 179 624 219 689 196 663 l 174 624 l 172 683 l 44 683 l 44 353 l -1 353 l -1 271 l 44 271 l 44 0 z "},"ɣ":{"ha":368,"x_min":0,"x_max":0,"o":"m 365 683 l 228 683 l 186 453 l 179 453 l 140 683 l 3 683 l 125 174 b 63 -183 71 -96 63 -140 b 183 -324 63 -278 103 -324 b 304 -182 265 -324 304 -278 b 242 174 304 -142 297 -96 z m 208 -197 b 183 -235 208 -224 201 -235 b 158 -196 167 -235 158 -224 b 181 -78 158 -174 164 -135 l 186 -78 b 208 -197 203 -135 208 -175 z "},"ɲ":{"ha":379,"x_min":0,"x_max":0,"o":"m 356 0 l 356 565 b 251 689 356 643 313 689 b 158 624 213 689 181 671 l 153 624 l 150 683 l 24 683 l 24 -161 b -8 -203 24 -189 13 -203 b -28 -200 -14 -203 -22 -203 l -28 -319 b 8 -324 -22 -322 -14 -324 b 158 -161 103 -324 158 -271 l 158 542 b 192 572 164 563 175 572 b 219 538 210 572 219 560 l 219 0 z "},"ˆ":{"ha":338,"x_min":0,"x_max":0,"o":"m 315 763 l 228 896 l 108 896 l 21 763 l 79 717 l 168 818 l 257 717 z "},"ˇ":{"ha":335,"x_min":0,"x_max":0,"o":"m 228 736 l 315 869 l 257 915 l 168 814 l 79 915 l 21 869 l 108 736 z "},"ˉ":{"ha":0,"x_min":0,"x_max":0,"o":"m -67 767 l -67 850 l -321 850 l -321 767 z "},"˘":{"ha":343,"x_min":0,"x_max":0,"o":"m 171 717 b 321 894 258 717 321 778 l 222 894 b 171 800 221 829 204 800 b 118 894 136 800 119 829 l 21 894 b 171 717 21 779 83 717 z "},"˙":{"ha":179,"x_min":0,"x_max":0,"o":"m 157 754 l 157 878 l 21 878 l 21 754 z "},"˚":{"ha":229,"x_min":0,"x_max":0,"o":"m 114 771 b 76 821 89 771 76 789 b 114 871 76 851 89 871 b 151 821 139 871 151 851 b 114 771 151 789 139 771 z m 114 717 b 207 821 176 717 207 757 b 114 925 207 885 176 925 b 21 821 51 925 21 885 b 114 717 21 757 51 717 z "},"˛":{"ha":208,"x_min":0,"x_max":0,"o":"m 185 -185 b 143 -190 175 -187 158 -190 b 104 -160 115 -190 104 -183 l 104 -122 b 188 0 104 -75 132 -36 l 144 0 b 13 -162 61 -29 13 -81 l 13 -204 b 115 -308 13 -281 46 -308 b 185 -294 142 -308 167 -304 z "},"˜":{"ha":338,"x_min":0,"x_max":0,"o":"m 258 843 b 221 810 251 817 238 810 b 103 846 181 810 149 846 b 21 767 64 846 32 822 l 78 735 b 115 768 85 763 100 768 b 235 732 156 768 188 732 b 315 813 272 732 304 756 z "},"˝":{"ha":333,"x_min":0,"x_max":0,"o":"m 82 717 l 183 890 l 100 938 l 21 746 z m 210 717 l 313 890 l 228 938 l 150 746 z "},"̀":{"ha":0,"x_min":0,"x_max":0,"o":"m -156 717 l -104 769 l -253 938 l -322 857 z "},"́":{"ha":0,"x_min":0,"x_max":0,"o":"m -85 857 l -153 938 l -303 769 l -251 717 z "},"̂":{"ha":0,"x_min":0,"x_max":0,"o":"m -46 763 l -133 896 l -253 896 l -340 763 l -282 717 l -193 818 l -104 717 z "},"̃":{"ha":0,"x_min":0,"x_max":0,"o":"m -103 843 b -140 810 -110 817 -124 810 b -258 846 -181 810 -212 846 b -340 767 -297 846 -329 822 l -283 735 b -246 768 -276 763 -261 768 b -126 732 -206 768 -174 732 b -46 813 -89 732 -57 756 z "},"̄":{"ha":0,"x_min":0,"x_max":0,"o":"m -67 767 l -67 850 l -321 850 l -321 767 z "},"̆":{"ha":0,"x_min":0,"x_max":0,"o":"m -193 717 b -43 894 -106 717 -43 778 l -142 894 b -193 800 -143 829 -160 800 b -246 894 -228 800 -244 829 l -343 894 b -193 717 -343 779 -281 717 z "},"̇":{"ha":0,"x_min":0,"x_max":0,"o":"m -124 754 l -124 878 l -260 878 l -260 754 z "},"̈":{"ha":0,"x_min":0,"x_max":0,"o":"m -212 754 l -212 878 l -337 878 l -337 754 z m -49 754 l -49 878 l -174 878 l -174 754 z "},"̉":{"ha":0,"x_min":0,"x_max":0,"o":"m -175 729 b -108 838 -175 771 -108 771 b -190 918 -108 888 -143 918 b -275 889 -217 918 -253 908 l -253 818 b -203 839 -237 832 -224 839 b -182 825 -187 839 -182 835 b -237 729 -182 792 -237 796 z "},"̊":{"ha":0,"x_min":0,"x_max":0,"o":"m -193 771 b -231 821 -218 771 -231 789 b -193 871 -231 851 -218 871 b -156 821 -168 871 -156 851 b -193 771 -156 789 -168 771 z m -193 717 b -100 821 -131 717 -100 757 b -193 925 -100 885 -131 925 b -286 821 -256 925 -286 885 b -193 717 -286 757 -256 717 z "},"̋":{"ha":0,"x_min":0,"x_max":0,"o":"m -278 717 l -176 890 l -260 938 l -339 746 z m -150 717 l -47 890 l -132 938 l -210 746 z "},"̌":{"ha":0,"x_min":0,"x_max":0,"o":"m -132 736 l -44 869 l -103 915 l -192 814 l -281 915 l -339 869 l -251 736 z "},"̓":{"ha":0,"x_min":0,"x_max":0,"o":"m -133 1015 b -253 864 -215 1011 -253 965 l -253 733 l -132 733 l -132 864 l -192 864 l -192 900 b -133 956 -192 935 -172 949 z "},"̛":{"ha":81,"x_min":0,"x_max":0,"o":"m -99 638 b 14 600 -71 619 -22 600 b 81 711 61 600 81 633 b 71 779 81 742 78 767 l 0 779 b 4 721 3 765 4 746 b -37 679 4 688 1 679 b -99 683 -62 679 -83 682 z "},"̣":{"ha":0,"x_min":0,"x_max":0,"o":"m -124 -186 l -124 -64 l -258 -64 l -258 -186 z "},"̦":{"ha":0,"x_min":0,"x_max":0,"o":"m -253 -308 b -133 -157 -171 -304 -133 -258 l -133 -26 l -254 -26 l -254 -157 l -194 -157 l -194 -193 b -253 -249 -194 -228 -214 -242 z "},"̨":{"ha":0,"x_min":0,"x_max":0,"o":"m -108 -185 b -150 -190 -118 -187 -135 -190 b -189 -160 -178 -190 -189 -183 l -189 -122 b -106 0 -189 -75 -161 -36 l -149 0 b -281 -162 -232 -29 -281 -81 l -281 -204 b -178 -308 -281 -281 -247 -308 b -108 -294 -151 -308 -126 -304 z "},"̭":{"ha":0,"x_min":0,"x_max":0,"o":"m -46 -218 l -133 -85 l -253 -85 l -340 -218 l -282 -264 l -193 -162 l -104 -264 z "},"΄":{"ha":117,"x_min":0,"x_max":0,"o":"m 93 728 l 117 971 l 11 971 l 11 728 z "},"΅":{"ha":0,"x_min":0,"x_max":0,"o":"m -149 728 l -125 971 l -231 971 l -231 728 z m -247 754 l -247 878 l -383 878 l -383 754 z m 11 754 l 11 878 l -125 878 l -125 754 z "},"Ά":{"ha":432,"x_min":0,"x_max":0,"o":"m 426 0 l 336 922 l 139 922 l 49 0 l 186 0 l 200 210 l 271 210 l 286 0 z m 233 688 l 239 688 l 263 331 l 208 331 z m 93 728 l 117 971 l 11 971 l 11 728 z "},"·":{"ha":181,"x_min":0,"x_max":0,"o":"m 158 436 l 158 572 l 21 572 l 21 436 z "},"Έ":{"ha":401,"x_min":0,"x_max":0,"o":"m 390 0 l 390 126 l 260 126 l 260 419 l 367 419 l 367 547 l 260 547 l 260 796 l 382 796 l 382 922 l 121 922 l 121 0 z m 93 728 l 117 971 l 11 971 l 11 728 z "},"Ή":{"ha":488,"x_min":0,"x_max":0,"o":"m 465 0 l 465 922 l 324 922 l 324 556 l 261 556 l 261 922 l 119 922 l 119 0 l 261 0 l 261 429 l 324 429 l 324 0 z m 93 728 l 117 971 l 11 971 l 11 728 z "},"Ί":{"ha":283,"x_min":0,"x_max":0,"o":"m 261 0 l 261 922 l 119 922 l 119 0 z m 93 728 l 117 971 l 11 971 l 11 728 z "},"Ό":{"ha":471,"x_min":0,"x_max":0,"o":"m 451 740 b 281 928 451 858 389 928 b 110 743 172 928 110 860 l 110 175 b 282 -7 110 58 171 -7 b 451 174 390 -7 451 53 z m 313 164 b 281 122 313 136 301 122 b 250 164 260 122 250 136 l 250 756 b 281 797 250 783 260 797 b 313 756 301 797 313 783 z m 93 728 l 117 971 l 11 971 l 11 728 z "},"Ύ":{"ha":499,"x_min":0,"x_max":0,"o":"m 379 0 l 379 378 l 494 922 l 357 922 l 313 621 l 307 621 l 256 922 l 117 922 l 238 379 l 238 0 z m 93 728 l 117 971 l 11 971 l 11 728 z "},"Ώ":{"ha":500,"x_min":0,"x_max":0,"o":"m 489 0 l 489 121 l 415 121 l 415 126 b 478 257 457 160 478 203 l 478 768 b 297 928 478 872 410 928 b 117 768 185 928 117 872 l 117 257 b 179 126 117 203 138 160 l 179 121 l 106 121 l 106 0 l 281 0 l 281 115 b 261 256 267 131 261 178 l 261 751 b 297 797 261 782 274 797 b 333 751 321 797 333 782 l 333 256 b 314 115 333 178 328 131 l 314 0 z m 93 728 l 117 971 l 11 971 l 11 728 z "},"ΐ":{"ha":358,"x_min":0,"x_max":0,"o":"m 275 0 l 275 119 l 258 119 b 242 143 246 119 242 128 l 242 683 l 107 683 l 107 143 b 257 0 107 47 157 0 z m 215 728 l 239 971 l 133 971 l 133 728 z m 118 754 l 118 878 l -18 878 l -18 754 z m 375 754 l 375 878 l 239 878 l 239 754 z "},"Γ":{"ha":308,"x_min":0,"x_max":0,"o":"m 163 0 l 163 793 l 296 793 l 296 922 l 21 922 l 21 0 z "},"Δ":{"ha":388,"x_min":0,"x_max":0,"o":"m 382 0 l 292 922 l 94 922 l 4 0 z m 229 129 l 154 129 l 189 688 l 194 688 z "},"Θ":{"ha":376,"x_min":0,"x_max":0,"o":"m 358 740 b 188 928 358 858 296 928 b 17 743 79 928 17 860 l 17 175 b 189 -7 17 58 76 -7 b 358 174 297 -7 358 51 z m 219 419 l 219 547 l 157 547 l 157 419 z m 229 164 b 188 122 229 136 217 122 b 146 164 160 122 146 136 l 146 756 b 188 797 146 783 160 797 b 229 756 215 797 229 783 z "},"Λ":{"ha":388,"x_min":0,"x_max":0,"o":"m 96 922 l 6 0 l 142 0 l 189 663 l 194 663 l 243 0 l 382 0 l 292 922 z "},"Ξ":{"ha":300,"x_min":0,"x_max":0,"o":"m 290 0 l 290 126 l 10 126 l 10 0 z m 267 419 l 267 547 l 33 547 l 33 419 z m 282 796 l 282 922 l 18 922 l 18 796 z "},"Π":{"ha":389,"x_min":0,"x_max":0,"o":"m 367 0 l 367 922 l 21 922 l 21 0 l 163 0 l 163 796 l 225 796 l 225 0 z "},"Σ":{"ha":300,"x_min":0,"x_max":0,"o":"m 289 0 l 289 126 l 144 126 l 233 467 l 146 796 l 282 796 l 282 922 l 11 922 l 11 800 l 103 465 l 13 126 l 13 0 z "},"Φ":{"ha":538,"x_min":0,"x_max":0,"o":"m 338 0 l 338 186 l 388 186 b 524 331 488 186 524 239 l 524 640 b 388 785 524 732 488 785 l 338 785 l 338 922 l 200 922 l 200 785 l 150 785 b 14 640 50 785 14 732 l 14 331 b 150 186 14 239 50 186 l 200 186 l 200 0 z m 400 353 b 365 307 400 324 388 307 l 338 307 l 338 663 l 365 663 b 400 617 388 663 400 647 z m 200 307 l 172 307 b 138 353 150 307 138 324 l 138 617 b 172 663 138 647 150 663 l 200 663 z "},"Ψ":{"ha":546,"x_min":0,"x_max":0,"o":"m 342 0 l 342 186 l 392 186 b 528 331 492 186 528 239 l 528 922 l 404 922 l 404 353 b 369 307 404 324 392 307 l 342 307 l 342 922 l 204 922 l 204 307 l 176 307 b 142 353 154 307 142 324 l 142 922 l 18 922 l 18 331 b 154 186 18 239 54 186 l 204 186 l 204 0 z "},"Ω":{"ha":404,"x_min":0,"x_max":0,"o":"m 393 0 l 393 121 l 319 121 l 319 126 b 382 257 361 160 382 203 l 382 768 b 201 928 382 872 314 928 b 21 768 89 928 21 872 l 21 257 b 83 126 21 203 42 160 l 83 121 l 10 121 l 10 0 l 185 0 l 185 115 b 165 256 171 131 165 178 l 165 751 b 201 797 165 782 178 797 b 238 751 225 797 238 782 l 238 256 b 218 115 238 178 232 131 l 218 0 z "},"ά":{"ha":396,"x_min":0,"x_max":0,"o":"m 386 0 l 386 119 l 369 119 b 353 143 358 119 353 128 l 353 683 l 231 683 l 229 624 l 224 624 b 132 689 201 669 174 689 b 24 567 65 689 24 642 l 24 172 b 129 -7 24 68 39 -7 b 232 58 178 -7 213 19 l 238 58 b 368 0 254 17 292 0 z m 160 531 b 192 572 160 558 171 572 b 222 531 208 572 219 564 l 222 154 b 192 110 219 124 213 110 b 160 151 171 110 160 124 z m 226 728 l 250 971 l 144 971 l 144 728 z "},"έ":{"ha":367,"x_min":0,"x_max":0,"o":"m 221 728 l 244 971 l 139 971 l 139 728 z m 342 240 l 214 240 l 214 150 b 183 108 214 122 204 108 b 153 150 163 108 153 122 l 153 281 b 190 317 153 306 165 317 l 235 317 l 235 403 l 188 403 b 154 436 167 403 154 414 l 154 532 b 185 574 154 561 164 574 b 215 539 204 574 215 563 l 215 451 l 342 451 l 342 550 b 183 689 342 638 286 689 b 32 558 85 689 32 643 l 32 449 b 100 367 32 403 54 374 l 100 361 b 21 264 56 354 21 335 l 21 133 b 185 -7 21 49 69 -7 b 342 128 288 -7 342 38 z "},"ή":{"ha":379,"x_min":0,"x_max":0,"o":"m 356 -324 l 356 565 b 251 689 356 643 313 689 b 158 624 213 689 181 671 l 153 624 l 150 683 l 24 683 l 24 0 l 158 0 l 158 542 b 192 572 164 563 175 572 b 219 538 210 572 219 560 l 219 -324 z m 226 728 l 250 971 l 144 971 l 144 728 z "},"ί":{"ha":201,"x_min":0,"x_max":0,"o":"m 192 0 l 192 119 l 175 119 b 158 143 163 119 158 128 l 158 683 l 24 683 l 24 143 b 174 0 24 47 74 0 z m 135 728 l 158 971 l 53 971 l 53 728 z "},"ΰ":{"ha":368,"x_min":0,"x_max":0,"o":"m 221 728 l 244 971 l 139 971 l 139 728 z m 217 156 b 186 114 217 128 206 114 b 154 156 167 114 154 128 l 154 683 l 24 683 l 24 156 b 183 -7 24 44 74 -7 b 344 156 294 -7 344 44 l 344 683 l 217 683 z m 124 754 l 124 878 l -12 878 l -12 754 z m 381 754 l 381 878 l 244 878 l 244 754 z "},"α":{"ha":396,"x_min":0,"x_max":0,"o":"m 386 0 l 386 119 l 369 119 b 353 143 358 119 353 128 l 353 683 l 231 683 l 229 624 l 224 624 b 132 689 201 669 174 689 b 24 567 65 689 24 642 l 24 172 b 129 -7 24 68 39 -7 b 232 58 178 -7 213 19 l 238 58 b 368 0 254 17 292 0 z m 160 531 b 192 572 160 558 171 572 b 222 531 208 572 219 564 l 222 154 b 192 110 219 124 213 110 b 160 151 171 110 160 124 z "},"β":{"ha":378,"x_min":0,"x_max":0,"o":"m 157 -324 l 157 3 b 210 -7 169 -4 188 -7 b 354 156 292 -7 354 29 l 354 392 b 278 513 354 457 329 497 l 278 518 b 347 608 324 532 347 563 l 347 808 b 189 939 347 907 300 939 b 24 807 67 939 24 901 l 24 -324 z m 219 150 b 182 110 219 124 207 110 b 157 121 174 110 165 114 l 157 767 b 188 818 157 800 158 818 b 219 767 217 818 219 799 l 219 596 b 188 561 219 572 208 561 l 172 561 l 172 457 l 188 457 b 219 414 208 458 219 443 z "},"δ":{"ha":372,"x_min":0,"x_max":0,"o":"m 24 461 l 24 156 b 186 -7 24 43 75 -7 b 349 156 297 -7 349 43 l 349 439 b 306 557 349 496 333 532 b 208 624 289 572 251 596 b 175 671 188 636 175 644 l 175 788 b 225 825 175 815 188 825 b 308 813 249 825 282 821 l 308 933 b 219 939 279 938 240 939 b 46 788 108 939 46 900 l 46 665 b 78 576 46 618 58 596 b 24 461 47 553 24 514 z m 217 156 b 186 114 217 128 207 114 b 154 156 165 114 154 128 l 154 460 b 165 511 154 482 158 499 b 217 446 207 481 217 467 z "},"ε":{"ha":367,"x_min":0,"x_max":0,"o":"m 342 240 l 214 240 l 214 150 b 183 108 214 122 204 108 b 153 150 163 108 153 122 l 153 281 b 190 317 153 306 165 317 l 235 317 l 235 403 l 188 403 b 154 436 167 403 154 414 l 154 532 b 185 574 154 561 164 574 b 215 539 204 574 215 563 l 215 451 l 342 451 l 342 550 b 183 689 342 638 286 689 b 32 558 85 689 32 643 l 32 449 b 100 367 32 403 54 374 l 100 361 b 21 264 56 354 21 335 l 21 133 b 185 -7 21 49 69 -7 b 342 128 288 -7 342 38 z "},"ζ":{"ha":336,"x_min":0,"x_max":0,"o":"m 313 -254 l 313 24 b 229 119 313 88 285 119 l 176 119 b 158 139 164 119 158 125 l 158 374 b 174 464 158 413 163 436 l 324 813 l 324 933 l 36 933 l 36 813 l 192 813 l 58 513 b 24 356 33 457 24 422 l 24 104 b 122 0 24 35 57 0 l 158 0 b 176 -21 171 0 176 -7 l 176 -254 z "},"η":{"ha":379,"x_min":0,"x_max":0,"o":"m 356 -324 l 356 565 b 251 689 356 643 313 689 b 158 624 213 689 181 671 l 153 624 l 150 683 l 24 683 l 24 0 l 158 0 l 158 542 b 192 572 164 563 175 572 b 219 538 210 572 219 560 l 219 -324 z "},"θ":{"ha":372,"x_min":0,"x_max":0,"o":"m 24 156 b 186 -7 24 44 75 -7 b 349 156 296 -7 349 44 l 349 771 b 186 933 349 882 296 933 b 24 771 75 933 24 882 z m 217 156 b 186 114 217 128 206 114 b 154 156 167 114 154 128 l 154 432 l 217 432 z m 217 532 l 154 532 l 154 771 b 186 813 154 799 167 813 b 217 771 206 813 217 799 z "},"ι":{"ha":201,"x_min":0,"x_max":0,"o":"m 192 0 l 192 119 l 175 119 b 158 143 163 119 158 128 l 158 683 l 24 683 l 24 143 b 174 0 24 47 74 0 z "},"κ":{"ha":375,"x_min":0,"x_max":0,"o":"m 371 0 l 285 404 l 372 683 l 228 683 b 164 443 172 488 167 463 l 158 443 l 158 683 l 24 683 l 24 0 l 158 0 l 158 175 l 181 244 l 186 244 l 229 0 z "},"λ":{"ha":379,"x_min":0,"x_max":0,"o":"m 368 118 l 356 118 b 338 139 344 118 339 125 l 250 833 b 142 933 240 913 208 933 l 74 933 l 74 814 l 99 814 b 121 792 113 814 119 808 l 131 706 l 3 0 l 136 0 l 183 357 l 189 357 l 225 79 b 319 0 232 29 251 0 l 368 0 z "},"μ":{"ha":378,"x_min":0,"x_max":0,"o":"m 158 -324 l 143 -7 b 219 58 168 -7 196 8 l 225 58 l 226 0 l 354 0 l 354 683 l 218 683 l 218 142 b 188 110 213 121 204 110 b 160 144 168 110 160 122 l 160 683 l 24 683 l 24 -324 z "},"ξ":{"ha":358,"x_min":0,"x_max":0,"o":"m 333 -254 l 333 24 b 251 119 333 88 307 119 l 176 119 b 158 139 164 119 158 125 l 158 451 b 196 488 158 475 171 488 l 235 488 l 235 574 l 190 574 b 157 607 168 574 157 585 l 157 782 b 188 824 157 810 167 824 b 217 789 207 824 217 813 l 217 707 l 344 707 l 344 800 b 185 939 344 888 289 939 b 33 808 86 939 33 893 l 33 619 b 103 538 33 574 56 546 l 103 532 b 24 435 58 525 24 504 l 24 104 b 122 0 24 35 57 0 l 181 0 b 199 -21 192 0 199 -7 l 199 -254 z "},"π":{"ha":467,"x_min":0,"x_max":0,"o":"m 432 0 l 432 119 l 415 119 b 399 143 404 119 399 128 l 399 563 l 456 563 l 456 683 l 10 683 l 10 563 l 67 563 l 67 0 l 201 0 l 201 563 l 264 563 l 264 143 b 414 0 264 47 314 0 z "},"ρ":{"ha":372,"x_min":0,"x_max":0,"o":"m 217 151 b 185 110 217 124 206 110 b 154 142 167 110 157 121 l 154 526 b 185 568 154 554 165 568 b 217 526 204 568 217 554 z m 157 -324 l 157 43 l 163 43 b 246 -7 181 8 210 -7 b 349 117 310 -7 349 42 l 349 526 b 186 689 349 638 296 689 b 24 526 75 689 24 638 l 24 -324 z "},"ς":{"ha":368,"x_min":0,"x_max":0,"o":"m 344 -254 l 344 24 b 263 119 344 88 317 119 l 174 119 b 154 139 161 119 154 125 l 154 526 b 186 568 154 554 165 568 b 217 526 207 568 217 554 l 217 439 l 344 439 l 344 526 b 186 689 344 636 296 689 b 24 526 75 689 24 636 l 24 104 b 122 0 24 35 57 0 l 192 0 b 208 -21 203 0 208 -7 l 208 -254 z "},"σ":{"ha":394,"x_min":0,"x_max":0,"o":"m 383 683 l 186 683 b 24 521 75 683 24 632 l 24 156 b 186 -7 24 44 75 -7 b 343 156 296 -7 343 44 l 343 515 b 339 563 343 532 342 549 l 383 563 z m 217 515 l 217 156 b 186 114 217 128 206 114 b 154 156 164 114 154 128 l 154 521 b 194 564 154 551 165 564 l 211 564 b 217 515 215 550 217 535 z "},"τ":{"ha":294,"x_min":0,"x_max":0,"o":"m 247 0 l 247 119 l 231 119 b 214 143 219 119 214 128 l 214 563 l 283 563 l 283 683 l 10 683 l 10 563 l 79 563 l 79 143 b 229 0 79 47 129 0 z "},"υ":{"ha":368,"x_min":0,"x_max":0,"o":"m 217 156 b 186 114 217 128 206 114 b 154 156 167 114 154 128 l 154 683 l 24 683 l 24 156 b 183 -7 24 44 74 -7 b 344 156 294 -7 344 44 l 344 683 l 217 683 z "},"φ":{"ha":533,"x_min":0,"x_max":0,"o":"m 331 -324 l 331 0 l 403 0 b 510 122 467 0 510 47 l 510 560 b 403 683 510 635 467 683 l 331 683 l 331 933 l 203 933 l 203 683 l 131 683 b 24 560 67 683 24 635 l 24 122 b 131 0 24 47 67 0 l 203 0 l 203 -324 z m 203 110 l 179 110 b 149 151 158 110 149 124 l 149 531 b 179 572 149 558 158 572 l 203 572 z m 331 572 l 354 572 b 385 531 375 572 385 558 l 385 151 b 354 110 385 124 375 110 l 331 110 z "},"χ":{"ha":371,"x_min":0,"x_max":0,"o":"m 368 -324 l 271 208 l 364 683 l 229 683 l 192 379 l 186 379 l 146 683 l 7 683 l 100 186 l 3 -324 l 142 -324 l 181 4 l 186 4 l 226 -324 z "},"ψ":{"ha":533,"x_min":0,"x_max":0,"o":"m 331 -324 l 331 0 l 403 0 b 510 122 467 0 510 47 l 510 683 l 385 683 l 385 151 b 354 110 385 124 375 110 l 331 110 l 331 933 l 203 933 l 203 110 l 179 110 b 149 151 158 110 149 124 l 149 683 l 24 683 l 24 122 b 131 0 24 47 67 0 l 203 0 l 203 -324 z "},"ω":{"ha":550,"x_min":0,"x_max":0,"o":"m 394 157 b 363 114 394 129 383 114 b 332 157 342 114 332 129 l 332 485 l 217 485 l 217 157 b 186 114 217 129 207 114 b 154 157 165 114 154 129 l 154 558 b 179 683 154 608 163 650 l 50 683 b 24 558 33 658 24 617 l 24 160 b 150 -7 24 43 65 -7 b 272 49 197 -7 239 8 l 278 49 b 400 -7 311 8 351 -7 b 525 160 483 -7 525 43 l 525 558 b 499 683 525 617 517 658 l 369 683 b 394 558 386 650 394 608 z "},"ϊ":{"ha":271,"x_min":0,"x_max":0,"o":"m 233 0 l 233 119 l 217 119 b 200 143 204 119 200 128 l 200 683 l 65 683 l 65 143 b 215 0 65 47 115 0 z m 115 754 l 115 878 l -10 878 l -10 754 z m 279 754 l 279 878 l 154 878 l 154 754 z "},"ϋ":{"ha":368,"x_min":0,"x_max":0,"o":"m 217 156 b 186 114 217 128 206 114 b 154 156 167 114 154 128 l 154 683 l 24 683 l 24 156 b 183 -7 24 44 74 -7 b 344 156 294 -7 344 44 l 344 683 l 217 683 z m 167 754 l 167 878 l 42 878 l 42 754 z m 331 754 l 331 878 l 206 878 l 206 754 z "},"ό":{"ha":372,"x_min":0,"x_max":0,"o":"m 349 526 b 186 689 349 638 296 689 b 24 526 75 689 24 638 l 24 156 b 186 -7 24 44 75 -7 b 349 156 296 -7 349 44 z m 217 156 b 186 114 217 128 206 114 b 154 156 167 114 154 128 l 154 526 b 186 568 154 554 167 568 b 217 526 206 568 217 554 z m 222 728 l 246 971 l 140 971 l 140 728 z "},"ύ":{"ha":368,"x_min":0,"x_max":0,"o":"m 218 728 l 242 971 l 136 971 l 136 728 z m 217 156 b 186 114 217 128 206 114 b 154 156 167 114 154 128 l 154 683 l 24 683 l 24 156 b 183 -7 24 44 74 -7 b 344 156 294 -7 344 44 l 344 683 l 217 683 z "},"ώ":{"ha":550,"x_min":0,"x_max":0,"o":"m 394 157 b 363 114 394 129 383 114 b 332 157 342 114 332 129 l 332 485 l 217 485 l 217 157 b 186 114 217 129 207 114 b 154 157 165 114 154 129 l 154 558 b 179 683 154 608 163 650 l 50 683 b 24 558 33 658 24 617 l 24 160 b 150 -7 24 43 65 -7 b 272 49 197 -7 239 8 l 278 49 b 400 -7 311 8 351 -7 b 525 160 483 -7 525 43 l 525 558 b 499 683 525 617 517 658 l 369 683 b 394 558 386 650 394 608 z m 303 728 l 326 971 l 221 971 l 221 728 z "},"Ђ":{"ha":456,"x_min":0,"x_max":0,"o":"m 86 0 l 228 0 l 228 449 b 260 490 232 479 240 490 b 290 461 279 490 290 481 l 290 -161 b 258 -203 290 -189 279 -203 b 228 -161 238 -203 228 -189 l 228 -56 l 86 -56 l 86 -161 b 260 -324 86 -271 150 -324 b 433 -161 371 -324 433 -271 l 433 503 b 333 617 433 579 403 617 b 233 571 290 617 265 603 l 228 571 l 228 796 l 308 796 l 308 922 l 13 922 l 13 796 l 86 796 z "},"Ѓ":{"ha":308,"x_min":0,"x_max":0,"o":"m 288 1086 l 219 1167 l 69 999 l 121 946 z m 163 0 l 163 793 l 296 793 l 296 922 l 21 922 l 21 0 z "},"Є":{"ha":378,"x_min":0,"x_max":0,"o":"m 356 268 l 224 268 l 224 164 b 192 122 224 136 213 122 b 161 164 171 122 161 136 l 161 428 l 244 428 l 244 543 l 161 543 l 161 756 b 192 797 161 783 171 797 b 224 756 213 797 224 783 l 224 661 l 356 661 l 356 740 b 188 928 356 858 297 928 b 21 743 81 928 21 860 l 21 175 b 190 -7 21 58 79 -7 b 356 174 299 -7 356 53 z "},"Љ":{"ha":621,"x_min":0,"x_max":0,"o":"m 411 922 l 104 922 l 93 533 b 65 167 86 328 79 215 b 21 129 57 135 43 129 l 13 129 l 13 0 l 31 0 b 158 79 93 0 133 15 b 208 532 185 144 200 288 l 217 796 l 269 796 l 269 0 l 469 0 b 606 144 572 0 606 60 l 606 424 b 469 556 606 508 571 556 l 411 556 z m 411 125 l 411 433 l 439 433 b 474 390 467 433 474 424 l 474 178 b 439 125 474 140 465 125 z "},"Њ":{"ha":576,"x_min":0,"x_max":0,"o":"m 367 922 l 225 922 l 225 556 l 163 556 l 163 922 l 21 922 l 21 0 l 163 0 l 163 433 l 225 433 l 225 0 l 425 0 b 563 144 529 0 563 60 l 563 424 b 425 556 563 508 528 556 l 367 556 z m 367 125 l 367 433 l 396 433 b 429 390 422 433 429 424 l 429 178 b 396 125 429 140 422 125 z "},"Ћ":{"ha":454,"x_min":0,"x_max":0,"o":"m 86 0 l 228 0 l 228 461 b 261 490 236 483 246 490 b 290 461 279 490 290 481 l 290 0 l 433 0 l 433 503 b 333 617 433 579 403 617 b 233 571 290 617 265 603 l 228 571 l 228 796 l 308 796 l 308 922 l 13 922 l 13 796 l 86 796 z "},"Ќ":{"ha":383,"x_min":0,"x_max":0,"o":"m 378 0 l 292 574 l 379 922 l 238 922 b 171 604 188 692 176 646 l 165 604 l 165 922 l 21 922 l 21 0 l 165 0 l 165 258 l 188 349 l 192 349 l 235 0 z m 313 1086 l 244 1167 l 94 999 l 146 946 z "},"Ѝ":{"ha":408,"x_min":0,"x_max":0,"o":"m 243 946 l 294 999 l 146 1167 l 76 1086 z m 388 0 l 388 922 l 238 922 l 164 444 l 158 444 l 158 922 l 21 922 l 21 0 l 161 0 l 246 542 l 251 542 l 251 0 z "},"Ў":{"ha":383,"x_min":0,"x_max":0,"o":"m 190 946 b 340 1124 278 946 340 1007 l 242 1124 b 190 1029 240 1058 224 1029 b 138 1124 156 1029 139 1058 l 40 1124 b 190 946 40 1008 103 946 z m 221 164 b 190 122 221 136 211 122 b 158 164 169 122 158 136 l 158 307 l 21 307 l 21 174 b 192 -7 21 51 83 -7 b 361 175 304 -7 361 58 l 361 922 l 221 922 l 221 508 b 188 479 217 488 204 479 b 158 521 168 479 158 492 l 158 922 l 21 922 l 21 529 b 128 350 21 408 61 350 b 215 393 156 350 199 360 l 221 393 z "},"Џ":{"ha":389,"x_min":0,"x_max":0,"o":"m 246 -208 l 246 0 l 367 0 l 367 922 l 225 922 l 225 129 l 163 129 l 163 922 l 21 922 l 21 0 l 142 0 l 142 -208 z "},"Б":{"ha":372,"x_min":0,"x_max":0,"o":"m 296 793 l 296 922 l 21 922 l 21 0 l 221 0 b 358 144 325 0 358 60 l 358 344 b 221 556 358 472 351 556 l 163 556 l 163 793 z m 163 125 l 163 433 l 192 433 b 225 390 218 433 225 424 l 225 178 b 192 125 225 140 218 125 z "},"Д":{"ha":467,"x_min":0,"x_max":0,"o":"m 457 -208 l 457 129 l 413 129 l 413 922 l 107 922 l 94 532 b 47 135 85 232 75 154 b 24 129 40 129 32 129 l 10 129 l 10 -208 l 114 -208 l 114 0 l 353 0 l 353 -208 z m 271 129 l 176 129 b 210 531 190 178 200 263 l 219 796 l 271 796 z "},"Ж":{"ha":613,"x_min":0,"x_max":0,"o":"m 150 0 l 232 375 l 238 375 l 238 0 l 375 0 l 375 375 l 381 375 l 463 0 l 610 0 l 485 469 l 604 922 l 460 922 l 381 589 l 375 589 l 375 922 l 238 922 l 238 589 l 232 589 l 153 922 l 8 922 l 126 469 l 3 0 z "},"И":{"ha":408,"x_min":0,"x_max":0,"o":"m 388 0 l 388 922 l 238 922 l 164 444 l 158 444 l 158 922 l 21 922 l 21 0 l 161 0 l 246 542 l 251 542 l 251 0 z "},"Й":{"ha":408,"x_min":0,"x_max":0,"o":"m 207 946 b 357 1124 294 946 357 1007 l 258 1124 b 207 1029 257 1058 240 1029 b 154 1124 172 1029 156 1058 l 57 1124 b 207 946 57 1008 119 946 z m 388 0 l 388 922 l 238 922 l 164 444 l 158 444 l 158 922 l 21 922 l 21 0 l 161 0 l 246 542 l 251 542 l 251 0 z "},"Л":{"ha":433,"x_min":0,"x_max":0,"o":"m 411 0 l 411 922 l 104 922 l 93 533 b 65 167 86 328 79 215 b 21 129 57 135 43 129 l 13 129 l 13 0 l 31 0 b 158 79 93 0 133 15 b 208 532 185 144 200 288 l 217 796 l 269 796 l 269 0 z "},"У":{"ha":383,"x_min":0,"x_max":0,"o":"m 221 164 b 190 122 221 136 211 122 b 158 164 169 122 158 136 l 158 307 l 21 307 l 21 174 b 192 -7 21 51 83 -7 b 361 175 304 -7 361 58 l 361 922 l 221 922 l 221 508 b 188 479 217 488 204 479 b 158 521 168 479 158 492 l 158 922 l 21 922 l 21 529 b 128 350 21 408 61 350 b 215 393 156 350 199 360 l 221 393 z "},"Ц":{"ha":421,"x_min":0,"x_max":0,"o":"m 411 -208 l 411 129 l 367 129 l 367 922 l 225 922 l 225 129 l 163 129 l 163 922 l 21 922 l 21 0 l 307 0 l 307 -208 z "},"Ч":{"ha":383,"x_min":0,"x_max":0,"o":"m 361 0 l 361 922 l 221 922 l 221 508 b 192 501 217 504 203 501 b 158 543 169 501 158 513 l 158 922 l 21 922 l 21 535 b 142 372 21 417 56 372 b 217 385 169 372 192 376 l 221 385 l 221 0 z "},"Ш":{"ha":583,"x_min":0,"x_max":0,"o":"m 561 0 l 561 922 l 419 922 l 419 129 l 357 129 l 357 922 l 225 922 l 225 129 l 163 129 l 163 922 l 21 922 l 21 0 z "},"Щ":{"ha":615,"x_min":0,"x_max":0,"o":"m 604 -208 l 604 129 l 561 129 l 561 922 l 419 922 l 419 129 l 357 129 l 357 922 l 225 922 l 225 129 l 163 129 l 163 922 l 21 922 l 21 0 l 500 0 l 500 -208 z "},"Ъ":{"ha":496,"x_min":0,"x_max":0,"o":"m 144 0 l 344 0 b 482 144 449 0 482 60 l 482 383 b 344 556 482 494 458 556 l 286 556 l 286 922 l 13 922 l 13 793 l 144 793 z m 286 125 l 286 433 l 315 433 b 349 393 343 433 349 422 l 349 172 b 315 125 349 133 339 125 z "},"Ы":{"ha":565,"x_min":0,"x_max":0,"o":"m 542 0 l 542 922 l 400 922 l 400 0 z m 163 922 l 21 922 l 21 0 l 221 0 b 358 144 325 0 358 60 l 358 424 b 221 556 358 508 324 556 l 163 556 z m 163 125 l 163 433 l 192 433 b 225 390 218 433 225 424 l 225 178 b 192 125 225 140 218 125 z "},"Ь":{"ha":372,"x_min":0,"x_max":0,"o":"m 163 922 l 21 922 l 21 0 l 221 0 b 358 144 325 0 358 60 l 358 424 b 221 556 358 508 324 556 l 163 556 z m 163 125 l 163 433 l 192 433 b 225 390 218 433 225 424 l 225 178 b 192 125 225 140 218 125 z "},"Э":{"ha":378,"x_min":0,"x_max":0,"o":"m 21 174 b 188 -7 21 53 79 -7 b 356 175 299 -7 356 58 l 356 743 b 189 928 356 860 296 928 b 21 740 79 928 21 858 l 21 661 l 154 661 l 154 756 b 185 797 154 783 164 797 b 217 756 206 797 217 783 l 217 543 l 133 543 l 133 428 l 217 428 l 217 164 b 185 122 217 136 206 122 b 154 164 164 122 154 136 l 154 268 l 21 268 z "},"Ю":{"ha":589,"x_min":0,"x_max":0,"o":"m 163 0 l 163 425 l 225 425 l 225 175 b 397 -7 225 58 286 -7 b 567 174 506 -7 567 53 l 567 740 b 396 928 567 858 504 928 b 225 743 288 928 225 860 l 225 551 l 163 551 l 163 922 l 21 922 l 21 0 z m 428 164 b 396 122 428 136 417 122 b 365 164 375 122 365 136 l 365 756 b 396 797 365 783 375 797 b 428 756 417 797 428 783 z "},"Я":{"ha":372,"x_min":0,"x_max":0,"o":"m 144 0 l 192 379 l 208 379 l 208 0 l 350 0 l 350 922 l 150 922 b 14 743 35 922 14 858 l 14 556 b 61 404 14 486 24 433 l 3 0 z m 146 540 l 146 743 b 181 796 146 779 158 796 l 208 796 l 208 494 l 181 494 b 146 540 158 494 146 511 z "},"б":{"ha":378,"x_min":0,"x_max":0,"o":"m 217 151 b 186 110 217 124 207 110 b 154 151 165 110 154 124 l 154 542 b 186 572 158 563 168 572 b 217 531 207 572 217 558 z m 354 567 b 246 689 354 642 313 689 b 156 639 206 689 176 672 l 150 639 l 150 736 b 196 813 150 789 167 813 l 246 813 b 333 986 304 813 333 871 l 254 986 b 196 933 249 950 229 933 l 142 933 b 24 736 47 933 24 872 l 24 156 b 189 -7 24 43 75 -7 b 354 117 300 -7 354 42 z "},"в":{"ha":371,"x_min":0,"x_max":0,"o":"m 342 460 l 342 563 b 192 683 342 646 290 683 l 24 683 l 24 0 l 189 0 b 353 140 303 0 353 46 l 353 264 b 274 361 353 318 328 353 l 274 367 b 342 460 321 375 342 407 z m 183 317 b 221 281 208 317 221 306 l 221 150 b 192 108 221 122 211 108 l 158 108 l 158 317 z m 219 431 b 186 403 219 408 208 403 l 158 403 l 158 569 l 189 569 b 219 540 208 569 219 560 z "},"г":{"ha":250,"x_min":0,"x_max":0,"o":"m 158 0 l 158 563 l 239 563 l 239 683 l 24 683 l 24 0 z "},"д":{"ha":440,"x_min":0,"x_max":0,"o":"m 429 -208 l 429 119 l 386 119 l 386 683 l 99 683 l 88 394 b 25 119 78 146 63 119 l 10 119 l 10 -208 l 114 -208 l 114 0 l 325 0 l 325 -208 z m 250 119 l 161 119 b 190 394 174 160 179 215 l 200 563 l 250 563 z "},"ж":{"ha":579,"x_min":0,"x_max":0,"o":"m 575 0 l 461 347 l 569 683 l 433 683 l 360 433 l 354 433 l 354 683 l 224 683 l 224 433 l 218 433 l 146 683 l 8 683 l 115 347 l 3 0 l 142 0 l 218 281 l 224 281 l 224 0 l 354 0 l 354 281 l 360 281 l 436 0 z "},"з":{"ha":367,"x_min":0,"x_max":0,"o":"m 344 264 b 265 361 344 335 310 354 l 265 367 b 333 449 313 374 333 403 l 333 558 b 183 689 333 643 281 689 b 24 550 79 689 24 638 l 24 476 l 150 476 l 150 539 b 181 574 150 563 161 574 b 211 532 201 574 211 561 l 211 436 b 178 403 211 414 200 403 l 131 403 l 131 317 l 175 317 b 213 281 200 317 213 306 l 213 150 b 183 108 213 122 203 108 b 151 150 163 108 151 122 l 151 240 l 24 240 l 24 128 b 181 -7 24 38 78 -7 b 344 133 296 -7 344 49 z "},"и":{"ha":393,"x_min":0,"x_max":0,"o":"m 369 0 l 369 683 l 231 683 l 163 329 l 157 329 l 157 683 l 24 683 l 24 0 l 156 0 l 229 363 l 235 363 l 235 0 z "},"й":{"ha":393,"x_min":0,"x_max":0,"o":"m 196 717 b 346 894 283 717 346 778 l 247 894 b 196 800 246 829 229 800 b 143 894 161 800 144 829 l 46 894 b 196 717 46 779 108 717 z m 369 0 l 369 683 l 231 683 l 163 329 l 157 329 l 157 683 l 24 683 l 24 0 l 156 0 l 229 363 l 235 363 l 235 0 z "},"л":{"ha":404,"x_min":0,"x_max":0,"o":"m 379 0 l 379 683 l 93 683 l 81 394 b 50 136 74 222 65 161 b 18 119 43 122 32 119 l 10 119 l 10 0 l 26 0 b 131 44 81 0 111 11 b 183 394 156 85 169 163 l 194 563 l 244 563 l 244 0 z "},"м":{"ha":521,"x_min":0,"x_max":0,"o":"m 496 0 l 496 683 l 306 683 l 265 258 l 260 258 l 218 683 l 24 683 l 24 0 l 139 0 l 139 304 b 135 457 139 390 138 424 l 140 457 l 204 0 l 315 0 l 379 457 l 385 457 b 379 304 382 424 379 390 l 379 0 z "},"н":{"ha":381,"x_min":0,"x_max":0,"o":"m 357 0 l 357 683 l 221 683 l 221 413 l 158 413 l 158 683 l 24 683 l 24 0 l 158 0 l 158 292 l 221 292 l 221 0 z "},"п":{"ha":381,"x_min":0,"x_max":0,"o":"m 357 0 l 357 683 l 24 683 l 24 0 l 158 0 l 158 563 l 221 563 l 221 0 z "},"т":{"ha":317,"x_min":0,"x_max":0,"o":"m 225 0 l 225 563 l 304 563 l 304 683 l 13 683 l 13 563 l 90 563 l 90 0 z "},"ц":{"ha":411,"x_min":0,"x_max":0,"o":"m 400 -194 l 400 119 l 357 119 l 357 683 l 221 683 l 221 119 l 158 119 l 158 683 l 24 683 l 24 0 l 296 0 l 296 -194 z "},"ч":{"ha":379,"x_min":0,"x_max":0,"o":"m 354 0 l 354 683 l 219 683 l 219 381 b 192 374 213 375 203 374 b 157 404 168 374 157 382 l 157 683 l 21 683 l 21 369 b 133 257 21 290 57 257 b 214 278 165 257 192 264 l 219 278 l 219 0 z "},"ш":{"ha":563,"x_min":0,"x_max":0,"o":"m 539 0 l 539 683 l 404 683 l 404 119 l 342 119 l 342 683 l 221 683 l 221 119 l 158 119 l 158 683 l 24 683 l 24 0 z "},"щ":{"ha":593,"x_min":0,"x_max":0,"o":"m 583 -194 l 583 119 l 539 119 l 539 683 l 404 683 l 404 119 l 342 119 l 342 683 l 221 683 l 221 119 l 158 119 l 158 683 l 24 683 l 24 0 l 479 0 l 479 -194 z "},"ъ":{"ha":432,"x_min":0,"x_max":0,"o":"m 228 683 l 11 683 l 11 563 l 92 563 l 92 0 l 283 0 b 415 107 379 0 415 39 l 415 324 b 283 442 415 401 379 442 l 228 442 z m 228 115 l 228 329 l 254 329 b 288 294 278 329 288 317 l 288 154 b 254 115 288 128 283 115 z "},"ы":{"ha":543,"x_min":0,"x_max":0,"o":"m 158 683 l 24 683 l 24 0 l 215 0 b 346 107 311 0 346 39 l 346 322 b 215 442 346 400 311 442 l 158 442 z m 158 115 l 158 329 l 186 329 b 219 294 208 329 219 317 l 219 150 b 186 115 219 126 208 115 z m 518 0 l 518 683 l 383 683 l 383 0 z "},"ь":{"ha":363,"x_min":0,"x_max":0,"o":"m 158 683 l 24 683 l 24 0 l 215 0 b 346 107 311 0 346 39 l 346 322 b 215 442 346 400 311 442 l 158 442 z m 158 115 l 158 329 l 186 329 b 219 294 208 329 219 317 l 219 150 b 186 115 219 126 208 115 z "},"э":{"ha":368,"x_min":0,"x_max":0,"o":"m 214 311 l 214 150 b 183 108 214 122 203 108 b 151 150 163 108 151 122 l 151 240 l 24 240 l 24 156 b 183 -7 24 47 71 -7 b 344 156 293 -7 344 46 l 344 526 b 182 689 344 636 293 689 b 26 549 72 689 26 636 l 26 476 l 153 476 l 153 544 b 182 574 153 560 161 574 b 214 532 203 574 214 560 l 214 406 l 133 406 l 133 311 z "},"ю":{"ha":563,"x_min":0,"x_max":0,"o":"m 538 526 b 375 689 538 639 488 689 b 217 526 264 689 217 639 l 217 414 l 154 414 l 154 683 l 24 683 l 24 0 l 154 0 l 154 293 l 217 293 l 217 156 b 375 -7 217 43 264 -7 b 538 156 488 -7 538 43 z m 407 156 b 375 114 407 128 396 114 b 344 156 354 114 344 128 l 344 526 b 375 568 344 554 354 568 b 407 526 396 568 407 554 z "},"я":{"ha":371,"x_min":0,"x_max":0,"o":"m 140 0 l 196 251 l 211 251 l 211 0 l 346 0 l 346 683 l 154 683 b 24 575 58 683 24 643 l 24 383 b 75 264 24 325 33 285 l 3 0 z m 150 392 l 150 522 b 183 567 150 553 154 567 l 211 567 l 211 358 l 183 358 b 150 392 161 358 150 368 z "},"ђ":{"ha":379,"x_min":0,"x_max":0,"o":"m 253 767 l 253 850 l 158 850 l 158 933 l 24 933 l 24 850 l -1 850 l -1 767 l 24 767 l 24 0 l 158 0 l 158 531 b 192 572 161 558 171 572 b 219 538 210 572 219 560 l 219 -161 b 188 -203 219 -189 208 -203 b 157 -161 167 -203 157 -189 l 157 -37 l 28 -37 l 28 -161 b 189 -324 28 -271 79 -324 b 356 -161 300 -324 356 -271 l 356 558 b 253 689 356 631 329 689 b 164 633 208 689 181 669 l 158 633 l 158 767 z "},"ѓ":{"ha":250,"x_min":0,"x_max":0,"o":"m 256 857 l 188 938 l 38 769 l 89 717 z m 158 0 l 158 563 l 239 563 l 239 683 l 24 683 l 24 0 z "},"є":{"ha":368,"x_min":0,"x_max":0,"o":"m 235 311 l 235 406 l 154 406 l 154 532 b 186 574 154 560 165 574 b 215 544 207 574 215 560 l 215 476 l 342 476 l 342 549 b 186 689 342 636 296 689 b 24 526 75 689 24 636 l 24 156 b 185 -7 24 46 75 -7 b 344 156 297 -7 344 47 l 344 240 l 217 240 l 217 150 b 185 108 217 122 206 108 b 154 150 165 108 154 122 l 154 311 z "},"љ":{"ha":583,"x_min":0,"x_max":0,"o":"m 379 683 l 93 683 l 81 394 b 50 136 74 222 65 161 b 18 119 43 122 32 119 l 10 119 l 10 0 l 26 0 b 131 44 81 0 111 11 b 183 394 156 85 169 163 l 194 563 l 244 563 l 244 0 l 436 0 b 567 107 532 0 567 39 l 567 322 b 436 442 567 400 532 442 l 379 442 z m 379 115 l 379 329 l 407 329 b 440 294 429 329 440 317 l 440 150 b 407 115 440 126 429 115 z "},"њ":{"ha":561,"x_min":0,"x_max":0,"o":"m 357 683 l 221 683 l 221 442 l 158 442 l 158 683 l 24 683 l 24 0 l 158 0 l 158 329 l 221 329 l 221 0 l 413 0 b 544 107 508 0 544 39 l 544 322 b 413 442 544 400 510 442 l 357 442 z m 357 115 l 357 329 l 383 329 b 417 294 407 329 417 317 l 417 150 b 383 115 417 126 407 115 z "},"ќ":{"ha":375,"x_min":0,"x_max":0,"o":"m 322 857 l 254 938 l 104 769 l 156 717 z m 371 0 l 285 404 l 372 683 l 228 683 b 164 443 172 488 167 463 l 158 443 l 158 683 l 24 683 l 24 0 l 158 0 l 158 175 l 181 244 l 186 244 l 229 0 z "},"ѝ":{"ha":393,"x_min":0,"x_max":0,"o":"m 233 717 l 285 769 l 136 938 l 67 857 z m 369 0 l 369 683 l 231 683 l 163 329 l 157 329 l 157 683 l 24 683 l 24 0 l 156 0 l 229 363 l 235 363 l 235 0 z "},"ў":{"ha":376,"x_min":0,"x_max":0,"o":"m 160 683 l 24 683 l 24 133 b 126 0 24 53 47 0 b 213 50 164 0 192 11 l 218 50 l 218 -161 b 188 -203 218 -189 208 -203 b 156 -161 167 -203 156 -189 l 156 -42 l 26 -42 l 26 -161 b 188 -324 26 -271 78 -324 b 353 -161 299 -324 353 -271 l 353 683 l 222 683 l 222 164 b 190 122 221 135 208 122 b 160 164 171 122 160 135 z m 192 717 b 342 894 279 717 342 778 l 243 894 b 192 800 242 829 225 800 b 139 894 157 800 140 829 l 42 894 b 192 717 42 779 104 717 z "},"џ":{"ha":381,"x_min":0,"x_max":0,"o":"m 242 -194 l 242 0 l 357 0 l 357 683 l 221 683 l 221 119 l 158 119 l 158 683 l 24 683 l 24 0 l 138 0 l 138 -194 z "},"Ґ":{"ha":307,"x_min":0,"x_max":0,"o":"m 163 0 l 163 793 l 296 793 l 296 1113 l 192 1113 l 192 922 l 21 922 l 21 0 z "},"ґ":{"ha":250,"x_min":0,"x_max":0,"o":"m 158 0 l 158 563 l 239 563 l 239 853 l 135 853 l 135 683 l 24 683 l 24 0 z "},"Ғ":{"ha":326,"x_min":0,"x_max":0,"o":"m 181 0 l 181 390 l 254 390 l 254 499 l 181 499 l 181 793 l 314 793 l 314 922 l 39 922 l 39 499 l 0 499 l 0 390 l 39 390 l 39 0 z "},"ғ":{"ha":265,"x_min":0,"x_max":0,"o":"m 174 0 l 174 265 l 254 265 l 254 349 l 174 349 l 174 563 l 254 563 l 254 683 l 38 683 l 38 349 l 0 349 l 0 265 l 38 265 l 38 0 z "},"Җ":{"ha":664,"x_min":0,"x_max":0,"o":"m 150 0 l 232 375 l 238 375 l 238 0 l 375 0 l 375 375 l 381 375 l 463 0 l 550 0 l 550 -178 l 654 -178 l 654 129 l 575 129 l 485 469 l 604 922 l 460 922 l 381 589 l 375 589 l 375 922 l 238 922 l 238 589 l 232 589 l 153 922 l 8 922 l 126 469 l 3 0 z "},"җ":{"ha":631,"x_min":0,"x_max":0,"o":"m 621 -178 l 621 129 l 532 129 l 461 347 l 569 683 l 433 683 l 360 433 l 354 433 l 354 683 l 224 683 l 224 433 l 218 433 l 146 683 l 8 683 l 115 347 l 3 0 l 142 0 l 218 281 l 224 281 l 224 0 l 354 0 l 354 281 l 360 281 l 436 0 l 517 0 l 517 -178 z "},"Ҙ":{"ha":371,"x_min":0,"x_max":0,"o":"m 100 -294 b 169 -308 118 -304 143 -308 b 272 -204 239 -308 272 -281 l 272 -162 b 217 -10 272 -103 256 -49 l 217 -4 b 357 175 308 6 357 68 l 357 371 b 275 488 357 444 321 479 l 275 493 b 346 604 324 501 346 543 l 346 771 b 186 928 346 847 299 928 b 21 740 82 928 21 860 l 21 661 l 154 661 l 154 756 b 185 797 154 783 164 797 b 217 756 206 797 217 783 l 217 589 b 182 543 217 558 204 543 l 133 543 l 133 428 l 176 428 b 217 381 203 428 217 413 l 217 164 b 185 122 217 136 206 122 b 154 164 164 122 154 136 l 154 268 l 21 268 l 21 174 b 139 -1 21 47 85 19 b 181 -122 179 -17 181 -76 l 181 -160 b 143 -190 181 -183 169 -190 b 100 -185 126 -190 110 -187 z "},"ҙ":{"ha":367,"x_min":0,"x_max":0,"o":"m 344 264 b 265 361 344 335 310 354 l 265 367 b 333 449 313 374 333 403 l 333 558 b 183 689 333 643 281 689 b 24 550 79 689 24 638 l 24 476 l 150 476 l 150 539 b 181 574 150 563 161 574 b 211 532 201 574 211 561 l 211 436 b 178 403 211 414 200 403 l 131 403 l 131 317 l 175 317 b 213 281 200 317 213 306 l 213 150 b 183 108 213 122 203 108 b 151 150 163 108 151 122 l 151 240 l 24 240 l 24 128 b 117 0 24 47 69 24 b 178 -122 140 -12 178 -35 l 178 -160 b 139 -190 178 -183 167 -190 b 96 -185 122 -190 106 -187 l 96 -294 b 167 -308 114 -304 139 -308 b 268 -204 235 -308 268 -281 l 268 -162 b 197 -14 268 -99 244 -47 l 197 -7 b 344 133 300 -1 344 53 z "},"Қ":{"ha":432,"x_min":0,"x_max":0,"o":"m 421 -178 l 421 129 l 358 129 l 292 574 l 379 922 l 238 922 b 171 604 188 692 176 646 l 165 604 l 165 922 l 21 922 l 21 0 l 165 0 l 165 258 l 188 349 l 192 349 l 235 0 l 317 0 l 317 -178 z "},"қ":{"ha":425,"x_min":0,"x_max":0,"o":"m 414 -178 l 414 129 l 343 129 l 285 404 l 372 683 l 228 683 b 164 443 172 485 168 464 l 158 443 l 158 683 l 24 683 l 24 0 l 158 0 l 158 175 l 181 244 l 186 244 l 229 0 l 310 0 l 310 -178 z "},"Ҡ":{"ha":507,"x_min":0,"x_max":0,"o":"m 501 0 l 415 574 l 503 922 l 361 922 b 294 604 311 692 300 646 l 289 604 l 289 922 l 13 922 l 13 793 l 144 793 l 144 0 l 289 0 l 289 258 l 311 349 l 315 349 l 358 0 z "},"ҡ":{"ha":444,"x_min":0,"x_max":0,"o":"m 439 0 l 354 404 l 442 683 l 297 683 b 233 443 240 483 236 461 l 228 443 l 228 683 l 13 683 l 13 563 l 92 563 l 92 0 l 228 0 l 228 175 l 250 244 l 256 244 l 299 0 z "},"Ң":{"ha":421,"x_min":0,"x_max":0,"o":"m 411 -178 l 411 129 l 367 129 l 367 922 l 225 922 l 225 556 l 163 556 l 163 922 l 21 922 l 21 0 l 163 0 l 163 429 l 225 429 l 225 0 l 307 0 l 307 -178 z "},"ң":{"ha":425,"x_min":0,"x_max":0,"o":"m 414 -178 l 414 129 l 357 129 l 357 683 l 221 683 l 221 413 l 158 413 l 158 683 l 24 683 l 24 0 l 158 0 l 158 292 l 221 292 l 221 0 l 310 0 l 310 -178 z "},"Ҫ":{"ha":378,"x_min":0,"x_max":0,"o":"m 111 -294 b 181 -308 129 -304 154 -308 b 283 -204 250 -308 283 -281 l 283 -162 b 213 -18 283 -100 258 -50 l 213 -6 b 356 174 306 1 356 61 l 356 376 l 224 376 l 224 164 b 190 122 224 135 213 122 b 161 164 168 122 161 135 l 161 756 b 192 797 161 783 171 797 b 224 756 213 797 224 783 l 224 592 l 354 592 l 354 750 b 189 928 354 876 294 928 b 21 749 76 928 21 869 l 21 175 b 125 1 21 64 75 31 b 192 -122 151 -14 192 -42 l 192 -160 b 154 -190 192 -183 181 -190 b 111 -185 138 -190 121 -187 z "},"ҫ":{"ha":368,"x_min":0,"x_max":0,"o":"m 99 -294 b 168 -308 117 -304 142 -308 b 271 -204 238 -308 271 -281 l 271 -162 b 196 -14 271 -97 246 -46 l 196 -7 b 344 156 299 -3 344 50 l 344 247 l 217 247 l 217 156 b 185 114 217 128 206 114 b 154 156 165 114 154 128 l 154 526 b 186 568 154 554 165 568 b 217 526 207 568 217 554 l 217 439 l 344 439 l 344 526 b 186 689 344 636 296 689 b 24 526 75 689 24 636 l 24 156 b 114 3 24 47 69 24 b 179 -122 140 -10 179 -32 l 179 -160 b 142 -190 179 -183 168 -190 b 99 -185 125 -190 108 -187 z "},"γ":{"ha":354,"x_min":0,"x_max":0,"o":"m 242 -324 l 242 -74 l 350 683 l 221 683 l 182 207 l 176 207 l 139 683 l 3 683 l 108 -74 l 108 -324 z "},"Ҳ":{"ha":454,"x_min":0,"x_max":0,"o":"m 258 922 l 207 632 l 201 632 l 150 922 l 8 922 l 113 467 l 4 0 l 146 0 l 199 313 l 204 313 l 257 0 l 340 0 l 340 -178 l 444 -178 l 444 129 l 372 129 l 294 486 l 396 922 z "},"ҳ":{"ha":424,"x_min":0,"x_max":0,"o":"m 231 683 l 192 482 l 186 482 l 144 683 l 7 683 l 100 347 l 3 0 l 140 0 l 181 218 l 186 218 l 228 0 l 308 0 l 308 -178 l 413 -178 l 413 129 l 333 129 l 272 361 l 364 683 z "},"Ҷ":{"ha":421,"x_min":0,"x_max":0,"o":"m 411 -178 l 411 129 l 361 129 l 361 922 l 221 922 l 221 508 b 192 501 217 504 203 501 b 158 543 169 501 158 513 l 158 922 l 21 922 l 21 535 b 142 372 21 417 56 372 b 217 385 169 372 192 376 l 221 385 l 221 0 l 307 0 l 307 -178 z "},"ҷ":{"ha":415,"x_min":0,"x_max":0,"o":"m 404 -178 l 404 129 l 354 129 l 354 683 l 219 683 l 219 381 b 192 374 213 375 203 374 b 157 404 168 374 157 382 l 157 683 l 21 683 l 21 369 b 133 257 21 290 57 257 b 214 278 165 257 192 264 l 219 278 l 219 0 l 300 0 l 300 -178 z "},"Һ":{"ha":383,"x_min":0,"x_max":0,"o":"m 22 922 l 22 0 l 161 0 l 161 413 b 190 419 167 418 181 419 b 224 378 214 419 224 410 l 224 0 l 361 0 l 361 386 b 240 549 361 506 326 549 b 165 536 214 549 190 544 l 161 536 l 161 922 z "},"Ӄ":{"ha":383,"x_min":0,"x_max":0,"o":"m 210 -324 b 378 -161 319 -324 378 -271 l 378 0 l 292 574 l 379 922 l 238 922 b 171 604 188 692 176 646 l 165 604 l 165 922 l 21 922 l 21 0 l 165 0 l 165 258 l 188 349 l 192 349 l 238 0 l 238 -161 b 208 -203 238 -189 229 -203 z "},"ӄ":{"ha":375,"x_min":0,"x_max":0,"o":"m 206 -324 b 371 -161 315 -324 371 -271 l 371 0 l 285 404 l 372 683 l 228 683 b 164 443 172 486 168 464 l 158 443 l 158 683 l 24 683 l 24 0 l 158 0 l 158 175 l 181 244 l 186 244 l 235 -22 l 235 -161 b 204 -203 235 -189 225 -203 z "},"Ӈ":{"ha":389,"x_min":0,"x_max":0,"o":"m 194 -324 b 367 -161 306 -324 367 -271 l 367 922 l 225 922 l 225 556 l 163 556 l 163 922 l 21 922 l 21 0 l 163 0 l 163 429 l 225 429 l 225 -161 b 194 -203 225 -189 215 -203 z "},"ӈ":{"ha":381,"x_min":0,"x_max":0,"o":"m 192 -324 b 357 -161 301 -324 357 -271 l 357 683 l 221 683 l 221 413 l 158 413 l 158 683 l 24 683 l 24 0 l 158 0 l 158 292 l 221 292 l 221 -161 b 190 -203 221 -189 211 -203 z "},"Ө":{"ha":376,"x_min":0,"x_max":0,"o":"m 358 740 b 188 928 358 858 296 928 b 17 743 79 928 17 860 l 17 175 b 189 -7 17 58 78 -7 b 358 174 297 -7 358 53 z m 219 164 b 188 122 219 136 208 122 b 157 164 167 122 157 136 l 157 406 l 219 406 z m 157 756 b 188 797 157 783 167 797 b 219 756 208 797 219 783 l 219 529 l 157 529 z "},"ө":{"ha":372,"x_min":0,"x_max":0,"o":"m 349 526 b 186 689 349 638 296 689 b 24 526 75 689 24 638 l 24 156 b 186 -7 24 44 75 -7 b 349 156 296 -7 349 44 z m 217 156 b 186 114 217 128 206 114 b 154 156 167 114 154 128 l 154 306 l 217 306 z m 154 526 b 186 568 154 554 167 568 b 217 526 206 568 217 554 l 217 389 l 154 389 z "},"Ӯ":{"ha":383,"x_min":0,"x_max":0,"o":"m 318 996 l 318 1079 l 64 1079 l 64 996 z m 221 164 b 190 122 221 136 211 122 b 158 164 169 122 158 136 l 158 307 l 21 307 l 21 174 b 192 -7 21 51 83 -7 b 361 175 304 -7 361 58 l 361 922 l 221 922 l 221 508 b 188 479 217 488 204 479 b 158 521 168 479 158 492 l 158 922 l 21 922 l 21 529 b 128 350 21 408 61 350 b 215 393 156 350 199 360 l 221 393 z "},"ӯ":{"ha":376,"x_min":0,"x_max":0,"o":"m 160 683 l 24 683 l 24 133 b 126 0 24 53 47 0 b 213 50 164 0 192 11 l 218 50 l 218 -161 b 188 -203 218 -189 208 -203 b 156 -161 167 -203 156 -189 l 156 -42 l 26 -42 l 26 -161 b 188 -324 26 -271 78 -324 b 353 -161 299 -324 353 -271 l 353 683 l 222 683 l 222 164 b 190 122 221 135 208 122 b 160 164 171 122 160 135 z m 318 767 l 318 850 l 64 850 l 64 767 z "},"Ԓ":{"ha":433,"x_min":0,"x_max":0,"o":"m 238 -324 b 411 -161 347 -324 411 -271 l 411 922 l 104 922 l 93 533 b 65 167 86 328 79 215 b 21 129 57 135 43 129 l 13 129 l 13 0 l 31 0 b 158 79 93 0 133 15 b 208 532 185 144 200 288 l 217 796 l 269 796 l 269 -161 b 238 -203 269 -189 258 -203 z "},"ԓ":{"ha":404,"x_min":0,"x_max":0,"o":"m 213 -324 b 379 -161 324 -324 379 -271 l 379 683 l 93 683 l 81 394 b 50 136 74 222 65 161 b 18 119 43 122 32 119 l 10 119 l 10 0 l 26 0 b 131 44 81 0 111 11 b 183 394 156 85 169 163 l 194 563 l 244 563 l 244 -161 b 213 -203 244 -189 233 -203 z "},"֏":{"ha":408,"x_min":0,"x_max":0,"o":"m 347 0 l 347 206 l 396 206 l 396 289 l 347 289 l 347 397 l 396 397 l 396 481 l 347 481 l 347 746 b 179 928 347 864 290 928 b 13 747 71 928 13 868 l 13 574 l 146 574 l 146 757 b 176 799 146 785 156 799 b 208 757 197 799 208 785 l 208 481 l 83 481 l 83 397 l 208 397 l 208 289 l 83 289 l 83 206 l 208 206 l 208 0 z "},"Ḍ":{"ha":385,"x_min":0,"x_max":0,"o":"m 199 0 b 363 175 306 0 363 53 l 363 756 b 199 922 363 867 308 922 l 21 922 l 21 0 z m 160 126 l 160 796 l 179 796 b 221 724 207 796 221 772 l 221 206 b 189 126 221 153 210 126 z m 244 -186 l 244 -64 l 110 -64 l 110 -186 z "},"ḍ":{"ha":376,"x_min":0,"x_max":0,"o":"m 353 0 l 353 933 l 219 933 l 219 639 l 214 639 b 131 689 194 675 167 689 b 24 567 67 689 24 642 l 24 117 b 132 -7 24 42 65 -7 b 224 58 175 -7 204 14 l 229 58 l 231 0 z m 160 531 b 192 572 160 558 171 572 b 222 542 210 572 219 563 l 222 142 b 192 110 219 121 210 110 b 160 151 171 110 160 124 z m 256 -186 l 256 -64 l 121 -64 l 121 -186 z "},"Ḓ":{"ha":385,"x_min":0,"x_max":0,"o":"m 199 0 b 363 175 306 0 363 53 l 363 756 b 199 922 363 867 308 922 l 21 922 l 21 0 z m 160 126 l 160 796 l 179 796 b 221 724 207 796 221 772 l 221 206 b 189 126 221 153 210 126 z m 311 -218 l 224 -85 l 104 -85 l 17 -218 l 75 -264 l 164 -162 l 253 -264 z "},"ḓ":{"ha":376,"x_min":0,"x_max":0,"o":"m 353 0 l 353 933 l 219 933 l 219 639 l 214 639 b 131 689 194 675 167 689 b 24 567 67 689 24 642 l 24 117 b 132 -7 24 42 65 -7 b 224 58 175 -7 204 14 l 229 58 l 231 0 z m 160 531 b 192 572 160 558 171 572 b 222 542 210 572 219 563 l 222 142 b 192 110 219 121 210 110 b 160 151 171 110 160 124 z m 331 -218 l 243 -85 l 124 -85 l 36 -218 l 94 -264 l 183 -162 l 272 -264 z "},"Ḥ":{"ha":389,"x_min":0,"x_max":0,"o":"m 367 0 l 367 922 l 225 922 l 225 556 l 163 556 l 163 922 l 21 922 l 21 0 l 163 0 l 163 429 l 225 429 l 225 0 z m 261 -186 l 261 -64 l 126 -64 l 126 -186 z "},"ḥ":{"ha":379,"x_min":0,"x_max":0,"o":"m 356 0 l 356 558 b 253 689 356 631 329 689 b 164 633 210 689 181 671 l 158 633 l 158 933 l 24 933 l 24 0 l 158 0 l 158 531 b 192 572 161 558 172 572 b 219 538 210 572 219 561 l 219 0 z m 256 -186 l 256 -64 l 121 -64 l 121 -186 z "},"Ḽ":{"ha":308,"x_min":0,"x_max":0,"o":"m 296 0 l 296 129 l 163 129 l 163 922 l 21 922 l 21 0 z m 306 -218 l 218 -85 l 99 -85 l 11 -218 l 69 -264 l 158 -162 l 247 -264 z "},"ḽ":{"ha":185,"x_min":0,"x_max":0,"o":"m 158 0 l 158 933 l 24 933 l 24 0 z m 236 -218 l 149 -85 l 29 -85 l -58 -218 l 0 -264 l 89 -162 l 178 -264 z "},"Ṅ":{"ha":408,"x_min":0,"x_max":0,"o":"m 388 0 l 388 922 l 265 922 l 265 717 b 271 329 265 501 268 417 l 265 329 l 208 922 l 21 922 l 21 0 l 142 0 l 142 296 b 136 640 142 489 140 571 l 142 640 l 222 0 z m 268 983 l 268 1107 l 132 1107 l 132 983 z "},"ṅ":{"ha":379,"x_min":0,"x_max":0,"o":"m 356 0 l 356 565 b 251 689 356 643 313 689 b 158 624 213 689 181 671 l 153 624 l 150 683 l 24 683 l 24 0 l 158 0 l 158 542 b 192 572 164 563 175 572 b 219 538 210 572 219 560 l 219 0 z m 256 754 l 256 878 l 119 878 l 119 754 z "},"Ṋ":{"ha":408,"x_min":0,"x_max":0,"o":"m 388 0 l 388 922 l 265 922 l 265 717 b 271 329 265 501 268 417 l 265 329 l 208 922 l 21 922 l 21 0 l 142 0 l 142 296 b 136 640 142 489 140 571 l 142 640 l 222 0 z m 343 -218 l 256 -85 l 136 -85 l 49 -218 l 107 -264 l 196 -162 l 285 -264 z "},"ṋ":{"ha":379,"x_min":0,"x_max":0,"o":"m 356 0 l 356 565 b 251 689 356 643 313 689 b 158 624 213 689 181 671 l 153 624 l 150 683 l 24 683 l 24 0 l 158 0 l 158 542 b 192 572 164 563 175 572 b 219 538 210 572 219 560 l 219 0 z m 335 -218 l 247 -85 l 128 -85 l 40 -218 l 99 -264 l 188 -162 l 276 -264 z "},"Ṛ":{"ha":378,"x_min":0,"x_max":0,"o":"m 160 0 l 160 393 l 190 393 b 222 354 213 393 222 379 l 222 0 l 361 0 l 361 342 b 283 453 361 418 329 446 l 283 458 b 358 569 329 467 358 508 l 358 776 b 222 922 358 868 322 922 l 21 922 l 21 0 z m 222 554 b 188 508 222 525 211 508 l 160 508 l 160 796 l 188 796 b 222 760 211 796 222 785 z m 256 -186 l 256 -64 l 121 -64 l 121 -186 z "},"ṛ":{"ha":283,"x_min":0,"x_max":0,"o":"m 158 0 l 158 483 b 238 568 158 539 179 568 b 274 563 253 568 263 567 l 274 683 b 243 689 264 688 254 689 b 158 624 199 689 174 663 l 153 624 l 150 683 l 24 683 l 24 0 z m 151 -186 l 151 -64 l 17 -64 l 17 -186 z "},"Ṣ":{"ha":392,"x_min":0,"x_max":0,"o":"m 361 650 l 361 740 b 192 928 361 854 317 928 b 21 765 81 928 21 869 l 21 688 b 58 525 21 611 33 568 b 188 379 90 469 143 428 b 225 264 215 349 225 332 l 225 163 b 189 122 225 138 214 122 b 150 163 164 122 150 138 l 150 276 l 17 276 l 17 174 b 194 -7 17 54 71 -7 b 374 172 319 -7 374 56 l 374 296 b 335 443 374 371 361 407 b 189 588 300 489 238 532 b 160 681 164 615 160 629 l 160 761 b 194 797 160 782 171 797 b 229 757 217 797 229 783 l 229 650 z m 260 -186 l 260 -64 l 125 -64 l 125 -186 z "},"ṣ":{"ha":367,"x_min":0,"x_max":0,"o":"m 342 476 l 342 543 b 181 689 342 635 285 689 b 25 565 82 689 25 642 l 25 474 b 61 365 25 433 32 397 b 172 282 86 338 142 304 b 213 221 207 257 213 243 l 213 129 b 181 103 213 113 203 103 b 146 133 158 103 146 113 l 146 219 l 19 219 l 19 138 b 188 -7 19 43 71 -7 b 347 132 297 -7 347 39 l 347 225 b 297 350 347 294 328 325 b 183 422 263 379 218 397 b 153 474 156 443 153 451 l 153 553 b 185 579 153 571 167 579 b 215 550 204 579 215 569 l 215 476 z m 251 -186 l 251 -64 l 117 -64 l 117 -186 z "},"Ṭ":{"ha":364,"x_min":0,"x_max":0,"o":"m 251 0 l 251 796 l 351 796 l 351 922 l 13 922 l 13 796 l 111 796 l 111 0 z m 249 -186 l 249 -64 l 114 -64 l 114 -186 z "},"ṭ":{"ha":356,"x_min":0,"x_max":0,"o":"m 217 156 b 188 114 217 128 207 114 b 157 156 167 114 157 128 l 157 563 l 332 563 l 332 683 l 157 683 l 157 868 l 24 868 l 24 156 b 186 -7 24 46 75 -7 b 332 156 296 -7 332 46 l 332 381 l 217 381 z m 251 -186 l 251 -64 l 117 -64 l 117 -186 z "},"Ẁ":{"ha":575,"x_min":0,"x_max":0,"o":"m 247 0 l 285 647 l 290 647 l 328 0 l 507 0 l 571 922 l 438 922 l 410 276 l 404 276 l 363 922 l 213 922 l 175 276 l 169 276 l 140 922 l 4 922 l 68 0 z m 324 946 l 375 999 l 226 1167 l 157 1086 z "},"ẁ":{"ha":525,"x_min":0,"x_max":0,"o":"m 225 0 l 260 468 l 265 468 l 299 0 l 464 0 l 521 683 l 397 683 l 374 229 l 368 229 l 331 683 l 193 683 l 158 229 l 153 229 l 129 683 l 3 683 l 60 0 z m 300 717 l 351 769 l 203 938 l 133 857 z "},"Ẃ":{"ha":575,"x_min":0,"x_max":0,"o":"m 247 0 l 285 647 l 290 647 l 328 0 l 507 0 l 571 922 l 438 922 l 410 276 l 404 276 l 363 922 l 213 922 l 175 276 l 169 276 l 140 922 l 4 922 l 68 0 z m 419 1086 l 351 1167 l 201 999 l 253 946 z "},"ẃ":{"ha":525,"x_min":0,"x_max":0,"o":"m 225 0 l 260 468 l 265 468 l 299 0 l 464 0 l 521 683 l 397 683 l 374 229 l 368 229 l 331 683 l 193 683 l 158 229 l 153 229 l 129 683 l 3 683 l 60 0 z m 392 857 l 324 938 l 174 769 l 225 717 z "},"Ẅ":{"ha":575,"x_min":0,"x_max":0,"o":"m 247 0 l 285 647 l 290 647 l 328 0 l 507 0 l 571 922 l 438 922 l 410 276 l 404 276 l 363 922 l 213 922 l 175 276 l 169 276 l 140 922 l 4 922 l 68 0 z m 267 983 l 267 1107 l 142 1107 l 142 983 z m 431 983 l 431 1107 l 306 1107 l 306 983 z "},"ẅ":{"ha":525,"x_min":0,"x_max":0,"o":"m 225 0 l 260 468 l 265 468 l 299 0 l 464 0 l 521 683 l 397 683 l 374 229 l 368 229 l 331 683 l 193 683 l 158 229 l 153 229 l 129 683 l 3 683 l 60 0 z m 242 754 l 242 878 l 117 878 l 117 754 z m 406 754 l 406 878 l 281 878 l 281 754 z "},"Ẓ":{"ha":350,"x_min":0,"x_max":0,"o":"m 338 0 l 338 126 l 157 126 l 332 794 l 332 922 l 14 922 l 14 796 l 190 796 l 13 129 l 13 0 z m 242 -186 l 242 -64 l 107 -64 l 107 -186 z "},"ẓ":{"ha":317,"x_min":0,"x_max":0,"o":"m 303 0 l 303 124 l 153 124 l 299 563 l 299 683 l 17 683 l 17 563 l 163 563 l 14 125 l 14 0 z m 226 -186 l 226 -64 l 92 -64 l 92 -186 z "},"ẞ":{"ha":429,"x_min":0,"x_max":0,"o":"m 196 0 b 258 -7 213 -4 238 -7 b 407 161 358 -7 407 39 l 407 439 b 322 574 407 521 378 567 l 385 803 l 385 922 l 192 922 b 21 743 81 922 21 860 l 21 0 l 163 0 l 163 740 b 213 796 163 776 179 796 l 253 796 l 196 576 l 196 453 b 235 464 208 460 222 464 b 268 429 257 464 268 453 l 268 156 b 231 115 268 129 256 115 b 196 122 219 115 207 117 z "},"Ạ":{"ha":388,"x_min":0,"x_max":0,"o":"m 382 0 l 292 922 l 94 922 l 4 0 l 142 0 l 156 210 l 226 210 l 242 0 z m 189 688 l 194 688 l 218 331 l 164 331 z m 258 -186 l 258 -64 l 124 -64 l 124 -186 z "},"ạ":{"ha":369,"x_min":0,"x_max":0,"o":"m 213 133 b 181 110 208 118 200 110 b 149 142 160 110 149 121 l 149 286 b 178 329 149 308 157 324 b 213 342 192 333 203 336 z m 346 0 l 346 567 b 192 689 346 650 293 689 b 25 558 88 689 25 647 l 25 461 l 150 461 l 150 542 b 182 574 150 563 161 574 b 211 546 201 574 211 564 l 211 456 b 142 407 211 425 190 419 b 17 261 51 383 17 350 l 17 106 b 117 -7 17 42 39 -7 b 213 50 181 -7 200 28 l 218 50 l 221 0 z m 247 -186 l 247 -64 l 113 -64 l 113 -186 z "},"Ả":{"ha":388,"x_min":0,"x_max":0,"o":"m 382 0 l 292 922 l 94 922 l 4 0 l 142 0 l 156 210 l 226 210 l 242 0 z m 189 688 l 194 688 l 218 331 l 164 331 z m 219 958 b 286 1067 219 1000 286 1000 b 204 1147 286 1117 251 1147 b 119 1118 178 1147 142 1138 l 142 1047 b 192 1068 157 1061 171 1068 b 213 1054 207 1068 213 1064 b 157 958 213 1021 157 1025 z "},"ả":{"ha":369,"x_min":0,"x_max":0,"o":"m 213 133 b 181 110 208 118 200 110 b 149 142 160 110 149 121 l 149 286 b 178 329 149 308 157 324 b 213 342 192 333 203 336 z m 346 0 l 346 567 b 192 689 346 650 293 689 b 25 558 88 689 25 647 l 25 461 l 150 461 l 150 542 b 182 574 150 563 161 574 b 211 546 201 574 211 564 l 211 456 b 142 407 211 425 190 419 b 17 261 51 383 17 350 l 17 106 b 117 -7 17 42 39 -7 b 213 50 181 -7 200 28 l 218 50 l 221 0 z m 208 729 b 275 838 208 771 275 771 b 193 918 275 888 240 918 b 108 889 167 918 131 908 l 131 818 b 181 839 146 832 160 839 b 201 825 196 839 201 835 b 146 729 201 792 146 796 z "},"Ấ":{"ha":388,"x_min":0,"x_max":0,"o":"m 382 0 l 292 922 l 94 922 l 4 0 l 142 0 l 156 210 l 226 210 l 242 0 z m 189 688 l 194 688 l 218 331 l 164 331 z m 338 992 l 250 1117 l 132 1117 l 44 992 l 103 946 l 192 1039 l 279 946 z m 460 1171 l 392 1249 l 271 1117 l 321 1065 z "},"ấ":{"ha":369,"x_min":0,"x_max":0,"o":"m 213 133 b 181 110 208 118 200 110 b 149 142 160 110 149 121 l 149 286 b 178 329 149 308 157 324 b 213 342 192 333 203 336 z m 346 0 l 346 567 b 192 689 346 650 293 689 b 25 558 88 689 25 647 l 25 461 l 150 461 l 150 542 b 182 574 150 563 161 574 b 211 546 201 574 211 564 l 211 456 b 142 407 211 425 190 419 b 17 261 51 383 17 350 l 17 106 b 117 -7 17 42 39 -7 b 213 50 181 -7 200 28 l 218 50 l 221 0 z m 335 763 l 247 888 l 129 888 l 42 763 l 100 717 l 189 810 l 276 717 z m 457 942 l 389 1019 l 268 888 l 318 836 z "},"Ầ":{"ha":388,"x_min":0,"x_max":0,"o":"m 382 0 l 292 922 l 94 922 l 4 0 l 142 0 l 156 210 l 226 210 l 242 0 z m 189 688 l 194 688 l 218 331 l 164 331 z m 333 992 l 246 1117 l 128 1117 l 40 992 l 99 946 l 188 1039 l 275 946 z m 364 1065 l 414 1117 l 292 1249 l 225 1171 z "},"ầ":{"ha":369,"x_min":0,"x_max":0,"o":"m 213 133 b 181 110 208 118 200 110 b 149 142 160 110 149 121 l 149 286 b 178 329 149 308 157 324 b 213 342 192 333 203 336 z m 346 0 l 346 567 b 192 689 346 650 293 689 b 25 558 88 689 25 647 l 25 461 l 150 461 l 150 542 b 182 574 150 563 161 574 b 211 546 201 574 211 564 l 211 456 b 142 407 211 425 190 419 b 17 261 51 383 17 350 l 17 106 b 117 -7 17 42 39 -7 b 213 50 181 -7 200 28 l 218 50 l 221 0 z m 325 763 l 238 888 l 119 888 l 32 763 l 90 717 l 179 810 l 267 717 z m 356 836 l 406 888 l 283 1019 l 217 942 z "},"Ẩ":{"ha":388,"x_min":0,"x_max":0,"o":"m 382 0 l 292 922 l 94 922 l 4 0 l 142 0 l 156 210 l 226 210 l 242 0 z m 189 688 l 194 688 l 218 331 l 164 331 z m 340 992 l 253 1117 l 133 1117 l 46 992 l 104 946 l 193 1039 l 282 946 z m 371 1060 b 438 1168 371 1100 438 1100 b 356 1249 438 1217 403 1249 b 271 1219 329 1249 293 1239 l 293 1149 b 343 1169 308 1163 322 1169 b 364 1154 358 1169 364 1165 b 308 1060 364 1121 308 1125 z "},"ẩ":{"ha":369,"x_min":0,"x_max":0,"o":"m 213 133 b 181 110 208 118 200 110 b 149 142 160 110 149 121 l 149 286 b 178 329 149 308 157 324 b 213 342 192 333 203 336 z m 346 0 l 346 567 b 192 689 346 650 293 689 b 25 558 88 689 25 647 l 25 461 l 150 461 l 150 542 b 182 574 150 563 161 574 b 211 546 201 574 211 564 l 211 456 b 142 407 211 425 190 419 b 17 261 51 383 17 350 l 17 106 b 117 -7 17 42 39 -7 b 213 50 181 -7 200 28 l 218 50 l 221 0 z m 319 763 l 232 888 l 113 888 l 25 763 l 83 717 l 172 810 l 261 717 z m 350 831 b 417 939 350 871 417 871 b 335 1019 417 988 382 1019 b 250 990 308 1019 272 1010 l 272 919 b 322 940 288 933 301 940 b 343 925 338 940 343 936 b 288 831 343 892 288 896 z "},"Ẫ":{"ha":388,"x_min":0,"x_max":0,"o":"m 382 0 l 292 922 l 94 922 l 4 0 l 142 0 l 156 210 l 226 210 l 242 0 z m 189 688 l 194 688 l 218 331 l 164 331 z m 338 992 l 250 1117 l 132 1117 l 44 992 l 103 946 l 192 1039 l 279 946 z m 281 1247 b 246 1217 275 1221 260 1217 b 126 1249 204 1217 172 1249 b 46 1171 88 1249 56 1226 l 104 1139 b 139 1171 110 1167 125 1171 b 258 1138 181 1171 213 1138 b 339 1217 296 1138 329 1160 z "},"ẫ":{"ha":369,"x_min":0,"x_max":0,"o":"m 213 133 b 181 110 208 118 200 110 b 149 142 160 110 149 121 l 149 286 b 178 329 149 308 157 324 b 213 342 192 333 203 336 z m 346 0 l 346 567 b 192 689 346 650 293 689 b 25 558 88 689 25 647 l 25 461 l 150 461 l 150 542 b 182 574 150 563 161 574 b 211 546 201 574 211 564 l 211 456 b 142 407 211 425 190 419 b 17 261 51 383 17 350 l 17 106 b 117 -7 17 42 39 -7 b 213 50 181 -7 200 28 l 218 50 l 221 0 z m 321 763 l 233 888 l 115 888 l 28 763 l 86 717 l 175 810 l 263 717 z m 264 1018 b 229 988 258 992 243 988 b 110 1019 188 988 156 1019 b 29 942 71 1019 39 997 l 88 910 b 122 942 93 938 108 942 b 242 908 164 942 196 908 b 322 988 279 908 313 931 z "},"Ậ":{"ha":388,"x_min":0,"x_max":0,"o":"m 382 0 l 292 922 l 94 922 l 4 0 l 142 0 l 156 210 l 226 210 l 242 0 z m 189 688 l 194 688 l 218 331 l 164 331 z m 338 992 l 250 1125 l 131 1125 l 43 992 l 101 946 l 190 1047 l 279 946 z m 260 -186 l 260 -64 l 125 -64 l 125 -186 z "},"ậ":{"ha":369,"x_min":0,"x_max":0,"o":"m 213 133 b 181 110 208 118 200 110 b 149 142 160 110 149 121 l 149 286 b 178 329 149 308 157 324 b 213 342 192 333 203 336 z m 346 0 l 346 567 b 192 689 346 650 293 689 b 25 558 88 689 25 647 l 25 461 l 150 461 l 150 542 b 182 574 150 563 161 574 b 211 546 201 574 211 564 l 211 456 b 142 407 211 425 190 419 b 17 261 51 383 17 350 l 17 106 b 117 -7 17 42 39 -7 b 213 50 181 -7 200 28 l 218 50 l 221 0 z m 328 763 l 240 896 l 121 896 l 33 763 l 92 717 l 181 818 l 269 717 z m 250 -186 l 250 -64 l 115 -64 l 115 -186 z "},"Ắ":{"ha":388,"x_min":0,"x_max":0,"o":"m 382 0 l 292 922 l 94 922 l 4 0 l 142 0 l 156 210 l 226 210 l 242 0 z m 189 688 l 194 688 l 218 331 l 164 331 z m 197 942 b 346 1100 283 942 346 988 l 249 1100 b 197 1015 247 1043 232 1015 b 146 1100 163 1015 147 1043 l 50 1100 b 197 942 50 988 113 942 z m 333 1171 l 267 1249 l 144 1117 l 194 1065 z "},"ắ":{"ha":369,"x_min":0,"x_max":0,"o":"m 213 133 b 181 110 208 118 200 110 b 149 142 160 110 149 121 l 149 286 b 178 329 149 308 157 324 b 213 342 192 333 203 336 z m 346 0 l 346 567 b 192 689 346 650 293 689 b 25 558 88 689 25 647 l 25 461 l 150 461 l 150 542 b 182 574 150 563 161 574 b 211 546 201 574 211 564 l 211 456 b 142 407 211 425 190 419 b 17 261 51 383 17 350 l 17 106 b 117 -7 17 42 39 -7 b 213 50 181 -7 200 28 l 218 50 l 221 0 z m 188 713 b 336 871 274 713 336 758 l 239 871 b 188 786 238 814 222 786 b 136 871 153 786 138 814 l 40 871 b 188 713 40 758 103 713 z m 324 942 l 257 1019 l 135 888 l 185 836 z "},"Ằ":{"ha":388,"x_min":0,"x_max":0,"o":"m 382 0 l 292 922 l 94 922 l 4 0 l 142 0 l 156 210 l 226 210 l 242 0 z m 189 688 l 194 688 l 218 331 l 164 331 z m 200 942 b 346 1100 285 942 346 988 l 250 1100 b 200 1015 250 1043 233 1015 b 149 1100 165 1015 150 1043 l 50 1100 b 200 942 50 988 113 942 z m 203 1065 l 253 1117 l 131 1249 l 63 1171 z "},"ằ":{"ha":369,"x_min":0,"x_max":0,"o":"m 213 133 b 181 110 208 118 200 110 b 149 142 160 110 149 121 l 149 286 b 178 329 149 308 157 324 b 213 342 192 333 203 336 z m 346 0 l 346 567 b 192 689 346 650 293 689 b 25 558 88 689 25 647 l 25 461 l 150 461 l 150 542 b 182 574 150 563 161 574 b 211 546 201 574 211 564 l 211 456 b 142 407 211 425 190 419 b 17 261 51 383 17 350 l 17 106 b 117 -7 17 42 39 -7 b 213 50 181 -7 200 28 l 218 50 l 221 0 z m 182 713 b 328 871 267 713 328 758 l 232 871 b 182 786 232 814 215 786 b 131 871 147 786 132 814 l 32 871 b 182 713 32 758 94 713 z m 185 836 l 235 888 l 113 1019 l 44 942 z "},"Ẳ":{"ha":388,"x_min":0,"x_max":0,"o":"m 382 0 l 292 922 l 94 922 l 4 0 l 142 0 l 156 210 l 226 210 l 242 0 z m 189 688 l 194 688 l 218 331 l 164 331 z m 193 942 b 340 1100 278 942 340 988 l 243 1100 b 192 1015 242 1043 226 1015 b 140 1100 157 1015 142 1043 l 44 1100 b 193 942 44 988 107 942 z m 213 1072 b 275 1172 213 1110 275 1108 b 194 1249 275 1219 240 1249 b 110 1221 168 1249 131 1239 l 131 1154 b 181 1174 147 1167 160 1174 b 201 1160 197 1174 201 1169 b 151 1072 201 1129 151 1135 z "},"ẳ":{"ha":369,"x_min":0,"x_max":0,"o":"m 213 133 b 181 110 208 118 200 110 b 149 142 160 110 149 121 l 149 286 b 178 329 149 308 157 324 b 213 342 192 333 203 336 z m 346 0 l 346 567 b 192 689 346 650 293 689 b 25 558 88 689 25 647 l 25 461 l 150 461 l 150 542 b 182 574 150 563 161 574 b 211 546 201 574 211 564 l 211 456 b 142 407 211 425 190 419 b 17 261 51 383 17 350 l 17 106 b 117 -7 17 42 39 -7 b 213 50 181 -7 200 28 l 218 50 l 221 0 z m 183 713 b 331 871 268 713 331 758 l 233 871 b 182 786 232 814 217 786 b 131 871 147 786 132 814 l 35 871 b 183 713 35 758 97 713 z m 203 843 b 265 943 203 881 265 879 b 185 1019 265 990 231 1019 b 100 992 158 1019 121 1010 l 121 925 b 171 944 138 938 150 944 b 192 931 188 944 192 940 b 142 843 192 900 142 906 z "},"Ẵ":{"ha":388,"x_min":0,"x_max":0,"o":"m 382 0 l 292 922 l 94 922 l 4 0 l 142 0 l 156 210 l 226 210 l 242 0 z m 189 688 l 194 688 l 218 331 l 164 331 z m 190 942 b 338 1100 275 942 338 988 l 240 1100 b 189 1015 239 1043 224 1015 b 138 1100 154 1015 139 1043 l 42 1100 b 190 942 42 988 104 942 z m 278 1242 b 240 1208 272 1215 257 1208 b 122 1244 200 1208 168 1244 b 42 1165 85 1244 51 1221 l 99 1133 b 136 1167 104 1161 121 1167 b 254 1131 176 1167 208 1131 b 335 1211 293 1131 325 1154 z "},"ẵ":{"ha":369,"x_min":0,"x_max":0,"o":"m 213 133 b 181 110 208 118 200 110 b 149 142 160 110 149 121 l 149 286 b 178 329 149 308 157 324 b 213 342 192 333 203 336 z m 346 0 l 346 567 b 192 689 346 650 293 689 b 25 558 88 689 25 647 l 25 461 l 150 461 l 150 542 b 182 574 150 563 161 574 b 211 546 201 574 211 564 l 211 456 b 142 407 211 425 190 419 b 17 261 51 383 17 350 l 17 106 b 117 -7 17 42 39 -7 b 213 50 181 -7 200 28 l 218 50 l 221 0 z m 179 713 b 326 871 264 713 326 758 l 229 871 b 178 786 228 814 213 786 b 126 871 143 786 128 814 l 31 871 b 179 713 31 758 93 713 z m 267 1013 b 229 979 261 986 246 979 b 111 1015 189 979 157 1015 b 31 936 74 1015 40 992 l 88 904 b 125 938 93 932 110 938 b 243 901 165 938 197 901 b 324 982 282 901 314 925 z "},"Ặ":{"ha":388,"x_min":0,"x_max":0,"o":"m 382 0 l 292 922 l 94 922 l 4 0 l 142 0 l 156 210 l 226 210 l 242 0 z m 189 688 l 194 688 l 218 331 l 164 331 z m 192 946 b 342 1124 279 946 342 1007 l 243 1124 b 192 1029 242 1058 225 1029 b 139 1124 157 1029 140 1058 l 42 1124 b 192 946 42 1008 104 946 z m 260 -186 l 260 -64 l 125 -64 l 125 -186 z "},"ặ":{"ha":369,"x_min":0,"x_max":0,"o":"m 213 133 b 181 110 208 118 200 110 b 149 142 160 110 149 121 l 149 286 b 178 329 149 308 157 324 b 213 342 192 333 203 336 z m 346 0 l 346 567 b 192 689 346 650 293 689 b 25 558 88 689 25 647 l 25 461 l 150 461 l 150 542 b 182 574 150 563 161 574 b 211 546 201 574 211 564 l 211 456 b 142 407 211 425 190 419 b 17 261 51 383 17 350 l 17 106 b 117 -7 17 42 39 -7 b 213 50 181 -7 200 28 l 218 50 l 221 0 z m 179 717 b 329 894 267 717 329 778 l 231 894 b 179 800 229 829 213 800 b 126 894 144 800 128 829 l 29 894 b 179 717 29 779 92 717 z m 247 -186 l 247 -64 l 113 -64 l 113 -186 z "},"Ẹ":{"ha":300,"x_min":0,"x_max":0,"o":"m 290 0 l 290 126 l 160 126 l 160 419 l 267 419 l 267 547 l 160 547 l 160 796 l 282 796 l 282 922 l 21 922 l 21 0 z m 217 -186 l 217 -64 l 82 -64 l 82 -186 z "},"ẹ":{"ha":374,"x_min":0,"x_max":0,"o":"m 350 231 l 217 231 l 217 153 b 185 111 217 125 206 111 b 154 153 165 111 154 125 l 154 303 l 350 303 l 350 526 b 186 689 350 636 296 689 b 24 526 75 689 24 636 l 24 156 b 185 -7 24 46 75 -7 b 350 156 296 -7 350 47 z m 217 399 l 154 399 l 154 529 b 186 571 154 558 165 571 b 217 529 207 571 217 558 z m 251 -186 l 251 -64 l 117 -64 l 117 -186 z "},"Ẻ":{"ha":300,"x_min":0,"x_max":0,"o":"m 290 0 l 290 126 l 160 126 l 160 419 l 267 419 l 267 547 l 160 547 l 160 796 l 282 796 l 282 922 l 21 922 l 21 0 z m 190 958 b 257 1067 190 1000 257 1000 b 175 1147 257 1117 222 1147 b 90 1118 149 1147 113 1138 l 113 1047 b 163 1068 128 1061 142 1068 b 183 1054 178 1068 183 1064 b 128 958 183 1021 128 1025 z "},"ẻ":{"ha":374,"x_min":0,"x_max":0,"o":"m 350 231 l 217 231 l 217 153 b 185 111 217 125 206 111 b 154 153 165 111 154 125 l 154 303 l 350 303 l 350 526 b 186 689 350 636 296 689 b 24 526 75 689 24 636 l 24 156 b 185 -7 24 46 75 -7 b 350 156 296 -7 350 47 z m 217 399 l 154 399 l 154 529 b 186 571 154 558 165 571 b 217 529 207 571 217 558 z m 210 729 b 276 838 210 771 276 771 b 194 918 276 888 242 918 b 110 889 168 918 132 908 l 132 818 b 182 839 147 832 161 839 b 203 825 197 839 203 835 b 147 729 203 792 147 796 z "},"Ẽ":{"ha":300,"x_min":0,"x_max":0,"o":"m 290 0 l 290 126 l 160 126 l 160 419 l 267 419 l 267 547 l 160 547 l 160 796 l 282 796 l 282 922 l 21 922 l 21 0 z m 243 1072 b 206 1039 236 1046 222 1039 b 88 1075 165 1039 133 1075 b 6 996 49 1075 17 1051 l 63 964 b 100 997 69 992 85 997 b 219 961 140 997 172 961 b 300 1042 257 961 289 985 z "},"ẽ":{"ha":374,"x_min":0,"x_max":0,"o":"m 350 231 l 217 231 l 217 153 b 185 111 217 125 206 111 b 154 153 165 111 154 125 l 154 303 l 350 303 l 350 526 b 186 689 350 636 296 689 b 24 526 75 689 24 636 l 24 156 b 185 -7 24 46 75 -7 b 350 156 296 -7 350 47 z m 217 399 l 154 399 l 154 529 b 186 571 154 558 165 571 b 217 529 207 571 217 558 z m 275 843 b 238 810 268 817 254 810 b 119 846 197 810 165 846 b 38 767 81 846 49 822 l 94 735 b 132 768 101 763 117 768 b 251 732 172 768 204 732 b 332 813 289 732 321 756 z "},"Ế":{"ha":300,"x_min":0,"x_max":0,"o":"m 290 0 l 290 126 l 160 126 l 160 419 l 267 419 l 267 547 l 160 547 l 160 796 l 282 796 l 282 922 l 21 922 l 21 0 z m 304 992 l 217 1117 l 99 1117 l 11 992 l 69 946 l 158 1039 l 246 946 z m 426 1171 l 358 1249 l 238 1117 l 288 1065 z "},"ế":{"ha":374,"x_min":0,"x_max":0,"o":"m 350 231 l 217 231 l 217 153 b 185 111 217 125 206 111 b 154 153 165 111 154 125 l 154 303 l 350 303 l 350 526 b 186 689 350 636 296 689 b 24 526 75 689 24 636 l 24 156 b 185 -7 24 46 75 -7 b 350 156 296 -7 350 47 z m 217 399 l 154 399 l 154 529 b 186 571 154 558 165 571 b 217 529 207 571 217 558 z m 333 763 l 246 888 l 128 888 l 40 763 l 99 717 l 188 810 l 275 717 z m 456 942 l 388 1019 l 267 888 l 317 836 z "},"Ề":{"ha":300,"x_min":0,"x_max":0,"o":"m 290 0 l 290 126 l 160 126 l 160 419 l 267 419 l 267 547 l 160 547 l 160 796 l 282 796 l 282 922 l 21 922 l 21 0 z m 300 992 l 213 1117 l 94 1117 l 7 992 l 65 946 l 154 1039 l 242 946 z m 331 1065 l 381 1117 l 258 1249 l 192 1171 z "},"ề":{"ha":374,"x_min":0,"x_max":0,"o":"m 350 231 l 217 231 l 217 153 b 185 111 217 125 206 111 b 154 153 165 111 154 125 l 154 303 l 350 303 l 350 526 b 186 689 350 636 296 689 b 24 526 75 689 24 636 l 24 156 b 185 -7 24 46 75 -7 b 350 156 296 -7 350 47 z m 217 399 l 154 399 l 154 529 b 186 571 154 558 165 571 b 217 529 207 571 217 558 z m 324 763 l 236 888 l 118 888 l 31 763 l 89 717 l 178 810 l 265 717 z m 354 836 l 404 888 l 282 1019 l 215 942 z "},"Ể":{"ha":300,"x_min":0,"x_max":0,"o":"m 290 0 l 290 126 l 160 126 l 160 419 l 267 419 l 267 547 l 160 547 l 160 796 l 282 796 l 282 922 l 21 922 l 21 0 z m 303 992 l 215 1117 l 96 1117 l 8 992 l 67 946 l 156 1039 l 244 946 z m 333 1060 b 400 1168 333 1100 400 1100 b 318 1249 400 1217 365 1249 b 233 1219 292 1249 256 1239 l 256 1149 b 306 1169 271 1163 285 1169 b 326 1154 321 1169 326 1165 b 271 1060 326 1121 271 1125 z "},"ể":{"ha":374,"x_min":0,"x_max":0,"o":"m 350 231 l 217 231 l 217 153 b 185 111 217 125 206 111 b 154 153 165 111 154 125 l 154 303 l 350 303 l 350 526 b 186 689 350 636 296 689 b 24 526 75 689 24 636 l 24 156 b 185 -7 24 46 75 -7 b 350 156 296 -7 350 47 z m 217 399 l 154 399 l 154 529 b 186 571 154 558 165 571 b 217 529 207 571 217 558 z m 321 763 l 233 888 l 114 888 l 26 763 l 85 717 l 174 810 l 263 717 z m 351 831 b 418 939 351 871 418 871 b 336 1019 418 988 383 1019 b 251 990 310 1019 274 1010 l 274 919 b 324 940 289 933 303 940 b 344 925 339 940 344 936 b 289 831 344 892 289 896 z "},"Ễ":{"ha":300,"x_min":0,"x_max":0,"o":"m 290 0 l 290 126 l 160 126 l 160 419 l 267 419 l 267 547 l 160 547 l 160 796 l 282 796 l 282 922 l 21 922 l 21 0 z m 304 992 l 217 1117 l 99 1117 l 11 992 l 69 946 l 158 1039 l 246 946 z m 247 1247 b 213 1217 242 1221 226 1217 b 93 1249 171 1217 139 1249 b 13 1171 54 1249 22 1226 l 71 1139 b 106 1171 76 1167 92 1171 b 225 1138 147 1171 179 1138 b 306 1217 263 1138 296 1160 z "},"ễ":{"ha":374,"x_min":0,"x_max":0,"o":"m 350 231 l 217 231 l 217 153 b 185 111 217 125 206 111 b 154 153 165 111 154 125 l 154 303 l 350 303 l 350 526 b 186 689 350 636 296 689 b 24 526 75 689 24 636 l 24 156 b 185 -7 24 46 75 -7 b 350 156 296 -7 350 47 z m 217 399 l 154 399 l 154 529 b 186 571 154 558 165 571 b 217 529 207 571 217 558 z m 331 763 l 243 888 l 125 888 l 38 763 l 96 717 l 185 810 l 272 717 z m 274 1018 b 239 988 268 992 253 988 b 119 1019 197 988 165 1019 b 39 942 81 1019 49 997 l 97 910 b 132 942 103 938 118 942 b 251 908 174 942 206 908 b 332 988 289 908 322 931 z "},"Ệ":{"ha":300,"x_min":0,"x_max":0,"o":"m 290 0 l 290 126 l 160 126 l 160 419 l 267 419 l 267 547 l 160 547 l 160 796 l 282 796 l 282 922 l 21 922 l 21 0 z m 307 992 l 219 1125 l 100 1125 l 13 992 l 71 946 l 160 1047 l 249 946 z m 226 -186 l 226 -64 l 92 -64 l 92 -186 z "},"ệ":{"ha":374,"x_min":0,"x_max":0,"o":"m 350 231 l 217 231 l 217 153 b 185 111 217 125 206 111 b 154 153 165 111 154 125 l 154 303 l 350 303 l 350 526 b 186 689 350 636 296 689 b 24 526 75 689 24 636 l 24 156 b 185 -7 24 46 75 -7 b 350 156 296 -7 350 47 z m 217 399 l 154 399 l 154 529 b 186 571 154 558 165 571 b 217 529 207 571 217 558 z m 332 763 l 244 896 l 125 896 l 38 763 l 96 717 l 185 818 l 274 717 z m 251 -186 l 251 -64 l 117 -64 l 117 -186 z "},"Ỉ":{"ha":185,"x_min":0,"x_max":0,"o":"m 163 0 l 163 922 l 21 922 l 21 0 z m 118 958 b 185 1067 118 1000 185 1000 b 103 1147 185 1117 150 1147 b 18 1118 76 1147 40 1138 l 40 1047 b 90 1068 56 1061 69 1068 b 111 1054 106 1068 111 1064 b 56 958 111 1021 56 1025 z "},"ỉ":{"ha":183,"x_min":0,"x_max":0,"o":"m 158 0 l 158 683 l 24 683 l 24 0 z m 117 729 b 183 838 117 771 183 771 b 101 918 183 888 149 918 b 17 889 75 918 39 908 l 39 818 b 89 839 54 832 68 839 b 110 825 104 839 110 835 b 54 729 110 792 54 796 z "},"Ị":{"ha":185,"x_min":0,"x_max":0,"o":"m 163 0 l 163 922 l 21 922 l 21 0 z m 160 -186 l 160 -64 l 25 -64 l 25 -186 z "},"ị":{"ha":183,"x_min":0,"x_max":0,"o":"m 158 0 l 158 683 l 24 683 l 24 0 z m 158 754 l 158 878 l 24 878 l 24 754 z m 156 -186 l 156 -64 l 21 -64 l 21 -186 z "},"Ọ":{"ha":376,"x_min":0,"x_max":0,"o":"m 358 740 b 188 928 358 858 296 928 b 17 743 79 928 17 860 l 17 175 b 189 -7 17 58 78 -7 b 358 174 297 -7 358 53 z m 219 164 b 188 122 219 136 208 122 b 157 164 167 122 157 136 l 157 756 b 188 797 157 783 167 797 b 219 756 208 797 219 783 z m 256 -186 l 256 -64 l 121 -64 l 121 -186 z "},"ọ":{"ha":372,"x_min":0,"x_max":0,"o":"m 349 526 b 186 689 349 638 296 689 b 24 526 75 689 24 638 l 24 156 b 186 -7 24 44 75 -7 b 349 156 296 -7 349 44 z m 217 156 b 186 114 217 128 206 114 b 154 156 167 114 154 128 l 154 526 b 186 568 154 554 167 568 b 217 526 206 568 217 554 z m 254 -186 l 254 -64 l 119 -64 l 119 -186 z "},"Ỏ":{"ha":376,"x_min":0,"x_max":0,"o":"m 358 740 b 188 928 358 858 296 928 b 17 743 79 928 17 860 l 17 175 b 189 -7 17 58 78 -7 b 358 174 297 -7 358 53 z m 219 164 b 188 122 219 136 208 122 b 157 164 167 122 157 136 l 157 756 b 188 797 157 783 167 797 b 219 756 208 797 219 783 z m 214 958 b 281 1067 214 1000 281 1000 b 199 1147 281 1117 246 1147 b 114 1118 172 1147 136 1138 l 136 1047 b 186 1068 151 1061 165 1068 b 207 1054 201 1068 207 1064 b 151 958 207 1021 151 1025 z "},"ỏ":{"ha":372,"x_min":0,"x_max":0,"o":"m 349 526 b 186 689 349 638 296 689 b 24 526 75 689 24 638 l 24 156 b 186 -7 24 44 75 -7 b 349 156 296 -7 349 44 z m 217 156 b 186 114 217 128 206 114 b 154 156 167 114 154 128 l 154 526 b 186 568 154 554 167 568 b 217 526 206 568 217 554 z m 213 729 b 279 838 213 771 279 771 b 197 918 279 888 244 918 b 113 889 171 918 135 908 l 135 818 b 185 839 150 832 164 839 b 206 825 200 839 206 835 b 150 729 206 792 150 796 z "},"Ố":{"ha":376,"x_min":0,"x_max":0,"o":"m 358 740 b 188 928 358 858 296 928 b 17 743 79 928 17 860 l 17 175 b 189 -7 17 58 78 -7 b 358 174 297 -7 358 53 z m 219 164 b 188 122 219 136 208 122 b 157 164 167 122 157 136 l 157 756 b 188 797 157 783 167 797 b 219 756 208 797 219 783 z m 339 992 l 251 1117 l 133 1117 l 46 992 l 104 946 l 193 1039 l 281 946 z m 461 1171 l 393 1249 l 272 1117 l 322 1065 z "},"ố":{"ha":372,"x_min":0,"x_max":0,"o":"m 349 526 b 186 689 349 638 296 689 b 24 526 75 689 24 638 l 24 156 b 186 -7 24 44 75 -7 b 349 156 296 -7 349 44 z m 217 156 b 186 114 217 128 206 114 b 154 156 167 114 154 128 l 154 526 b 186 568 154 554 167 568 b 217 526 206 568 217 554 z m 331 763 l 243 888 l 125 888 l 38 763 l 96 717 l 185 810 l 272 717 z m 453 942 l 385 1019 l 264 888 l 314 836 z "},"Ồ":{"ha":376,"x_min":0,"x_max":0,"o":"m 358 740 b 188 928 358 858 296 928 b 17 743 79 928 17 860 l 17 175 b 189 -7 17 58 78 -7 b 358 174 297 -7 358 53 z m 219 164 b 188 122 219 136 208 122 b 157 164 167 122 157 136 l 157 756 b 188 797 157 783 167 797 b 219 756 208 797 219 783 z m 338 992 l 250 1117 l 132 1117 l 44 992 l 103 946 l 192 1039 l 279 946 z m 368 1065 l 418 1117 l 296 1249 l 229 1171 z "},"ồ":{"ha":372,"x_min":0,"x_max":0,"o":"m 349 526 b 186 689 349 638 296 689 b 24 526 75 689 24 638 l 24 156 b 186 -7 24 44 75 -7 b 349 156 296 -7 349 44 z m 217 156 b 186 114 217 128 206 114 b 154 156 167 114 154 128 l 154 526 b 186 568 154 554 167 568 b 217 526 206 568 217 554 z m 329 763 l 242 888 l 124 888 l 36 763 l 94 717 l 183 810 l 271 717 z m 360 836 l 410 888 l 288 1019 l 221 942 z "},"Ổ":{"ha":376,"x_min":0,"x_max":0,"o":"m 358 740 b 188 928 358 858 296 928 b 17 743 79 928 17 860 l 17 175 b 189 -7 17 58 78 -7 b 358 174 297 -7 358 53 z m 219 164 b 188 122 219 136 208 122 b 157 164 167 122 157 136 l 157 756 b 188 797 157 783 167 797 b 219 756 208 797 219 783 z m 335 992 l 247 1117 l 128 1117 l 40 992 l 99 946 l 188 1039 l 276 946 z m 365 1060 b 432 1168 365 1100 432 1100 b 350 1249 432 1217 397 1249 b 265 1219 324 1249 288 1239 l 288 1149 b 338 1169 303 1163 317 1169 b 358 1154 353 1169 358 1165 b 303 1060 358 1121 303 1125 z "},"ổ":{"ha":372,"x_min":0,"x_max":0,"o":"m 349 526 b 186 689 349 638 296 689 b 24 526 75 689 24 638 l 24 156 b 186 -7 24 44 75 -7 b 349 156 296 -7 349 44 z m 217 156 b 186 114 217 128 206 114 b 154 156 167 114 154 128 l 154 526 b 186 568 154 554 167 568 b 217 526 206 568 217 554 z m 328 763 l 240 888 l 121 888 l 33 763 l 92 717 l 181 810 l 269 717 z m 358 831 b 425 939 358 871 425 871 b 343 1019 425 988 390 1019 b 258 990 317 1019 281 1010 l 281 919 b 331 940 296 933 310 940 b 351 925 346 940 351 936 b 296 831 351 892 296 896 z "},"Ỗ":{"ha":376,"x_min":0,"x_max":0,"o":"m 358 740 b 188 928 358 858 296 928 b 17 743 79 928 17 860 l 17 175 b 189 -7 17 58 78 -7 b 358 174 297 -7 358 53 z m 219 164 b 188 122 219 136 208 122 b 157 164 167 122 157 136 l 157 756 b 188 797 157 783 167 797 b 219 756 208 797 219 783 z m 336 992 l 249 1117 l 131 1117 l 43 992 l 101 946 l 190 1039 l 278 946 z m 279 1247 b 244 1217 274 1221 258 1217 b 125 1249 203 1217 171 1249 b 44 1171 86 1249 54 1226 l 103 1139 b 138 1171 108 1167 124 1171 b 257 1138 179 1171 211 1138 b 338 1217 294 1138 328 1160 z "},"ỗ":{"ha":372,"x_min":0,"x_max":0,"o":"m 349 526 b 186 689 349 638 296 689 b 24 526 75 689 24 638 l 24 156 b 186 -7 24 44 75 -7 b 349 156 296 -7 349 44 z m 217 156 b 186 114 217 128 206 114 b 154 156 167 114 154 128 l 154 526 b 186 568 154 554 167 568 b 217 526 206 568 217 554 z m 333 763 l 246 888 l 128 888 l 40 763 l 99 717 l 188 810 l 275 717 z m 276 1018 b 242 988 271 992 256 988 b 122 1019 200 988 168 1019 b 42 942 83 1019 51 997 l 100 910 b 135 942 106 938 121 942 b 254 908 176 942 208 908 b 335 988 292 908 325 931 z "},"Ộ":{"ha":376,"x_min":0,"x_max":0,"o":"m 358 740 b 188 928 358 858 296 928 b 17 743 79 928 17 860 l 17 175 b 189 -7 17 58 78 -7 b 358 174 297 -7 358 53 z m 219 164 b 188 122 219 136 208 122 b 157 164 167 122 157 136 l 157 756 b 188 797 157 783 167 797 b 219 756 208 797 219 783 z m 335 992 l 247 1125 l 128 1125 l 40 992 l 99 946 l 188 1047 l 276 946 z m 256 -186 l 256 -64 l 121 -64 l 121 -186 z "},"ộ":{"ha":372,"x_min":0,"x_max":0,"o":"m 349 526 b 186 689 349 638 296 689 b 24 526 75 689 24 638 l 24 156 b 186 -7 24 44 75 -7 b 349 156 296 -7 349 44 z m 217 156 b 186 114 217 128 206 114 b 154 156 167 114 154 128 l 154 526 b 186 568 154 554 167 568 b 217 526 206 568 217 554 z m 333 763 l 246 896 l 126 896 l 39 763 l 97 717 l 186 818 l 275 717 z m 253 -186 l 253 -64 l 118 -64 l 118 -186 z "},"Ớ":{"ha":439,"x_min":0,"x_max":0,"o":"m 358 740 b 338 843 358 781 351 815 b 372 839 350 840 363 839 b 439 956 421 839 439 872 b 429 1018 439 979 438 1006 l 358 1018 b 363 967 361 1006 363 978 b 313 918 363 929 350 918 b 186 928 278 918 228 928 b 17 743 79 928 17 861 l 17 175 b 189 -7 17 58 76 -7 b 358 174 297 -7 358 51 z m 219 164 b 188 122 219 136 208 122 b 157 164 167 122 157 136 l 157 756 b 188 797 157 783 167 797 b 219 756 208 797 219 783 z m 318 1086 l 250 1167 l 100 999 l 151 946 z "},"ớ":{"ha":422,"x_min":0,"x_max":0,"o":"m 318 857 l 250 938 l 100 769 l 151 717 z m 349 526 b 338 601 349 554 344 579 b 356 600 344 600 349 600 b 422 715 404 600 422 632 b 413 779 422 742 421 767 l 342 779 b 346 728 344 767 346 739 b 299 679 346 692 336 679 b 181 689 265 679 226 689 b 24 526 76 689 24 635 l 24 156 b 186 -7 24 43 75 -7 b 349 156 297 -7 349 43 z m 217 156 b 186 114 217 128 207 114 b 154 156 165 114 154 128 l 154 526 b 186 568 154 554 165 568 b 217 526 207 568 217 554 z "},"Ờ":{"ha":439,"x_min":0,"x_max":0,"o":"m 358 740 b 338 843 358 781 351 815 b 372 839 350 840 363 839 b 439 956 421 839 439 872 b 429 1018 439 979 438 1006 l 358 1018 b 363 967 361 1006 363 978 b 313 918 363 929 350 918 b 186 928 278 918 228 928 b 17 743 79 928 17 861 l 17 175 b 189 -7 17 58 76 -7 b 358 174 297 -7 358 51 z m 219 164 b 188 122 219 136 208 122 b 157 164 167 122 157 136 l 157 756 b 188 797 157 783 167 797 b 219 756 208 797 219 783 z m 225 946 l 276 999 l 128 1167 l 58 1086 z "},"ờ":{"ha":422,"x_min":0,"x_max":0,"o":"m 224 717 l 275 769 l 126 938 l 57 857 z m 349 526 b 338 601 349 554 344 579 b 356 600 344 600 349 600 b 422 715 404 600 422 632 b 413 779 422 742 421 767 l 342 779 b 346 728 344 767 346 739 b 299 679 346 692 336 679 b 181 689 265 679 226 689 b 24 526 76 689 24 635 l 24 156 b 186 -7 24 43 75 -7 b 349 156 297 -7 349 43 z m 217 156 b 186 114 217 128 207 114 b 154 156 165 114 154 128 l 154 526 b 186 568 154 554 165 568 b 217 526 207 568 217 554 z "},"Ở":{"ha":439,"x_min":0,"x_max":0,"o":"m 358 740 b 338 843 358 781 351 815 b 372 839 350 840 363 839 b 439 956 421 839 439 872 b 429 1018 439 979 438 1006 l 358 1018 b 363 967 361 1006 363 978 b 313 918 363 929 350 918 b 186 928 278 918 228 928 b 17 743 79 928 17 861 l 17 175 b 189 -7 17 58 76 -7 b 358 174 297 -7 358 51 z m 219 164 b 188 122 219 136 208 122 b 157 164 167 122 157 136 l 157 756 b 188 797 157 783 167 797 b 219 756 208 797 219 783 z m 213 958 b 279 1067 213 1000 279 1000 b 197 1147 279 1117 244 1147 b 113 1118 171 1147 135 1138 l 135 1047 b 185 1068 150 1061 164 1068 b 206 1054 200 1068 206 1064 b 150 958 206 1021 150 1025 z "},"ở":{"ha":422,"x_min":0,"x_max":0,"o":"m 349 526 b 338 601 349 554 344 579 b 356 600 344 600 349 600 b 422 715 404 600 422 632 b 413 779 422 742 421 767 l 342 779 b 346 728 344 767 346 739 b 299 679 346 692 336 679 b 181 689 265 679 226 689 b 24 526 76 689 24 635 l 24 156 b 186 -7 24 43 75 -7 b 349 156 297 -7 349 43 z m 217 156 b 186 114 217 128 207 114 b 154 156 165 114 154 128 l 154 526 b 186 568 154 554 165 568 b 217 526 207 568 217 554 z m 215 729 b 282 838 215 771 282 771 b 200 918 282 888 247 918 b 115 889 174 918 138 908 l 138 818 b 188 839 153 832 167 839 b 208 825 203 839 208 835 b 153 729 208 792 153 796 z "},"Ỡ":{"ha":439,"x_min":0,"x_max":0,"o":"m 358 740 b 338 843 358 781 351 815 b 372 839 350 840 363 839 b 439 956 421 839 439 872 b 429 1018 439 979 438 1006 l 358 1018 b 363 967 361 1006 363 978 b 313 918 363 929 350 918 b 186 928 278 918 228 928 b 17 743 79 928 17 861 l 17 175 b 189 -7 17 58 76 -7 b 358 174 297 -7 358 51 z m 219 164 b 188 122 219 136 208 122 b 157 164 167 122 157 136 l 157 756 b 188 797 157 783 167 797 b 219 756 208 797 219 783 z m 279 1072 b 242 1039 272 1046 258 1039 b 124 1075 201 1039 169 1075 b 42 996 85 1075 53 1051 l 99 964 b 136 997 106 992 121 997 b 256 961 176 997 208 961 b 336 1042 293 961 325 985 z "},"ỡ":{"ha":422,"x_min":0,"x_max":0,"o":"m 349 526 b 338 601 349 554 344 579 b 356 600 344 600 349 600 b 422 715 404 600 422 632 b 413 779 422 742 421 767 l 342 779 b 346 728 344 767 346 739 b 299 679 346 692 336 679 b 181 689 265 679 226 689 b 24 526 76 689 24 635 l 24 156 b 186 -7 24 43 75 -7 b 349 156 297 -7 349 43 z m 217 156 b 186 114 217 128 207 114 b 154 156 165 114 154 128 l 154 526 b 186 568 154 554 165 568 b 217 526 207 568 217 554 z m 276 843 b 239 810 269 817 256 810 b 121 846 199 810 167 846 b 39 767 82 846 50 822 l 96 735 b 133 768 103 763 118 768 b 253 732 174 768 206 732 b 333 813 290 732 322 756 z "},"Ợ":{"ha":439,"x_min":0,"x_max":0,"o":"m 358 740 b 338 843 358 781 351 815 b 372 839 350 840 363 839 b 439 956 421 839 439 872 b 429 1018 439 979 438 1006 l 358 1018 b 363 967 361 1006 363 978 b 313 918 363 929 350 918 b 186 928 278 918 228 928 b 17 743 79 928 17 861 l 17 175 b 189 -7 17 58 76 -7 b 358 174 297 -7 358 51 z m 219 164 b 188 122 219 136 208 122 b 157 164 167 122 157 136 l 157 756 b 188 797 157 783 167 797 b 219 756 208 797 219 783 z m 256 -186 l 256 -64 l 121 -64 l 121 -186 z "},"ợ":{"ha":422,"x_min":0,"x_max":0,"o":"m 349 526 b 338 601 349 554 344 579 b 356 600 344 600 349 600 b 422 715 404 600 422 632 b 413 779 422 742 421 767 l 342 779 b 346 728 344 767 346 739 b 299 679 346 692 336 679 b 181 689 265 679 226 689 b 24 526 76 689 24 635 l 24 156 b 186 -7 24 43 75 -7 b 349 156 297 -7 349 43 z m 217 156 b 186 114 217 128 207 114 b 154 156 165 114 154 128 l 154 526 b 186 568 154 554 165 568 b 217 526 207 568 217 554 z m 254 -186 l 254 -64 l 119 -64 l 119 -186 z "},"Ụ":{"ha":383,"x_min":0,"x_max":0,"o":"m 221 164 b 190 122 221 136 211 122 b 158 164 169 122 158 136 l 158 922 l 21 922 l 21 174 b 192 -7 21 53 83 -7 b 361 175 303 -7 361 58 l 361 922 l 221 922 z m 256 -186 l 256 -64 l 121 -64 l 121 -186 z "},"ụ":{"ha":378,"x_min":0,"x_max":0,"o":"m 24 683 l 24 158 b 126 -7 24 64 36 -7 b 219 58 169 -7 194 10 l 225 58 l 226 0 l 354 0 l 354 683 l 218 683 l 218 158 b 189 110 218 122 213 110 b 160 158 164 110 160 122 l 160 683 z m 257 -186 l 257 -64 l 122 -64 l 122 -186 z "},"Ủ":{"ha":383,"x_min":0,"x_max":0,"o":"m 221 164 b 190 122 221 136 211 122 b 158 164 169 122 158 136 l 158 922 l 21 922 l 21 174 b 192 -7 21 53 83 -7 b 361 175 303 -7 361 58 l 361 922 l 221 922 z m 217 958 b 283 1067 217 1000 283 1000 b 201 1147 283 1117 249 1147 b 117 1118 175 1147 139 1138 l 139 1047 b 189 1068 154 1061 168 1068 b 210 1054 204 1068 210 1064 b 154 958 210 1021 154 1025 z "},"ủ":{"ha":378,"x_min":0,"x_max":0,"o":"m 24 683 l 24 158 b 126 -7 24 64 36 -7 b 219 58 169 -7 194 10 l 225 58 l 226 0 l 354 0 l 354 683 l 218 683 l 218 158 b 189 110 218 122 213 110 b 160 158 164 110 160 122 l 160 683 z m 217 729 b 283 838 217 771 283 771 b 201 918 283 888 249 918 b 117 889 175 918 139 908 l 139 818 b 189 839 154 832 168 839 b 210 825 204 839 210 835 b 154 729 210 792 154 796 z "},"Ứ":{"ha":478,"x_min":0,"x_max":0,"o":"m 221 164 b 190 122 221 136 211 122 b 158 164 169 122 158 136 l 158 922 l 21 922 l 21 174 b 192 -7 21 51 83 -7 b 361 175 304 -7 361 58 l 361 847 b 411 839 379 843 396 839 b 478 954 458 839 478 871 b 468 1018 478 981 475 1006 l 396 1018 b 400 969 400 1004 400 981 b 361 922 400 935 390 922 l 221 922 z m 318 1086 l 250 1167 l 100 999 l 151 946 z "},"ứ":{"ha":467,"x_min":0,"x_max":0,"o":"m 318 857 l 250 938 l 100 769 l 151 717 z m 24 683 l 24 179 b 131 -7 24 75 40 -7 b 221 58 176 -7 203 22 l 225 58 l 226 0 l 354 0 l 354 608 b 399 600 369 603 386 600 b 467 714 449 600 467 633 b 457 779 467 742 464 767 l 385 779 b 389 731 388 765 389 743 b 354 683 389 694 379 683 l 218 683 l 218 142 b 186 110 213 121 203 110 b 160 144 169 110 160 121 l 160 683 z "},"Ừ":{"ha":478,"x_min":0,"x_max":0,"o":"m 221 164 b 190 122 221 136 211 122 b 158 164 169 122 158 136 l 158 922 l 21 922 l 21 174 b 192 -7 21 51 83 -7 b 361 175 304 -7 361 58 l 361 847 b 411 839 379 843 396 839 b 478 954 458 839 478 871 b 468 1018 478 981 475 1006 l 396 1018 b 400 969 400 1004 400 981 b 361 922 400 935 390 922 l 221 922 z m 229 946 l 281 999 l 132 1167 l 63 1086 z "},"ừ":{"ha":467,"x_min":0,"x_max":0,"o":"m 226 717 l 278 769 l 129 938 l 60 857 z m 24 683 l 24 179 b 131 -7 24 75 40 -7 b 221 58 176 -7 203 22 l 225 58 l 226 0 l 354 0 l 354 608 b 399 600 369 603 386 600 b 467 714 449 600 467 633 b 457 779 467 742 464 767 l 385 779 b 389 731 388 765 389 743 b 354 683 389 694 379 683 l 218 683 l 218 142 b 186 110 213 121 203 110 b 160 144 169 110 160 121 l 160 683 z "},"Ử":{"ha":478,"x_min":0,"x_max":0,"o":"m 221 164 b 190 122 221 136 211 122 b 158 164 169 122 158 136 l 158 922 l 21 922 l 21 174 b 192 -7 21 51 83 -7 b 361 175 304 -7 361 58 l 361 847 b 411 839 379 843 396 839 b 478 954 458 839 478 871 b 468 1018 478 981 475 1006 l 396 1018 b 400 969 400 1004 400 981 b 361 922 400 935 390 922 l 221 922 z m 217 958 b 283 1067 217 1000 283 1000 b 201 1147 283 1117 249 1147 b 117 1118 175 1147 139 1138 l 139 1047 b 189 1068 154 1061 168 1068 b 210 1054 204 1068 210 1064 b 154 958 210 1021 154 1025 z "},"ử":{"ha":467,"x_min":0,"x_max":0,"o":"m 24 683 l 24 179 b 131 -7 24 75 40 -7 b 221 58 176 -7 203 22 l 225 58 l 226 0 l 354 0 l 354 608 b 399 600 369 603 386 600 b 467 714 449 600 467 633 b 457 779 467 742 464 767 l 385 779 b 389 731 388 765 389 743 b 354 683 389 694 379 683 l 218 683 l 218 142 b 186 110 213 121 203 110 b 160 144 169 110 160 121 l 160 683 z m 214 729 b 281 838 214 771 281 771 b 199 918 281 888 246 918 b 114 889 172 918 136 908 l 136 818 b 186 839 151 832 165 839 b 207 825 201 839 207 835 b 151 729 207 792 151 796 z "},"Ữ":{"ha":478,"x_min":0,"x_max":0,"o":"m 221 164 b 190 122 221 136 211 122 b 158 164 169 122 158 136 l 158 922 l 21 922 l 21 174 b 192 -7 21 51 83 -7 b 361 175 304 -7 361 58 l 361 847 b 411 839 379 843 396 839 b 478 954 458 839 478 871 b 468 1018 478 981 475 1006 l 396 1018 b 400 969 400 1004 400 981 b 361 922 400 935 390 922 l 221 922 z m 279 1072 b 242 1039 272 1046 258 1039 b 124 1075 201 1039 169 1075 b 42 996 85 1075 53 1051 l 99 964 b 136 997 106 992 121 997 b 256 961 176 997 208 961 b 336 1042 293 961 325 985 z "},"ữ":{"ha":467,"x_min":0,"x_max":0,"o":"m 279 843 b 242 810 272 817 258 810 b 124 846 201 810 169 846 b 42 767 85 846 53 822 l 99 735 b 136 768 106 763 121 768 b 256 732 176 768 208 732 b 336 813 293 732 325 756 z m 24 683 l 24 179 b 131 -7 24 75 40 -7 b 221 58 176 -7 203 22 l 225 58 l 226 0 l 354 0 l 354 608 b 399 600 369 603 386 600 b 467 714 449 600 467 633 b 457 779 467 742 464 767 l 385 779 b 389 731 388 765 389 743 b 354 683 389 694 379 683 l 218 683 l 218 142 b 186 110 213 121 203 110 b 160 144 169 110 160 121 l 160 683 z "},"Ự":{"ha":478,"x_min":0,"x_max":0,"o":"m 221 164 b 190 122 221 136 211 122 b 158 164 169 122 158 136 l 158 922 l 21 922 l 21 174 b 192 -7 21 51 83 -7 b 361 175 304 -7 361 58 l 361 847 b 411 839 379 843 396 839 b 478 954 458 839 478 871 b 468 1018 478 981 475 1006 l 396 1018 b 400 969 400 1004 400 981 b 361 922 400 935 390 922 l 221 922 z m 256 -186 l 256 -64 l 121 -64 l 121 -186 z "},"ự":{"ha":467,"x_min":0,"x_max":0,"o":"m 24 683 l 24 179 b 131 -7 24 75 40 -7 b 221 58 176 -7 203 22 l 225 58 l 226 0 l 354 0 l 354 608 b 399 600 369 603 386 600 b 467 714 449 600 467 633 b 457 779 467 742 464 767 l 385 779 b 389 731 388 765 389 743 b 354 683 389 694 379 683 l 218 683 l 218 142 b 186 110 213 121 203 110 b 160 144 169 110 160 121 l 160 683 z m 256 -186 l 256 -64 l 121 -64 l 121 -186 z "},"Ỳ":{"ha":383,"x_min":0,"x_max":0,"o":"m 265 0 l 265 378 l 381 922 l 243 922 l 199 621 l 193 621 l 142 922 l 3 922 l 124 379 l 124 0 z m 232 946 l 283 999 l 135 1167 l 65 1086 z "},"ỳ":{"ha":376,"x_min":0,"x_max":0,"o":"m 160 683 l 24 683 l 24 133 b 126 0 24 53 47 0 b 213 50 164 0 192 11 l 218 50 l 218 -161 b 188 -203 218 -189 208 -203 b 156 -161 167 -203 156 -189 l 156 -42 l 26 -42 l 26 -161 b 188 -324 26 -271 78 -324 b 353 -161 299 -324 353 -271 l 353 683 l 222 683 l 222 164 b 190 122 221 135 208 122 b 160 164 171 122 160 135 z m 226 717 l 278 769 l 129 938 l 60 857 z "},"Ỷ":{"ha":383,"x_min":0,"x_max":0,"o":"m 265 0 l 265 378 l 381 922 l 243 922 l 199 621 l 193 621 l 142 922 l 3 922 l 124 379 l 124 0 z m 225 958 b 292 1067 225 1000 292 1000 b 210 1147 292 1117 257 1147 b 125 1118 183 1147 147 1138 l 147 1047 b 197 1068 163 1061 176 1068 b 218 1054 213 1068 218 1064 b 163 958 218 1021 163 1025 z "},"ỷ":{"ha":376,"x_min":0,"x_max":0,"o":"m 160 683 l 24 683 l 24 133 b 126 0 24 53 47 0 b 213 50 164 0 192 11 l 218 50 l 218 -161 b 188 -203 218 -189 208 -203 b 156 -161 167 -203 156 -189 l 156 -42 l 26 -42 l 26 -161 b 188 -324 26 -271 78 -324 b 353 -161 299 -324 353 -271 l 353 683 l 222 683 l 222 164 b 190 122 221 135 208 122 b 160 164 171 122 160 135 z m 218 729 b 285 838 218 771 285 771 b 203 918 285 888 250 918 b 118 889 176 918 140 908 l 140 818 b 190 839 156 832 169 839 b 211 825 206 839 211 835 b 156 729 211 792 156 796 z "},"–":{"ha":258,"x_min":0,"x_max":0,"o":"m 242 368 l 242 483 l 17 483 l 17 368 z "},"—":{"ha":372,"x_min":0,"x_max":0,"o":"m 356 368 l 356 483 l 17 483 l 17 368 z "},"‘":{"ha":181,"x_min":0,"x_max":0,"o":"m 158 975 b 21 781 69 957 21 892 l 21 632 l 158 632 l 158 768 l 100 768 l 100 800 b 158 899 100 843 119 876 z "},"’":{"ha":181,"x_min":0,"x_max":0,"o":"m 21 590 b 158 785 110 607 158 671 l 158 933 l 21 933 l 21 797 l 81 797 l 81 765 b 21 667 81 722 61 689 z "},"‚":{"ha":181,"x_min":0,"x_max":0,"o":"m 21 -207 b 158 -12 110 -190 158 -126 l 158 136 l 21 136 l 21 0 l 81 0 l 81 -32 b 21 -131 81 -75 61 -108 z "},"“":{"ha":363,"x_min":0,"x_max":0,"o":"m 158 975 b 21 781 69 957 21 892 l 21 632 l 158 632 l 158 768 l 100 768 l 100 800 b 158 899 100 843 119 876 z m 339 975 b 201 781 250 957 201 892 l 201 632 l 339 632 l 339 768 l 281 768 l 281 800 b 339 899 281 843 300 876 z "},"”":{"ha":361,"x_min":0,"x_max":0,"o":"m 21 590 b 158 785 110 607 158 671 l 158 933 l 21 933 l 21 797 l 81 797 l 81 765 b 21 667 81 722 61 689 z m 200 590 b 338 785 289 607 338 671 l 338 933 l 200 933 l 200 797 l 260 797 l 260 765 b 200 667 260 722 240 689 z "},"„":{"ha":361,"x_min":0,"x_max":0,"o":"m 21 -207 b 158 -12 110 -190 158 -126 l 158 136 l 21 136 l 21 0 l 81 0 l 81 -32 b 21 -131 81 -75 61 -108 z m 200 -207 b 338 -12 289 -190 338 -126 l 338 136 l 200 136 l 200 0 l 260 0 l 260 -32 b 200 -131 260 -75 240 -108 z "},"†":{"ha":315,"x_min":0,"x_max":0,"o":"m 200 0 l 200 661 l 293 661 l 293 736 l 200 736 l 200 922 l 119 922 l 119 736 l 21 736 l 21 661 l 119 661 l 119 0 z "},"‡":{"ha":313,"x_min":0,"x_max":0,"o":"m 200 0 l 200 186 l 293 186 l 293 261 l 200 261 l 200 661 l 293 661 l 293 736 l 200 736 l 200 922 l 119 922 l 119 736 l 21 736 l 21 661 l 119 661 l 119 261 l 21 261 l 21 186 l 119 186 l 119 0 z "},"•":{"ha":240,"x_min":0,"x_max":0,"o":"m 121 356 b 218 461 175 356 218 400 b 121 568 218 524 175 568 b 21 461 65 568 21 524 b 121 356 21 400 65 356 z "},"…":{"ha":518,"x_min":0,"x_max":0,"o":"m 328 0 l 328 136 l 190 136 l 190 0 z m 496 0 l 496 136 l 358 136 l 358 0 z m 158 0 l 158 136 l 21 136 l 21 0 z "},"‰":{"ha":575,"x_min":0,"x_max":0,"o":"m 106 -22 l 353 944 l 278 944 l 31 -22 z m 390 325 b 306 432 390 396 363 432 b 219 325 249 432 219 396 l 219 104 b 306 -4 219 39 249 -4 b 390 101 363 -4 390 31 z m 319 101 b 304 61 319 75 314 61 b 289 101 294 61 289 75 l 289 326 b 304 367 289 353 294 367 b 319 326 314 367 319 353 z m 575 325 b 490 432 575 396 547 432 b 404 325 433 432 404 396 l 404 104 b 490 -4 404 39 433 -4 b 575 101 547 -4 575 31 z m 504 101 b 489 61 504 75 499 61 b 474 101 479 61 474 75 l 474 326 b 489 367 474 353 479 367 b 504 326 499 367 504 353 z m 171 818 b 86 925 171 889 143 925 b 0 818 29 925 0 889 l 0 597 b 86 489 0 532 29 489 b 171 594 143 489 171 524 z m 100 594 b 85 554 100 568 94 554 b 69 594 75 554 69 568 l 69 819 b 85 860 69 846 75 860 b 100 819 94 860 100 846 z "},"‹":{"ha":183,"x_min":0,"x_max":0,"o":"m 125 265 l 178 317 l 92 442 l 178 567 l 125 618 l 6 442 z "},"›":{"ha":183,"x_min":0,"x_max":0,"o":"m 58 267 l 178 443 l 58 618 l 6 568 l 92 443 l 6 317 z "},"⁄":{"ha":93,"x_min":0,"x_max":0,"o":"m -37 -22 l 210 944 l 135 944 l -112 -22 z "},"⁰":{"ha":213,"x_min":0,"x_max":0,"o":"m 192 818 b 107 925 192 889 164 925 b 21 818 50 925 21 889 l 21 597 b 107 489 21 532 50 489 b 192 594 164 489 192 524 z m 121 594 b 106 554 121 568 115 554 b 90 594 96 554 90 568 l 90 819 b 106 860 90 846 96 860 b 121 819 115 860 121 846 z "},"⁴":{"ha":210,"x_min":0,"x_max":0,"o":"m 100 642 l 63 642 l 96 779 l 100 779 z m 167 493 l 167 583 l 193 583 l 193 642 l 167 642 l 167 922 l 86 922 l 17 642 l 17 583 l 100 583 l 100 493 z "},"⁵":{"ha":208,"x_min":0,"x_max":0,"o":"m 188 696 b 126 769 188 754 158 769 b 85 756 110 769 94 765 l 89 860 l 178 860 l 178 922 l 29 922 l 21 700 l 86 700 b 103 710 90 707 96 710 b 118 689 111 710 118 704 l 118 575 b 103 554 118 560 113 554 b 88 575 92 554 88 560 l 88 604 l 21 604 l 21 578 b 104 489 21 507 63 489 b 188 581 158 489 188 522 z "},"⁶":{"ha":208,"x_min":0,"x_max":0,"o":"m 188 694 b 135 757 188 733 167 757 b 92 731 117 757 103 750 l 90 731 l 90 839 b 106 860 90 851 96 860 b 121 839 117 860 121 851 l 121 799 l 188 799 l 188 842 b 106 925 188 896 158 925 b 21 832 50 925 21 892 l 21 581 b 104 489 21 522 49 489 b 188 579 158 489 188 518 z m 121 575 b 106 554 121 560 117 554 b 90 575 96 554 90 560 l 90 683 b 106 699 92 693 97 699 b 121 678 117 699 121 692 z "},"⁷":{"ha":175,"x_min":0,"x_max":0,"o":"m 104 493 b 158 864 104 611 125 758 l 158 922 l 17 922 l 17 858 l 99 858 b 36 493 69 765 38 610 z "},"⁸":{"ha":206,"x_min":0,"x_max":0,"o":"m 103 860 b 117 843 113 860 117 853 l 117 758 b 103 740 117 747 113 740 b 88 758 92 740 88 747 l 88 843 b 103 860 88 853 92 860 z m 103 489 b 188 581 158 489 188 524 l 188 635 b 149 713 188 681 179 704 l 149 717 b 183 774 174 721 183 743 l 183 846 b 103 925 183 885 158 925 b 22 846 46 925 22 885 l 22 774 b 56 717 22 743 32 721 l 56 713 b 17 635 24 704 17 681 l 17 581 b 103 489 17 524 46 489 z m 103 554 b 88 572 90 554 88 560 l 88 663 b 103 682 88 676 92 682 b 118 663 113 682 118 676 l 118 572 b 103 554 118 560 115 554 z "},"⁹":{"ha":208,"x_min":0,"x_max":0,"o":"m 21 726 b 74 664 21 688 42 664 b 113 690 92 664 103 671 l 118 690 l 118 582 b 103 556 118 565 115 556 b 88 575 92 556 88 561 l 88 610 l 21 610 l 21 578 b 103 489 21 524 44 489 b 188 590 171 489 188 532 l 188 822 b 104 925 188 888 169 925 b 21 825 39 925 21 892 z m 88 839 b 103 860 88 853 92 860 b 118 839 113 860 118 853 l 118 743 b 103 722 118 729 113 722 b 88 743 92 722 88 729 z "},"₀":{"ha":213,"x_min":0,"x_max":0,"o":"m 192 325 b 107 432 192 396 164 432 b 21 325 50 432 21 396 l 21 104 b 107 -4 21 39 50 -4 b 192 101 164 -4 192 31 z m 121 101 b 106 61 121 75 115 61 b 90 101 96 61 90 75 l 90 326 b 106 367 90 353 96 367 b 121 326 115 367 121 353 z "},"₁":{"ha":142,"x_min":0,"x_max":0,"o":"m 119 0 l 119 429 l 60 429 b 17 399 57 413 46 399 l 17 343 l 51 343 l 51 0 z "},"₂":{"ha":206,"x_min":0,"x_max":0,"o":"m 188 0 l 188 61 l 92 61 l 92 104 b 108 149 92 126 99 136 b 164 214 135 182 151 199 b 188 286 181 235 188 256 l 188 347 b 104 432 188 404 171 432 b 22 338 33 432 22 400 l 22 279 l 89 279 l 89 344 b 104 367 89 358 94 367 b 121 346 115 367 121 358 l 121 288 b 108 246 121 267 117 258 b 47 176 97 231 65 201 b 21 89 28 149 21 124 l 21 0 z "},"₃":{"ha":206,"x_min":0,"x_max":0,"o":"m 188 165 b 147 224 188 203 171 219 l 147 228 b 183 282 171 232 183 251 l 183 353 b 103 432 183 392 158 432 b 21 338 50 432 21 397 l 21 297 l 88 297 l 88 346 b 103 367 88 358 92 367 b 118 346 113 367 118 358 l 118 275 b 100 251 118 258 113 251 l 76 251 l 76 193 l 99 193 b 118 171 111 193 118 186 l 118 82 b 103 61 118 67 113 61 b 88 82 92 61 88 67 l 88 142 l 21 142 l 21 86 b 104 -4 21 25 50 -4 b 188 88 158 -4 188 29 z "},"₄":{"ha":210,"x_min":0,"x_max":0,"o":"m 100 149 l 63 149 l 96 286 l 100 286 z m 167 0 l 167 90 l 193 90 l 193 149 l 167 149 l 167 429 l 86 429 l 17 149 l 17 90 l 100 90 l 100 0 z "},"₅":{"ha":208,"x_min":0,"x_max":0,"o":"m 188 203 b 126 276 188 261 158 276 b 85 263 110 276 94 272 l 89 367 l 178 367 l 178 429 l 29 429 l 21 207 l 86 207 b 103 217 90 214 96 217 b 118 196 111 217 118 211 l 118 82 b 103 61 118 67 113 61 b 88 82 92 61 88 67 l 88 111 l 21 111 l 21 85 b 104 -4 21 14 63 -4 b 188 88 158 -4 188 29 z "},"₆":{"ha":208,"x_min":0,"x_max":0,"o":"m 188 201 b 135 264 188 240 167 264 b 92 238 117 264 103 257 l 90 238 l 90 346 b 106 367 90 358 96 367 b 121 346 117 367 121 358 l 121 306 l 188 306 l 188 349 b 106 432 188 403 158 432 b 21 339 50 432 21 399 l 21 88 b 104 -4 21 29 49 -4 b 188 86 158 -4 188 25 z m 121 82 b 106 61 121 67 117 61 b 90 82 96 61 90 67 l 90 190 b 106 206 92 200 97 206 b 121 185 117 206 121 199 z "},"₇":{"ha":175,"x_min":0,"x_max":0,"o":"m 104 0 b 158 371 104 118 125 265 l 158 429 l 17 429 l 17 365 l 99 365 b 36 0 69 272 38 117 z "},"₈":{"ha":206,"x_min":0,"x_max":0,"o":"m 103 367 b 117 350 113 367 117 360 l 117 265 b 103 247 117 254 113 247 b 88 265 92 247 88 254 l 88 350 b 103 367 88 360 92 367 z m 103 -4 b 188 88 158 -4 188 31 l 188 142 b 149 219 188 188 179 211 l 149 224 b 183 281 174 228 183 250 l 183 353 b 103 432 183 392 158 432 b 22 353 46 432 22 392 l 22 281 b 56 224 22 250 32 228 l 56 219 b 17 142 24 211 17 188 l 17 88 b 103 -4 17 31 46 -4 z m 103 61 b 88 79 90 61 88 67 l 88 169 b 103 189 88 183 92 189 b 118 169 113 189 118 183 l 118 79 b 103 61 118 67 115 61 z "},"₉":{"ha":208,"x_min":0,"x_max":0,"o":"m 21 233 b 74 171 21 194 42 171 b 113 197 92 171 103 178 l 118 197 l 118 89 b 103 63 118 72 115 63 b 88 82 92 63 88 68 l 88 117 l 21 117 l 21 85 b 103 -4 21 31 44 -4 b 188 97 171 -4 188 39 l 188 329 b 104 432 188 394 169 432 b 21 332 39 432 21 399 z m 88 346 b 103 367 88 360 92 367 b 118 346 113 367 118 360 l 118 250 b 103 229 118 236 113 229 b 88 250 92 229 88 236 z "},"₩":{"ha":572,"x_min":0,"x_max":0,"o":"m 244 0 l 264 375 l 304 375 l 325 0 l 483 0 l 506 375 l 563 375 l 563 444 l 510 444 l 517 542 l 563 542 l 563 611 l 521 611 l 540 922 l 424 922 l 413 611 l 369 611 l 353 922 l 218 922 l 201 611 l 160 611 l 149 922 l 31 922 l 50 611 l 10 611 l 10 542 l 54 542 l 60 444 l 10 444 l 10 375 l 64 375 l 88 0 z m 374 542 l 410 542 l 407 444 l 379 444 z m 163 542 l 197 542 l 193 444 l 167 444 z m 272 542 l 296 542 l 301 444 l 267 444 z m 175 207 l 169 375 l 189 375 l 181 207 z m 393 207 l 383 375 l 404 375 l 399 207 z m 282 724 l 288 724 l 293 611 l 275 611 z "},"₪":{"ha":497,"x_min":0,"x_max":0,"o":"m 354 158 l 354 813 b 276 922 354 901 329 922 l 21 922 l 21 0 l 108 0 l 108 785 l 238 785 b 265 751 256 785 265 778 l 265 158 z m 143 763 l 143 108 b 221 0 143 18 168 0 l 475 0 l 475 922 l 388 922 l 388 135 l 258 135 b 231 171 240 135 231 143 l 231 763 z "},"₫":{"ha":317,"x_min":0,"x_max":0,"o":"m 278 146 l 278 797 l 308 797 l 308 868 l 278 868 l 278 933 l 182 933 l 182 868 l 57 868 l 57 797 l 182 797 l 182 640 l 176 640 b 101 676 167 660 138 676 b 24 589 58 676 24 651 l 24 229 b 103 140 24 169 54 140 b 182 188 146 140 171 163 l 188 188 l 190 146 z m 121 563 b 151 592 121 583 135 592 b 183 563 169 592 178 583 l 183 251 b 153 225 178 232 171 225 b 121 260 132 225 121 236 z m 278 0 l 278 71 l 15 71 l 15 0 z "},"€":{"ha":358,"x_min":0,"x_max":0,"o":"m 271 171 b 221 122 258 139 242 122 b 192 164 200 122 192 136 l 192 331 l 243 331 l 254 414 l 192 414 l 192 522 l 267 522 l 278 606 l 192 606 l 192 756 b 231 797 192 783 204 797 b 292 767 253 797 274 786 l 313 901 b 222 928 292 919 263 928 b 51 743 108 928 51 861 l 51 606 l 26 606 l 15 522 l 51 522 l 51 414 l 26 414 l 15 331 l 51 331 l 51 175 b 203 -7 51 58 108 -7 b 350 88 268 -7 315 24 z "},"₭":{"ha":432,"x_min":0,"x_max":0,"o":"m 411 456 l 411 547 l 326 547 l 408 922 l 267 922 l 199 547 l 194 547 l 194 922 l 50 922 l 50 547 l 8 547 l 8 456 l 50 456 l 50 0 l 194 0 l 194 456 l 199 456 l 264 0 l 407 0 l 331 456 z "},"₮":{"ha":364,"x_min":0,"x_max":0,"o":"m 333 543 l 333 638 l 251 592 l 251 796 l 351 796 l 351 922 l 13 922 l 13 796 l 111 796 l 111 515 l 31 471 l 31 376 l 111 421 l 111 306 l 31 261 l 31 165 l 111 210 l 111 0 l 251 0 l 251 286 l 333 332 l 333 428 l 251 382 l 251 497 z "}}}
